<svg version="1.1" id="katman_1" xmlns="http://www.w3.org/2000/svg" x="0" y="0" viewBox="0 0 860.8 336.8" xml:space="preserve"><path class="st0" d="M336.8 91.9h33.5v133.9h33.5V58.4h-33.5c-18.4 0-33.5 15-33.5 33.5zm100.4 133.8h33.5v-66.9c0-18.4-15.1-33.5-33.5-33.5v100.4zm67-100.4v100.4h33.5v-66.9h33.5v33.5c0 18.4 15.1 33.5 33.5 33.5v-67c0-18.4-15.1-33.5-33.5-33.5h-67zm301.2 0h-33.5V91.8c0-18.4-15.1-33.5-33.5-33.5v133.9h-66.9v-33.4H705v-33.5h-33.5c-18.4 0-33.5 15.1-33.5 33.5v33.5c0 18.4 15.1 33.5 33.5 33.5h100.4v-67h33.5v33.5c0 18.4 15.1 33.5 33.5 33.5v-67c0-18.4-15.1-33.5-33.5-33.5zM437.2 91.9h33.5c0-18.4-15.1-33.5-33.5-33.5v33.5zm-53.1 190.4h-13.9v-22.7h13.5v3.7h-9.4v5.6h8.4v3.7h-8.4v5.9h9.8v3.8zm60.9-22.7h4.8l-7.9 11.1 8.2 11.6h-4.8l-6.1-8.5-6 8.5h-4.8l8.2-11.6-7.8-11.1h4.8l5.7 8.2 5.7-8.2zm65.4 17.5l1.6 3c-.7.8-1.8 1.4-3.2 1.8-1.4.5-2.8.7-4.3.7-3.6 0-6.5-1.1-8.7-3.2s-3.3-5-3.3-8.5c0-3.4 1.1-6.2 3.2-8.4s5-3.3 8.8-3.3c3 0 5.4.8 7.1 2.3l-1.8 3c-1.6-1-3.3-1.5-5.3-1.5-2.2 0-4.1.7-5.5 2.2-1.4 1.4-2.1 3.4-2.1 5.8s.7 4.3 2.2 5.8 3.5 2.2 5.8 2.2c2-.1 3.9-.7 5.5-1.9zm66.4 5.2h-4.1v-9.7H562v9.7h-4.1v-22.7h4.1v9.3h10.7v-9.3h4.1v22.7zm49.4 0h-4.1l9.9-22.8h3.6l9.9 22.8h-4.4l-2.4-5.8h-10l-2.5 5.8zm10.8-9.5l-3.4-8.1-3.4 8.1h6.8zm73.7-13.2v22.7h-3.3l-12.9-15.7v15.7h-3.8v-22.7h3.3l12.9 15.8v-15.8h3.8zm63.6 14.2h-5.7v-3.7h9.5v9.4c-1 1-2.3 1.8-4 2.3-1.7.6-3.3.8-4.7.8-3.8 0-6.8-1.1-9-3.2s-3.2-4.9-3.2-8.5c0-3.3 1.1-6.1 3.2-8.3 2.1-2.2 5-3.4 8.5-3.4 3 0 5.5.8 7.5 2.3l-1.7 3.2c-.6-.5-1.4-1-2.3-1.3-1-.3-1.9-.5-3-.5-2.3 0-4.2.7-5.7 2.1-1.4 1.4-2.2 3.4-2.2 5.8s.7 4.3 2.2 5.8c1.4 1.4 3.3 2.2 5.8 2.2.8 0 1.8-.2 2.7-.5 1-.3 1.7-.7 2.1-1.1v-3.4zm64.6 8.5H825v-22.7h13.5v3.7h-9.4v5.6h8.4v3.7h-8.4v5.9h9.8v3.8zm-603.7-217s12.2.5 24.9 2c-28.6-22.5-55.6-29-77.6-29-30.3 0-50.8 12.4-52 13.2l9.5-15.1S101.9 32.7 88.5 73c-3.4-8.5-6.6-21-6.6-21S62.1 69.3 71.4 98.1c-22.7-8.3-55.2-19.8-56.4-20-1.7-.2-2.2.5-2.2.5s-.5.7 1 2c2.7 2.2 53.9 40 65.2 47.4-2.4 8.8-2.4 12.9 0 17.1 3.4 5.6 3.7 8.5 3.2 12.7-.5 4.1-4.9 40-5.9 44.4s-11.2 20-10.7 24.7c.5 4.6 6.8 24.4 12.4 26.6 4.1 1.5 14.4 4.6 21.2 4.6 2.4 0 4.6-.5 5.6-1.5 4.1-3.7 5.4-4.4 8.3-4.4h.7c1.2 0 2.7.2 4.4.2 3.9 0 9-.7 12.7-4.1 5.4-5.4 14.6-12.7 17.6-16.1 3.7-4.6 5.6-11 4.6-17.3-.7-5.9 2.4-11 6.1-16.1 4.6-6.1 13.2-17.1 13.2-17.1 16.8 12.7 27.3 32 27.3 53.5 0 38.1-33.2 68.8-74.2 68.8-6.3 0-12.4-.7-18.5-2.2 18.8 6.6 34.7 8.8 47.6 8.8 27.6 0 42.2-10 42.2-10s-5.1 6.6-13.4 14.2h.2c45.6-6.3 67.9-43.9 67.9-43.9s-1.7 12.2-3.9 20.5c60.8-45.6 50.5-102.8 50.3-104.7.5.7 6.6 8.1 9.8 12 9.8-100.9-72.5-133.4-72.5-133.4zm-93.5 160.6c-1 1.2-5.1 4.9-8.1 7.6-2.9 2.7-6.1 5.4-8.5 7.8-1 1-2.9 1.5-5.9 1.5h-7.4c3.7-4.9 14.4-16.1 18.1-18.5 4.4-2.9 6.6-5.9 3.9-11-2.7-5.1-9.8-3.9-9.8-3.9s4.1-1.7 7.8-1.7c-4.6-1.2-10.5 0-13.2 2.7-2.9 2.7-2.4 12.2-3.7 18.3-1.2 6.3-5.4 9.5-11.7 15.4-3.4 3.2-5.9 4.1-7.8 4.1-4.1-.7-9-2-12.4-3.2-2.4-3.2-6.1-13.7-7.1-18.1.7-2.4 3.7-7.6 5.1-10.5 2.9-5.6 4.6-8.8 5.1-11.7 1-4.1 4.1-29.8 5.4-40.5 3.2 4.1 7.6 11 6.6 15.4 7.1-10 2-19.8-.5-23.7-2.2-3.9-5.1-11.7-2.7-20s11.2-31.2 11.2-31.2 2.9 5.1 7.1 4.1c4.1-1 37.6-51.3 37.6-51.3s9 19.8-.5 34.2c-9.8 14.4-19.3 17.1-19.3 17.1s13.4 2.4 25.9-6.6c5.1 12 10 24.4 10.3 26.1-.7 1.7-10.5 25.1-11.5 26.6-.5.5-3.9 1.5-6.3 2-4.1 1.2-6.6 2-7.6 2.7-1.7 1.5-9.5 22.9-13.2 33.4-4.4 1.2-8.8 3.7-12 8.5 1.7-1.2 7.1-2 11-2.4 3.4-.2 13.9 5.4 16.6 15.9v.5c.7 3.9-.5 7.5-2.5 10.4zm-22.9 3c2.2-3.2 2-8.5 2.2-10.3.2-1.7.7-4.9 2.7-5.4s6.6.2 6.6 3.7c0 3.2-3.4 3.9-5.9 6.1-1.7 1.7-5.1 5.4-5.6 5.9zm97.4-46.6c2.4-12.4 2.7-23.2 2-32 9.5 12.7 15.4 28.1 17.1 43.9.2 2 2.2 3.9 4.1 5.9 1.7 1.5 3.7 3.4 3.7 4.6 0 5.6-.5 11.2-1.5 16.8-.2.7-2.4 2-4.1 2.9-2.4 1.2-4.6 2.4-5.1 4.4-5.4 18.8-16.8 35.4-32.2 47.1 22.6-23.6 33.6-62.6 16-93.6zm-15.4 95.9c15.9-12.2 28.1-29.3 33.4-48.6.2-.7 2.4-2 3.9-2.9 2.4-1.2 4.9-2.7 5.4-4.6 1-5.6 1.5-11.5 1.5-17.3 0-2.2-2.2-4.4-4.4-6.6-1.2-1.5-3.2-3.2-3.2-4.4-2-17.8-9-34.7-20-48.6-4.9-29.3-24.4-38.3-24.9-38.6.5.7 13.2 19 4.4 40.5-9 21.7-32.2 18.3-34.2 18.5-2 0-9.5 9.8-19 27.8-1.2-.5-6.3-1.7-12.2-.7 4.4-12.2 11-29.5 12.2-31 .5-.5 4.1-1.5 6.6-2.2 4.6-1.2 6.8-2 7.6-2.9.5-.7 2.9-6.3 5.4-12.2 2.2 0 7.8-.5 8.3-.7.5-.5 5.1-12.4 5.1-13.9 0-1.2-9.5-24.9-13.2-33.9 1.7-2 3.4-4.4 5.1-7.1 50 5.4 89.1 47.8 89.1 99.3 0 39.6-23.2 74-56.9 90.1z"/><path class="st0" d="M135.9 146.4c4.6-5.4 2.2-15.4-6.3-17.1 2.2-5.1 5.4-15.4 5.4-15.4s-24.9 39.1-27.1 39.8c-2.2.7-4.4-7.8-4.4-7.8-4.6 17.8 7.8 20.3 9.3 14.6 6.7-1.7 18.4-9 23.1-14.1z"/></svg>