<svg version="1.1" id="katman_1" xmlns="http://www.w3.org/2000/svg" x="0" y="0" viewBox="0 0 1349.4 201.5" xml:space="preserve"><style>.st0{fill-rule:evenodd;clip-rule:evenodd;fill:#8e8e8e}</style><g id="header" transform="translate(0 -42)"><g id="img_ackee_logo_header" transform="translate(0 42)"><path id="Fill-1" class="st0" d="M4.4 200h632.4V2.4H4.4z"/><path id="Fill-2" d="M343.5 158.6l-29.8-36H302v36h-19.9V27.9H302v73.3h11.7l29.8-36h25.9l-38.7 46.7 38.7 46.7h-25.9zM107.7 81.5c-16.7 0-30.3 13.7-30.3 30.4 0 16.8 13.6 30.4 30.3 30.4s30.3-13.7 30.3-30.4c0-16.8-13.6-30.4-30.3-30.4zm0 80.8c-27.7 0-50.2-22.6-50.2-50.4 0-27.8 22.5-50.4 50.2-50.4 10.6 0 20.7 3.3 29.3 9.5l1 .7v-6.5h19.9v93.4H138v-6.5l-1 .7c-8.6 6.2-18.7 9.5-29.3 9.5zm117.4 0c-27.7 0-50.2-22.6-50.2-50.4 0-27.8 22.5-50.4 50.2-50.4 16.9 0 32.5 8.4 41.8 22.5l-18 9c-5.8-7.4-14.4-11.6-23.8-11.6-16.7 0-30.3 13.7-30.3 30.4 0 16.8 13.6 30.4 30.3 30.4 9.4 0 18-4.2 23.8-11.6l18 9c-9.3 14.3-24.9 22.7-41.8 22.7zm197.4-80.8c-12.4 0-23 7.7-27.1 19.6l-.3.8h54.8l-.3-.8c-4-11.9-14.7-19.6-27.1-19.6zm1.5 80.8c-27.7 0-50.2-22.6-50.2-50.4 0-28.3 21.4-50.4 48.7-50.4s48.7 22.1 48.7 50.4v10h-75.9l.3.8c4.5 11.7 15.9 19.6 28.3 19.6 8.3 0 16-3.2 21.7-9.2l17.9 9.8c-9.5 12.4-23.9 19.4-39.5 19.4zm111.1-80.8c-12.4 0-23 7.7-27.1 19.6l-.3.8h54.7l-.3-.8c-3.9-11.9-14.6-19.6-27-19.6zm1.5 80.8c-27.7 0-50.2-22.6-50.2-50.4 0-28.3 21.4-50.4 48.7-50.4 27.3 0 48.7 22.1 48.7 50.4v10h-75.9l.3.8c4.5 11.7 15.8 19.6 28.3 19.6 8.3 0 16-3.2 21.7-9.2l17.9 9.8c-9.5 12.4-23.9 19.4-39.5 19.4z" fill-rule="evenodd" clip-rule="evenodd" fill="#fff"/><path id="Fill-4" class="st0" d="M1115.3 81.4c-6.5 0-12.7 1.8-17.9 5.1v-28h-14.3v89.6h14.3v-34.6c0-10.4 7.4-17.7 17.9-17.7s17.9 7.3 17.9 17.7v34.6h14.3v-34.6c0-9.2-3.4-17.5-9.6-23.4-5.9-5.6-13.9-8.7-22.6-8.7zm-72.4 13.7c6.4 0 12.3 2.9 16.2 7.9l12.3-6.2c-6.4-9.7-17-15.5-28.5-15.5-18.9 0-34.3 15.5-34.3 34.6s15.4 34.6 34.3 34.6c11.5 0 22.2-5.8 28.5-15.5l-12.3-6.2c-3.9 5-9.8 7.9-16.2 7.9-11.4 0-20.7-9.4-20.7-20.9 0-11.4 9.3-20.7 20.7-20.7zm-34.8-11h-17.7l-20.3 24.7h-8V58.5h-13.6v89.6h13.6v-24.7h8l20.3 24.7h17.7l-26.4-32 26.4-32zm327.3 5.9c-5.9-5.6-13.9-8.7-22.6-8.7-6.6 0-12.7 1.8-17.9 5.1v-2.5h-14.3v64.2h14.3v-34.6c0-10.4 7.4-17.7 17.9-17.7s17.9 7.3 17.9 17.7v34.6h14.3v-34.6c0-9.3-3.4-17.6-9.6-23.5zm-142.2 46.9c-11.4 0-20.7-9.4-20.7-20.9s9.3-20.9 20.7-20.9c11.4 0 20.7 9.4 20.7 20.9 0 11.5-9.3 20.9-20.7 20.9zm20.7-48.4l-.7-.5c-5.9-4.3-12.8-6.6-20-6.6-18.9 0-34.3 15.5-34.3 34.6s15.4 34.6 34.3 34.6c7.2 0 14.2-2.3 20-6.6l.7-.5v4.5h13.6V83.9h-13.6v4.6zm33 59.5h13.7V83.9h-13.7V148zm6.8-88.9c-4.4 0-7.9 3.6-7.9 8s3.5 8 7.9 8 7.9-3.6 7.9-8-3.5-8-7.9-8zm-483.1 89h13.7V58.4h-13.7v89.7zm137.3-53c6.4 0 12.3 2.9 16.2 7.9l12.3-6.2c-6.4-9.7-17-15.5-28.5-15.5-18.9 0-34.3 15.5-34.3 34.6s15.4 34.6 34.3 34.6c11.5 0 22.2-5.8 28.5-15.5l-12.3-6.2c-3.9 5-9.8 7.9-16.2 7.9-11.4 0-20.7-9.4-20.7-20.9 0-11.4 9.2-20.7 20.7-20.7zm-184.1 41.2c-11.1 0-20.1-9.1-20.1-20.2 0-11.2 9-20.2 20.1-20.2s20.1 9.1 20.1 20.2-9 20.2-20.1 20.2zm0-54.9c-7.5 0-14.4 2.4-20.1 6.6V58.5h-14.3v89.6h14.3v-4c5.6 4.1 12.6 6.6 20.1 6.6 18.9 0 34.3-15.5 34.3-34.6.1-19.2-15.3-34.7-34.3-34.7zm106.4 54.9c-11.1 0-20.1-9.1-20.1-20.2 0-11.2 9-20.2 20.1-20.2s20.1 9.1 20.1 20.2c-.1 11.1-9.1 20.2-20.1 20.2zm0-54.9c-18.9 0-34.3 15.5-34.3 34.6s15.4 34.6 34.3 34.6 34.3-15.5 34.3-34.6-15.4-34.6-34.3-34.6z"/></g></g></svg>