<svg xmlns="http://www.w3.org/2000/svg" viewBox="0 0 196 29"><g id="Слой_2" data-name="Слой 2"><path d="M60.65 3.53a5 5 0 00-2.78.84A4.91 4.91 0 0056 6.62l-7.42 18.46h4.25l6.87-17a1.12 1.12 0 01.38-.46 1 1 0 01.57-.17 1.06 1.06 0 01.57.17 1.1 1.1 0 01.37.46l6.87 17h4.25L65.26 6.62a4.86 4.86 0 00-1.82-2.24 4.93 4.93 0 00-2.79-.85zm49.35 0a5 5 0 00-4.61 3.09l-7.47 18.46h4.25l6.87-17a1.1 1.1 0 01.37-.46 1.06 1.06 0 01.57-.17 1 1 0 01.57.17 1.12 1.12 0 01.38.46l6.87 17h4.25l-7.44-18.46a4.89 4.89 0 00-1.82-2.25 5.06 5.06 0 00-2.79-.84zm73.92 0a5 5 0 00-2.77.85 4.93 4.93 0 00-1.82 2.24l-7.48 18.46h4.25l6.87-17a1.05 1.05 0 01.38-.46 1 1 0 01.56-.17 1.06 1.06 0 01.58.17 1.18 1.18 0 01.37.46l6.87 17H196l-7.47-18.46a4.94 4.94 0 00-1.82-2.25 5 5 0 00-2.79-.84zM86.37 21a1 1 0 01-.37.46 1.06 1.06 0 01-.57.17 1 1 0 01-.57-.17 1.12 1.12 0 01-.38-.46L77.6 4h-4.25l7.47 18.45a5 5 0 001.82 2.25 5 5 0 002.79.84A5 5 0 0090 22.39l7.5-18.45h-4.25zM148.6 9.44v10.17a5.44 5.44 0 00.43 2.1 5.58 5.58 0 005.14 3.39h11.63v-3.73h-11.63a1.8 1.8 0 01-1.26-.52 1.73 1.73 0 01-.53-1.24v-3.42h13.42v-3.73h-13.42v-3a1.74 1.74 0 01.53-1.25 1.8 1.8 0 011.26-.52h11.63V3.94h-11.63a5.72 5.72 0 00-2.13.41 5.64 5.64 0 00-1.81 1.19 5.45 5.45 0 00-1.63 3.9zM34.09 7.46l-6.87 17a1 1 0 01-.37.46 1.06 1.06 0 01-.57.17 1 1 0 01-1-.63l-1.18-2.91-7.41-18.46A5 5 0 009.29.85a4.86 4.86 0 00-1.82 2.24L0 21.55h4.25l6.87-17a1 1 0 01.38-.46 1 1 0 01.57-.17 1.06 1.06 0 01.57.17.93.93 0 01.37.46l1.18 2.92 7.47 18.45a4.92 4.92 0 001.83 2.25 5 5 0 005.56 0 4.86 4.86 0 001.83-2.25l7.46-18.46zM143 3.94h-18.9v3.73h7.57v17.41h3.77V7.67H143z" fill="#8e8e8e" id="Слой_1-2" data-name="Слой 1"/></g></svg>