<svg xmlns="http://www.w3.org/2000/svg" viewBox="0 0 122 37.25"><defs><clipPath id="clip-path" transform="translate(0 -1)"><path fill="none" d="M0 0h122v40H0z"/></clipPath></defs><g id="Слой_2" data-name="Слой 2"><g clip-path="url(#clip-path)" id="Слой_1-2" data-name="Слой 1"><path d="M41.88 19.39a6.61 6.61 0 011.87-4.83 6.86 6.86 0 012.19-1.49 6.62 6.62 0 012.6-.51 5.75 5.75 0 016 4.27l-2.11.71A3.62 3.62 0 0051 15.39a3.72 3.72 0 00-2.47-.73c-2.18 0-4.36 1.58-4.36 4.78s2.13 4.71 4.39 4.71a3.94 3.94 0 003.93-2.9l2.06.67a6 6 0 01-6 4.36 6.58 6.58 0 01-2.63-.5A6.52 6.52 0 0142.28 22a6.61 6.61 0 01-.4-2.61zM58.63 26h-2.17V12.52h2.17v5.28a3.12 3.12 0 011.16-.87 3.27 3.27 0 011.42-.27c2.24 0 3.32 1.6 3.32 3.59V26h-2.1v-5.39a1.67 1.67 0 00-.06-.77 1.78 1.78 0 00-.39-.68 1.92 1.92 0 00-.65-.44 1.87 1.87 0 00-.78-.11 1.82 1.82 0 00-.76.16 1.74 1.74 0 00-.63.45 1.7 1.7 0 00-.39.66 1.84 1.84 0 00-.1.77zm10.74-5.22l2.33-.35c.52-.07.67-.34.67-.65 0-.76-.52-1.38-1.72-1.38a1.74 1.74 0 00-1.29.42 1.84 1.84 0 00-.41.55 1.75 1.75 0 00-.17.67l-2-.44a3.55 3.55 0 013.82-3c2.8 0 3.87 1.58 3.87 3.42v4.48a7.91 7.91 0 00.14 1.5h-2a5.62 5.62 0 01-.09-1.16 3.1 3.1 0 01-1.21 1.09 3.24 3.24 0 01-1.59.34 2.88 2.88 0 01-1.13-.14 2.8 2.8 0 01-1.68-1.48 2.67 2.67 0 01-.27-1.11c-.02-1.64 1.17-2.54 2.73-2.76zm3 1.46v-.41l-2.37.35a1.25 1.25 0 00-.86.37 1.31 1.31 0 00-.36.86 1.34 1.34 0 00.11.48 1.14 1.14 0 00.3.39 1.17 1.17 0 00.92.3 2.06 2.06 0 00.92-.12 2 2 0 001.26-1.3 2.2 2.2 0 00.08-.92zm5.8-9.9a1.28 1.28 0 01.55.1 1.45 1.45 0 01.47.3 1.44 1.44 0 01.31.46 1.46 1.46 0 01.11.55 1.43 1.43 0 01-.41 1 1.42 1.42 0 01-2 0 1.43 1.43 0 01-.41-1 1.4 1.4 0 011.38-1.41zM77.12 26v-9.08h2.14v9zm7.1 0h-2.16v-9h2.11v1.21A3.08 3.08 0 0185.31 17a3 3 0 011.55-.37c2.22 0 3.28 1.6 3.28 3.59V26H88v-5.39a1.75 1.75 0 00-1.87-2 1.92 1.92 0 00-.78.17 1.78 1.78 0 00-.64.47 1.88 1.88 0 00-.4.7 1.92 1.92 0 00-.07.79zm8.56 0V12.52H95V26zm6.03-13.66a1.42 1.42 0 011.42 1.41 1.39 1.39 0 01-.87 1.25 1.35 1.35 0 01-.82.08 1.38 1.38 0 01-1.1-1.1 1.39 1.39 0 01.56-1.4 1.36 1.36 0 01.81-.24zM97.75 26v-9.08h2.14v9zm7.11 0h-2.17v-9h2.11v1.21a3 3 0 012.69-1.47c2.22 0 3.29 1.6 3.29 3.59V26h-2.17v-5.39a1.69 1.69 0 00-.45-1.45 1.71 1.71 0 00-1.42-.55 1.92 1.92 0 00-.78.17 1.87 1.87 0 00-.64.47 1.91 1.91 0 00-.46 1.49zm13.32-5.26L122 26h-2.65l-2.68-3.72-1.11 1.17V26h-2.15V12.52h2.15v8.06l3.44-3.66h2.88zM16.23 8.89l9.36 5.35V25l-9.33 5.38L6.89 25V14.28zm0-7.89l-3.44 2-9.35 5.37L0 10.35V29l3.44 2 9.36 5.35 3.44 2 3.43-2L29 30.88l3.44-2v-18.6L29 8.31 19.65 3l-3.44-2z" transform="translate(0 -1)" fill="#8e8e8e"/></g></g></svg>