<svg xmlns="http://www.w3.org/2000/svg" viewBox="0 0 82 21.16"><defs><style>.cls-1{fill:#8e8e8e}</style></defs><g id="Слой_2" data-name="Слой 2"><g id="Слой_1-2" data-name="Слой 1"><path class="cls-1" d="M0 17.11V3.43A3.45 3.45 0 013.42 0H18a3.44 3.44 0 013.3 3.08v1.48c-.9.59-1.44.92-2 1.26-.75.45-1.52.92-3.23 2.08a7.71 7.71 0 00-1.8 1.85c-.62 1.07-1.27 2.09-2 3.07a4.91 4.91 0 01-4.12 1.91H5.06a5.29 5.29 0 00-2.73.88c-.75.53-1.53 1.02-2.33 1.5z"/><path class="cls-1" d="M21.3 6v12a3.44 3.44 0 01-3.44 3.08H3.46A3.45 3.45 0 01.1 18.55l.5-.21c.66-.26 1.33-.53 2-.81a8.14 8.14 0 01.87-.31 5.7 5.7 0 012-.17c1.17.12 2.36.28 3.58.46a5.44 5.44 0 004.44-1.75 10.54 10.54 0 001.42-2.61c.13-.32.35-.83.61-1.38.09-.19.17-.37.26-.54A7.47 7.47 0 0117 9.36 54 54 0 0121.3 6zm49.02 14.43a10.77 10.77 0 004.09.73 9 9 0 004.06-.85A6.2 6.2 0 0081.08 18a5.87 5.87 0 00.92-3.2 4.82 4.82 0 00-.92-3 6.16 6.16 0 00-2.19-1.8 26.37 26.37 0 00-3.27-1.3 15.74 15.74 0 01-3-1.2 1.75 1.75 0 01-1-1.56 1.74 1.74 0 01.56-1.39A2.18 2.18 0 0173.76 4a2.61 2.61 0 011.75.59 2.08 2.08 0 01.74 1.56h5.48a5.8 5.8 0 00-2.25-4.53A8.73 8.73 0 0073.93 0a8.62 8.62 0 00-5.48 1.65 5.35 5.35 0 00-2.11 4.5 5.06 5.06 0 00.92 3.15 6.3 6.3 0 002.2 1.83 23.29 23.29 0 003.29 1.23 18.93 18.93 0 012.13.74 3.92 3.92 0 011.28.82 1.68 1.68 0 01.53 1.27 1.77 1.77 0 01-.69 1.44 2.89 2.89 0 01-1.78.5 2.65 2.65 0 01-1.78-.59 2.67 2.67 0 01-.8-1.77h-5.4a6 6 0 001.13 3.48 6.84 6.84 0 002.95 2.18zM29.3 10.6a11 11 0 011.33-5.45 9.47 9.47 0 013.71-3.74A10.88 10.88 0 0139.77.06 10.43 10.43 0 0146.11 2a9.32 9.32 0 013.53 5.3h-5.57a4.49 4.49 0 00-1.78-2 4.92 4.92 0 00-2.58-.68 4.86 4.86 0 00-3.8 1.62 6.23 6.23 0 00-1.45 4.33 6.22 6.22 0 001.45 4.32 4.86 4.86 0 003.8 1.62 4.92 4.92 0 002.58-.68 4.44 4.44 0 001.78-2h5.57a9.32 9.32 0 01-3.53 5.3 10.54 10.54 0 01-6.34 1.91 11.08 11.08 0 01-5.43-1.32A9.66 9.66 0 0130.63 16a10.93 10.93 0 01-1.33-5.4zm28.52 6.47h6.64V21H52.75V.29h5.07z"/></g></g></svg>