<svg xmlns="http://www.w3.org/2000/svg" viewBox="0 0 227.57 36.37"><defs><style>.cls-1{fill:#8e8e8e}</style></defs><g id="Слой_2" data-name="Слой 2"><g id="Слой_1-2" data-name="Слой 1"><path class="cls-1" d="M113.18 11.56V4.88h5.92a7.65 7.65 0 011.61.16 3.8 3.8 0 011.4.48 2.66 2.66 0 011 1 3.35 3.35 0 01.36 1.64 3 3 0 01-1.08 2.6 4.53 4.53 0 01-2.78.8zM106.86 0v28.57h13.93a14.58 14.58 0 003.74-.48 9.82 9.82 0 003.26-1.48 7.22 7.22 0 002.29-2.56 7.87 7.87 0 00.85-3.76 7.65 7.65 0 00-1.33-4.56 6.76 6.76 0 00-3.94-2.73 7 7 0 002.89-2.36 6.07 6.07 0 001-3.6 7.53 7.53 0 00-.68-3.36A5.2 5.2 0 00127 1.56a8 8 0 00-2.9-1.2 18.08 18.08 0 00-3.72-.36zm6.32 23.69v-7.85h6.88a5.26 5.26 0 013.3 1 3.62 3.62 0 011.25 3.12 3.74 3.74 0 01-.4 1.84 3.06 3.06 0 01-1 1.16 5.28 5.28 0 01-1.49.6 10 10 0 01-1.77.16zm21.01-15.81v20.69h5.72v-9.32a11.2 11.2 0 01.28-2.6 5.7 5.7 0 01.93-2.09 4.66 4.66 0 011.77-1.44 6.2 6.2 0 012.65-.52 8.23 8.23 0 011.09.08 9.49 9.49 0 011 .12V7.52a4.62 4.62 0 00-1.25-.2 6.92 6.92 0 00-2.09.32 7.52 7.52 0 00-1.89.92 6.57 6.57 0 00-1.58 1.4 7 7 0 00-1.08 1.76h-.08V7.88zm21.12-3.2V0h-5.71v4.68zm-5.71 3.2v20.69h5.71V7.88zm24.58 10.29a12.64 12.64 0 01-.24 2.48 6.81 6.81 0 01-.81 2.16 4.26 4.26 0 01-1.53 1.48 4.44 4.44 0 01-2.33.56 4.49 4.49 0 01-2.29-.56 5.68 5.68 0 01-1.57-1.52 6.93 6.93 0 01-.89-2.16 10.35 10.35 0 01-.28-2.4 12.12 12.12 0 01.24-2.45 7.18 7.18 0 01.85-2.12 4.43 4.43 0 013.94-2 4.44 4.44 0 012.33.56 4.4 4.4 0 011.49 1.48 5.45 5.45 0 01.85 2.09 12 12 0 01.24 2.4zm.08 7.76v2.64h5.44V0H174v10.4h-.08a6 6 0 00-2.66-2.28 8 8 0 00-3.5-.8 8.46 8.46 0 00-4 .92 8.69 8.69 0 00-2.9 2.36 11 11 0 00-1.77 3.4 14 14 0 00-.57 4 15.14 15.14 0 00.57 4.16 11.9 11.9 0 001.73 3.56 8.74 8.74 0 002.94 2.44 9.06 9.06 0 004.1.88 8.85 8.85 0 003.66-.72 6 6 0 002.66-2.44zm19.05-2.24a4.1 4.1 0 01-2.21-.56 4.86 4.86 0 01-1.45-1.44 6.91 6.91 0 01-.77-2 13.13 13.13 0 01-.2-2.24 9.3 9.3 0 01.25-2.21 5.76 5.76 0 01.84-1.88 4.55 4.55 0 011.45-1.32 4.33 4.33 0 012.09-.48 4.82 4.82 0 012.34.52 4.35 4.35 0 011.49 1.4 6.17 6.17 0 01.8 2 11.52 11.52 0 01.24 2.41 7.15 7.15 0 01-.32 2.16 5.59 5.59 0 01-.88 1.8 4.64 4.64 0 01-1.53 1.28 4.59 4.59 0 01-2.14.56zm10.31 3.56V7.88h-5.44v2.76h-.08a6.22 6.22 0 00-2.61-2.56 8.08 8.08 0 00-3.59-.76 8.59 8.59 0 00-3.86.84 8.21 8.21 0 00-2.78 2.28 10.17 10.17 0 00-1.73 3.28 13.28 13.28 0 00-.56 3.85 16.62 16.62 0 00.48 4 10 10 0 001.61 3.32 8 8 0 002.78 2.24 9.39 9.39 0 004 .8 8.63 8.63 0 003.59-.76 5.71 5.71 0 002.65-2.44h.08v2.72a5.54 5.54 0 01-1.08 3.64 4.11 4.11 0 01-3.5 1.44 5.47 5.47 0 01-2.7-.64 3.17 3.17 0 01-1.57-2.2h-5.68a5.9 5.9 0 001 3 7.29 7.29 0 002.17 2.08 10 10 0 002.9 1.16 12.82 12.82 0 003.14.4 14.09 14.09 0 005.71-1 8.72 8.72 0 003.27-2.36 6.73 6.73 0 001.45-3 13.11 13.11 0 00.35-2.72zM221.82 16h-9.3a7.15 7.15 0 01.25-1.37 4.77 4.77 0 01.76-1.44 4.57 4.57 0 011.47-1.11 4.94 4.94 0 012.29-.48 4 4 0 013.1 1.12 6.44 6.44 0 011.43 3.28zm-9.3 3.6h15a14.67 14.67 0 00-.4-4.61 11.18 11.18 0 00-1.86-3.92 8.9 8.9 0 00-3.22-2.72 9.78 9.78 0 00-4.62-1 11 11 0 00-4.35.84 10.22 10.22 0 00-3.34 2.32 10 10 0 00-2.18 3.44 12.28 12.28 0 00-.76 4.33 12.93 12.93 0 00.72 4.4 10.32 10.32 0 002.14 3.44 9.31 9.31 0 003.35 2.21 12.14 12.14 0 004.43.76 10.89 10.89 0 006-1.6 9.51 9.51 0 003.71-5.32h-5a3.69 3.69 0 01-1.52 1.83 5.24 5.24 0 01-3 .84 5.18 5.18 0 01-3.71-1.24 5.77 5.77 0 01-1.39-3.99zM74.29 18.17a12.64 12.64 0 01-.24 2.48 7.06 7.06 0 01-.81 2.16 4.34 4.34 0 01-1.53 1.48 4.47 4.47 0 01-2.33.56 4.56 4.56 0 01-2.3-.56 5.82 5.82 0 01-1.57-1.52 6.91 6.91 0 01-.88-2.16 10.35 10.35 0 01-.28-2.4 12.12 12.12 0 01.24-2.45 7.17 7.17 0 01.84-2.12 4.44 4.44 0 013.95-2 4.17 4.17 0 013.82 2 5.78 5.78 0 01.85 2.09 12 12 0 01.24 2.44zm.08 7.76v2.64h5.43V0h-5.71v10.4H74a6 6 0 00-2.66-2.28 8 8 0 00-3.5-.8 8.53 8.53 0 00-4 .92 8.79 8.79 0 00-2.9 2.36 11.23 11.23 0 00-1.75 3.4 14.39 14.39 0 00-.56 4 15.52 15.52 0 00.56 4.16 12.15 12.15 0 001.73 3.56 8.74 8.74 0 002.94 2.44 9.08 9.08 0 004.11.88 8.85 8.85 0 003.66-.72 6 6 0 002.66-2.44zM97.73 16h-9.3a7.07 7.07 0 01.24-1.37 5 5 0 01.76-1.44 4.57 4.57 0 011.45-1.12 5 5 0 012.3-.48 4 4 0 013.1 1.12A6.53 6.53 0 0197.73 16zm-9.3 3.6h15A14.67 14.67 0 00103 15a11.34 11.34 0 00-1.85-3.92A9 9 0 0098 8.36a9.85 9.85 0 00-4.63-1 11 11 0 00-4.37.8 10.22 10.22 0 00-3.34 2.32 9.93 9.93 0 00-2.17 3.44 12.06 12.06 0 00-.77 4.33 12.7 12.7 0 00.73 4.4 10.3 10.3 0 002.13 3.44 9.4 9.4 0 003.34 2.24 12.18 12.18 0 004.43.76 11 11 0 006-1.6 9.54 9.54 0 003.7-5.32h-5A3.69 3.69 0 0196.52 24a5.22 5.22 0 01-3 .84 5.15 5.15 0 01-3.7-1.24 5.72 5.72 0 01-1.39-3.99zM44.56 29h-8.65a2.87 2.87 0 01-2.8-2.3 12.25 12.25 0 00-.57-1.9 1.74 1.74 0 01.69-2.22l3.47-2a14.91 14.91 0 011.18 2.56A1.79 1.79 0 0040 24.26l3.8-1a22.78 22.78 0 01.76 5.74z"/><path d="M38 13.19a22.06 22.06 0 00-10-5.82l-1.43 5.4A16.74 16.74 0 0134 17.16z" fill-rule="evenodd" fill="#8e8e8e"/><path class="cls-1" d="M7.63 20.51A17.16 17.16 0 005.38 29H2.83a3 3 0 01-2.18-1A3 3 0 010 25.71a23.51 23.51 0 011.85-6.18 1.79 1.79 0 012.54-.88zM44.56 29a22.78 22.78 0 00-.75-5.75l3.53-.94a1.81 1.81 0 012.32 1.45c.13.68.24 1.36.32 2.06a3 3 0 01-.74 2.26 2.91 2.91 0 01-2.11.92zM34 17.16l6.6-6.61a1.82 1.82 0 012.7.13 26.46 26.46 0 012.12 2.78 1.87 1.87 0 01-.63 2.54l-8.09 4.65a16.81 16.81 0 00-2.7-3.49zm-.59-7.53a22.11 22.11 0 00-11.21-3 22.39 22.39 0 00-4.12.37 1.83 1.83 0 01-2-1.21l-.54-2a1.8 1.8 0 011.34-2.23 27.79 27.79 0 0117.6 2.28 1.82 1.82 0 01.83 2.5z"/><path class="cls-1" d="M22.13 12.23a18.37 18.37 0 014.38.54l-1 3.76a1.83 1.83 0 01-2 1.32 11.18 11.18 0 00-12.29 8.88 3.2 3.2 0 01-1 1.61 2.87 2.87 0 01-1.8.66H5.38a16.74 16.74 0 0116.75-16.77z"/></g></g></svg>