<svg xmlns="http://www.w3.org/2000/svg" viewBox="0 0 2500 448"><g id="Слой_2" data-name="Слой 2"><path d="M610.56 285.86V0h207.18v45.76H659.6v73.48h127.49v44.12H659.6v76.35h158.14v46.15zm286.18 0L840.35 79.64h47l42.91 166.19h28.62l42.9-166.19h47l-56 206.22zm174.97-103.31c0-61.25 47-108.23 108.29-108.23 62.11 0 107.06 47.38 107.06 107.4V194h-169.58c4.08 32.25 30.64 57.16 62.52 57.16 42.91 0 57.2-30.63 57.2-30.63h47s-20.43 70.66-104.2 70.66c-61.3-.01-108.29-47.39-108.29-108.64zm167.54-20.42c-4.08-25.33-26.56-47.78-59.25-47.78s-55.17 22.45-60.89 47.78zm87.96 123.73V79.64h45v31.46h1.23s13.89-34.72 58-34.72H1456v44.09h-27.8c-33.5 0-56 22.48-56 55.13v110.26zm149.6-65.34h47S1534 252 1575.7 252c31.87 0 42.9-11 42.9-25.34 0-38-131.58-12.24-131.58-91.87 0-31.85 28.6-60.45 82.54-60.45 82.15 0 93.18 64.54 93.18 64.54h-46.18s-8.17-25.74-47-25.74c-25.32 0-36.77 11.44-36.77 21.65 0 37.57 132 12.24 132 91.87 0 33.48-30.66 64.54-89.09 64.54-84.6-.02-98.89-70.68-98.89-70.68zm214.66-37.97c0-61.25 47-108.23 107.06-108.23 85.82 0 102.17 76.78 102.17 76.78h-45.77s-12.26-36.75-56.4-36.75c-33.5 0-61.28 27.37-61.28 68.2 0 41.23 28.59 68.6 61.28 68.6 45 0 57.22-38.81 57.22-38.81h46.17s-15.53 78.84-103.39 78.84c-60.07 0-107.06-47.38-107.06-108.63zm242.38 44.92c0-35.54 29-65.34 82.55-65.34h64.6v-6.94c0-25.74-16.35-42.07-45-42.07-38.83 0-48.23 29.83-48.23 29.83H1942s12.27-68.63 94-68.63c57.21 0 89.91 31.85 89.91 80.87v130.67h-45v-30.62h-1.23s-20 35.94-72.33 35.94c-46.94 0-73.5-26.96-73.5-63.71zM2081 194.79h-62.12c-25.74 0-39.23 13.5-39.23 29 0 15.93 12.26 28.2 40.05 28.2 37.56.01 61.3-24.52 61.3-57.2zm94.06 91.07V0h45v245.83h47v40zm109.59-103.31c0-61.25 47-108.23 108.29-108.23 62.11 0 107.06 47.38 107.06 107.4V194h-169.58c4.07 32.25 30.64 57.16 62.52 57.16 42.91 0 57.2-30.63 57.2-30.63h47s-20.43 70.66-104.2 70.66c-61.31-.01-108.29-47.39-108.29-108.64zm167.53-20.42c-4.07-25.33-26.55-47.78-59.24-47.78s-55.17 22.45-60.89 47.78zM162.24 0L0 162.13h286.07V448l162.24-162.13V0z" fill="#8e8e8e" id="Слой_1-2" data-name="Слой 1"/></g></svg>