<svg version="1.1" id="Слой_1" xmlns="http://www.w3.org/2000/svg" xmlns:xlink="http://www.w3.org/1999/xlink" x="0" y="0" viewBox="0 0 124 40" xml:space="preserve"><style>.st0{fill:#8e8e8e}.st2{fill:#d3d3d3}</style><path class="st0" d="M50 23.6c-2.4 0-4.4-.7-4.8-2.7h13.6c0-5.8-3.8-7.4-8.6-7.4-5.1 0-8.7 1.9-8.7 6.6s3.7 6.6 8.5 6.6c4.7 0 7.8-1.5 8.6-4.8H55c-1 1.2-2.5 1.7-5 1.7zm.2-7.3c2.3 0 4.1.5 4.7 2.3h-9.6c.6-1.8 2.4-2.3 4.9-2.3zm22.2-2.6l-4.9 10.5-5.4-10.5H58l6.5 12.7h1.9l-2.5 5.4h4l8.5-18.1h-4zm28.8 0l-4.1 9.8-3.8-9.8h-4.4L85 23.5l-4.1-9.8h-4.1l5.7 12.7h4.9l3.7-8.8 3.7 8.8h4.9l5.7-12.7h-4.2zm13-.2c-2.6 0-5.2.5-7.7 1.3l1.3 2.7c2-.6 4.1-.9 6.2-.9 1.7 0 4.8.2 4.8 2.6-1.9-.6-3.8-.9-5.8-.9-4 0-7.6 1-7.6 4.3 0 2.9 2.2 4 5.7 4 2.7 0 5.3-.6 7.7-1.8v1.6h3.7V20c0-4.8-3-6.5-8.3-6.5zm4.6 9c-1.9.8-4.6 1.4-6.6 1.4-1.9 0-3.1-.1-3.1-1.4 0-1.3 1.6-1.8 4.4-1.8 1.8 0 3.6.2 5.3.8v1z"/><defs><path id="SVGID_1_" d="M1.5 3h32v34h-32z"/></defs><clipPath id="SVGID_2_"><use xlink:href="#SVGID_1_" overflow="visible"/></clipPath><g clip-path="url(#SVGID_2_)"><path class="st2" d="M17.2 11.7v-.1l4.4-2.5h.2l.1.1v5l2.6 1.5v-9c0-.2-.1-.4-.2-.6-.1-.2-.3-.4-.5-.5-.2-.1-.4-.2-.6-.2-.2 0-.4.1-.6.2L16 9.3c-.5.3-.8.6-1.1 1.1-.3.5-.4 1-.4 1.5v9.4l2.6-1.5.1-8.1z"/><path class="st0" d="M29.1 13.3c.1 0 .1 0 0 0l.1.1v.1l-.1.1-4.1 2.3 2.6 1.5 5-2.9c.2-.1.4-.3.5-.5.1-.2.2-.4.2-.6 0-.2-.1-.4-.2-.6-.1-.2-.3-.3-.5-.5l-6.5-3.7c-.4-.2-.8-.4-1.3-.4v2.6l4.3 2.5zm-18.8 9.2v1.4l4.1-2.3V12c0-.6.2-1.2.4-1.7.3-.5.7-.9 1.2-1.2l6.6-3.7c.2-.1.4-.2.5-.2l-3.6-2s-.1 0-.1-.1c-.2-.1-.3-.1-.5-.1s-.4.1-.5.2l-6.6 3.7c-.5.3-.8.6-1.1 1.1-.3.5-.4 1-.4 1.5v13z"/><path class="st0" d="M21.7 14.4L17.6 12v4.6l8.6 4.8c.5.3.9.7 1.2 1.2s.4 1.1.4 1.7v7.3c0 .2 0 .4-.1.6l3.6-2c.2-.1.3-.3.5-.5.1-.2.2-.4.2-.6v-7.3c0-.5-.1-1-.4-1.5-.3-.5-.6-.8-1.1-1.1l-2.8-1.6-6-3.2z"/><path class="st2" d="M24.8 24c0 .1 0 .1 0 0l.1.1v5.1l-.1.1h-.2l-4.3-2.4-2.6 1.5 7.9 4.5c.2.1.4.2.6.2.2 0 .4-.1.6-.2.2-.1.3-.3.4-.5.1-.2.2-.4.2-.6v-7.3c0-.5-.1-1-.4-1.5-.3-.5-.6-.8-1.1-1.1L17.5 17v2.9l7.3 4.1zM4.8 9.7c-.2-.1-.4-.1-.6-.1-.2 0-.4.1-.6.2-.2.1-.4.2-.5.4-.1.2-.1.4-.1.6v7.4c0 .5.1 1 .3 1.4l2.3-1.3v-5l.1-.1h.2l4.1 2.3v-2.9L4.8 9.7z"/><path class="st0" d="M10.3 7.9l-1.2-.6c-.2-.1-.4-.2-.6-.2-.2 0-.4.1-.6.2l-3.5 2c.2 0 .4.1.5.2l5 2.8V9.5c0-.6.2-1.1.4-1.6z"/><path class="st2" d="M32.8 14.8l-4.9 2.8 2.5 1.4c.5.3.8.6 1.1 1.1l1-.6c.2-.1.4-.3.5-.5.1-.2.2-.4.2-.6v-4c0 .1-.2.3-.4.4zm-18.2 21c0 .2.1.4.2.6.1.2.3.3.4.5.2.1.4.2.6.2.2 0 .4-.1.6-.2l3.8-2.1 2.8-1.6c.4-.2.8-.6 1-.9L21.7 31l-4.3 2.4h-.2s-.1 0-.1-.1v-4.7L14.6 30v5.8z"/><path class="st0" d="M2.1 22.7l6.5 3.7c.4.2.9.4 1.4.4.5 0 1-.1 1.4-.4l8.5-4.8-2.6-1.5-7.2 4.1-4.4-2.5-.1-.1v-.2l.1-.1 4.3-2.4V16l-4.1 2.3-3.7 2.1c-.2.3-.4.4-.5.6-.1.2-.2.4-.2.6 0 .2.1.4.2.6.1.3.2.4.4.5z"/><path class="st2" d="M17.3 28.1l7.1-4-4.1-2.3-8.6 4.9c-.5.3-1 .4-1.6.4-.6 0-1.1-.1-1.6-.4L2 23c-.2-.1-.3-.2-.5-.4v4c0 .2.1.4.2.6.1.2.3.3.5.5l6.5 3.7c.4.2.9.4 1.4.4.5 0 1-.1 1.4-.4l5.8-3.3z"/><path class="st0" d="M14.3 30.2l-2.6 1.5c-.4.2-.9.4-1.4.4v1.2c0 .2.1.4.2.6.1.2.3.3.5.5l3.6 2c-.1-.2-.1-.4-.1-.6l-.2-5.6z"/></g></svg>