<svg xmlns="http://www.w3.org/2000/svg" viewBox="0 0 1533 280"><g id="Слой_2" data-name="Слой 2"><path d="M0 280L269.06 56a31.9 31.9 0 10-45-45zM129.8 41.36l-113.29 85L101.47 13a20.23 20.23 0 1128.33 28.36zM267 178.53l-113.29 85 85-113.28A20.23 20.23 0 01275 163.77a20.25 20.25 0 01-8 14.76zM430 140c0-37 31.43-69 75-69 21.6 0 40.89 7.88 54.61 20.27a2 2 0 002.85-.09l26.23-27.49a2 2 0 00-.08-2.82C566.94 40.91 537.2 29 505 29c-64.46 0-117 48.59-117 111s52.54 111 117 111c28.66 0 57-9.61 78-26.09l7.27-5.71a2 2 0 00.76-1.57V124a2 2 0 00-2-2h-53.17a2 2 0 00-1.45.63l-34 36a2 2 0 001.45 3.37H547a2 2 0 012 2v32.17a2 2 0 01-1 1.72A88.8 88.8 0 01505 209c-43.57 0-75-32-75-69zm714-106h-47.07a2 2 0 00-1.6 3.2L1172 140.1a2 2 0 010 2.41l-76.63 100.28A2 2 0 001097 246h51a2 2 0 001.61-.8l48.82-65.49a2 2 0 013.2 0l48.82 65.49a2 2 0 001.6.8h51a2 2 0 001.59-3.21l-76.74-100.28a2 2 0 010-2.41l76.7-102.9a2 2 0 00-1.6-3.2h-47.06a2 2 0 00-1.59.79l-52.79 69.08a2 2 0 01-3.18 0l-52.79-69.08A2 2 0 001144 34zm-371.3 0h-45.4a2 2 0 00-1.83 1.19l-92.22 208a2 2 0 001.83 2.81h43.61a2 2 0 001.83-1.21L698.15 204h103.7l17.63 40.79a2 2 0 001.84 1.21h43.61a2 2 0 001.82-2.81l-92.22-208A2 2 0 00772.7 34zm12.73 132h-70.86l33.59-77.75a2 2 0 013.68 0zm131.5-132a2 2 0 00-2 2v208a2 2 0 002 2h117a2 2 0 001.57-.76l26.84-34a2 2 0 00-1.57-3.24h-97.84V36a2 2 0 00-2-2zM1401 74a2 2 0 012-2h124a2 2 0 002-2V36a2 2 0 00-2-2h-172.06a1.94 1.94 0 00-1.94 1.94V244a2 2 0 002 2h176a2 2 0 002-2v-34a2 2 0 00-2-2h-128a2 2 0 01-2-2v-46a2 2 0 012-2h116a2 2 0 002-2v-34a2 2 0 00-2-2h-116a2 2 0 01-2-2z" fill="#8e8e8e" fill-rule="evenodd" id="Слой_1-2" data-name="Слой 1"/></g></svg>