<svg xmlns="http://www.w3.org/2000/svg" viewBox="0 0 800 300"><g id="Слой_2" data-name="Слой 2"><path d="M400.89 139.75V54.5h23.7v85.25zm11.91-96.24a12.89 12.89 0 01-9.07-3.5 11.31 11.31 0 01-3.73-8.49 11.07 11.07 0 013.73-8.38 12.77 12.77 0 019.07-3.56 12.58 12.58 0 019 3.56 11 11 0 013.79 8.38 11.27 11.27 0 01-3.78 8.48 12.7 12.7 0 01-9.01 3.51zm54.49 46.95v49.29h-23.71V54.5h22.59v15h1a23.87 23.87 0 019.52-11.77q6.68-4.38 16.19-4.38a30.08 30.08 0 0115.52 3.88 26.42 26.42 0 0110.3 11.1 37 37 0 013.67 17.1v54.28h-23.7V89.68q0-7.82-4-12.21T483.48 73a17 17 0 00-8.48 2.09 14.37 14.37 0 00-5.68 6 20.72 20.72 0 00-2.03 9.37zm97.47 0v49.29h-23.71V54.5h22.6v15h1a23.8 23.8 0 019.51-11.77q6.68-4.38 16.19-4.38a30.14 30.14 0 0115.53 3.88 26.46 26.46 0 0110.29 11.1 37 37 0 013.67 17.1v54.28h-23.7V89.68q.06-7.82-4-12.21T581 73a17 17 0 00-8.46 2.06 14.28 14.28 0 00-5.67 6 20.58 20.58 0 00-2.11 9.4zm-163.43 76.29h29.72l31.38 76.37h1.34l31.38-76.37h29.71v113.67h-23.37v-74h-.94l-29.5 73.43h-15.91l-29.49-73.71h-.95v74.27h-23.37zm167.47 0v113.67h-24.09V166.75zm115.14 0v113.67h-20.81l-49.57-71.55h-.84v71.55h-24.09V166.75h21.14L659 238.23h1v-71.48zm60.31 113.67h-40.4V166.75h40.73q17.19 0 29.6 6.82a46.17 46.17 0 0119.09 19.48q6.73 12.72 6.73 30.42T793.27 254a46.17 46.17 0 01-19.2 19.59q-12.46 6.82-29.82 6.83zm-16.31-20.59h15.3q10.69 0 18-3.78a24.27 24.27 0 0011-11.82q3.74-8.05 3.73-20.76t-3.73-20.59a24.07 24.07 0 00-11-11.77q-7.29-3.77-18-3.77h-15.3zM350 74.16a24.93 24.93 0 00-49.85.74c0 .6 0 1.19.07 1.78a6.59 6.59 0 01-2.79 5.79l-70.93 50.69a7.17 7.17 0 01-10-1.61L165.79 62a13.81 13.81 0 01-2-12.36c1.33-4.2 2.82-10 2.63-14a37.4 37.4 0 10-67.85 23.52 10.53 10.53 0 011.26 9.93L30.1 246.64a5.46 5.46 0 01-5.1 3.42 25 25 0 1024.94 25 5 5 0 012.06-4l158-114.11a12.57 12.57 0 0117.38 2.6L308.9 267.3a7.64 7.64 0 011.45 5.77 14.29 14.29 0 00-.23 2.64 15 15 0 1023.28-13.11 4.88 4.88 0 01-2.17-4.14l2.7-157.67a4 4 0 012.26-3.54A25 25 0 00350 74.16zM41.85 247.36l79.7-167.76a8.24 8.24 0 017.45-4.7 43.2 43.2 0 0010.93-2 8.12 8.12 0 018.16 2.33l54.28 59.14a10.67 10.67 0 012.82 7.24v.12a10.71 10.71 0 01-4.94 9L45 250.11a2.16 2.16 0 01-3.11-2.75zM320 257.07l-85-102.34a12.5 12.5 0 013.43-18.86L308.5 96a3.29 3.29 0 013.37.06 26.2 26.2 0 002.55 1.4 3.23 3.23 0 011.83 2.79l6.24 155.84a1.4 1.4 0 01-2.48.95z" fill="#8e8e8e" id="Слой_1-2" data-name="Слой 1"/></g></svg>