<svg xmlns="http://www.w3.org/2000/svg" viewBox="0 0 142.02 140.07"><defs><style>.cls-1{fill:#8e8e8e}</style></defs><g id="Слой_2" data-name="Слой 2"><g id="Слой_1-2" data-name="Слой 1"><g id="_2022_V-Brand_2022_FullColour" data-name="2022 V-Brand 2022 FullColour"><path id="Path_1" data-name="Path 1" class="cls-1" d="M122.27 50.16A51.27 51.27 0 1050.63 98.3a44.41 44.41 0 005.66-12.17c1-2.62 2.14-5.19 3.3-7.68a16.07 16.07 0 0016-4.07l.17-.17a15.92 15.92 0 00-15.22 2.26c1.42-3 3-5.83 4.55-8.62a16 16 0 0016.16-3.3l.17-.17a16 16 0 00-15.09 1.41c1.59-2.61 3.22-5.18 4.93-7.58a16.07 16.07 0 0015.95-4.72l.13-.17a15.74 15.74 0 00-14 2.14c.13-.17.3-.38.43-.56 1-1.32 2.1-2.65 3.17-3.94a18.87 18.87 0 0012.74-14.75v-.26A18.79 18.79 0 0076 50.36c-1 1.24-2 2.49-3 3.77a15.73 15.73 0 00-1-13.42l-.13.17a16.05 16.05 0 00-1.44 16.72c-1.63 2.32-3.21 4.68-4.71 7.16a15.85 15.85 0 00-4.16-14l-.09.22a16 16 0 002.75 16.42c-1.5 2.61-2.92 5.31-4.29 8.1a16.55 16.55 0 00-4.72-14.4l-.08.21a16.61 16.61 0 003.6 16.76c-.91 1.93-1.73 3.82-2.57 5.85a2.23 2.23 0 00-.78-.47 17 17 0 01-4.15-1.85 17.92 17.92 0 00-3.4-1.54c-4.63-1.5-3.95-3.73-6.34-8.23A34.54 34.54 0 0039 69.18a5.72 5.72 0 01-1.93-2.1 10.15 10.15 0 01-1-3.4 3.14 3.14 0 00-2.19-2.92c-6.81-2.35-3.77-11.19-3.51-12.34a15 15 0 00-1-4.38 3.65 3.65 0 01-.13-.55 6 6 0 011.42-5.19c.81-.82 3.64-2.14 4.24-2.92s1-1.63 1.63-2.35a25.12 25.12 0 016.52-4.68c2-1.07 2.32-3.81 3.08-4.67 1.29-1.46 3.26-1.46 4.72-2.74.73-.65 1.81-1 2.49-1.68a22.48 22.48 0 0112.35-5.7 28 28 0 019.51.86c.45.08.89.18 1.33.3 7.07.26 15.56 1.72 18.65 4.72a12.62 12.62 0 013.3 5.32 19.76 19.76 0 002.06 4.45l1.88 3.09a8.68 8.68 0 011.07 6.52 6 6 0 00-.08 3.34 23.54 23.54 0 003.47 4.12 11.29 11.29 0 001.71 1.37 44.22 44.22 0 014.21 2.83 2.3 2.3 0 01-1 2.14c-1.2 1.07-3.52 2.75-3.52 2.75a6.05 6.05 0 00.43 1.37c.34.6 1.12 1.54.86 2.35s-1.93 1.51-1.46 2.4 1.67 1.2 1.33 2.06-2 2.27-1.84 2.88 1.54 6.34-1.63 7.33a72.37 72.37 0 01-11.92 1.33 3.81 3.81 0 00-3.13 2 10.41 10.41 0 00-1.12 3.61A84.69 84.69 0 0185.22 94s-.13.26-.3.64a8 8 0 00-.78 2.7 5.38 5.38 0 001.2 1.84 2.16 2.16 0 002.27.65 51.7 51.7 0 0034.66-49.67z"/><g id="Group_1" data-name="Group 1"><path id="Path_2" data-name="Path 2" class="cls-1" d="M0 117.93h5.19l5.74 9.24 5.73-9.24h5.19v21.85h-4.77v-14.26l-6.15 9.34h-.14l-6.08-9.25v14.17H0v-21.85z"/><path id="Path_3" data-name="Path 3" class="cls-1" d="M39 117.93h16.44v4.28h-11.7v4.43H54v4.28H43.74v4.58H55.6v4.28H39v-21.85z"/><path id="Path_4" data-name="Path 4" class="cls-1" d="M76.84 122.36H70.2v-4.43h18.09v4.43h-6.64v17.42h-4.81z"/><path id="Path_5" data-name="Path 5" class="cls-1" d="M104.05 117.93h4.81v21.85h-4.81z"/><path id="Path_6" data-name="Path 6" class="cls-1" d="M124.69 136.58l2.84-3.41a10.1 10.1 0 006.53 2.65c2 0 3.15-.77 3.15-2.06v-.06c0-1.21-.76-1.87-4.4-2.78-4.43-1.1-7.23-2.37-7.23-6.69 0-4 3.14-6.59 7.65-6.59a12.66 12.66 0 018.12 2.78l-2.5 3.62a10.23 10.23 0 00-5.68-2.16c-1.87 0-2.8.81-2.8 1.91v.06c0 1.46.93 1.87 4.72 2.88 4.43 1.19 6.93 2.74 6.93 6.55v.06c0 4.33-3.31 6.77-8 6.77a13.52 13.52 0 01-9.33-3.53z"/></g></g></g></g></svg>