<svg xmlns="http://www.w3.org/2000/svg" viewBox="0 0 628.97 121.66"><defs><style>.cls-1{fill:#8e8e8e}</style></defs><g id="Слой_2" data-name="Слой 2"><g id="Слой_1-2" data-name="Слой 1"><g id="logo"><path id="Path_183" data-name="Path 183" class="cls-1" d="M94 99.56q-.55-6.24-1.21-14.44T91.48 68q-.65-9-1.29-18t-1.08-17q-2.42 7.4-4.87 14.87T79.56 62q-2.22 6.72-4.1 12.16a959.24 959.24 0 00-3 8.77c-.82 1.5-1.66 2.93-2.5 4.28a27.82 27.82 0 01-2.61 3.56 13.05 13.05 0 01-2.76 2.43 5.39 5.39 0 01-2.94.91 6.26 6.26 0 01-3.4-.87 3.83 3.83 0 01-1.7-2.62c0-.22-.08-.45-.1-.68a2.25 2.25 0 01.05-.69Q54 79 51.77 68.47t-4.22-20.64L46.62 43c-.31-1.59-.59-3.16-.85-4.71q-1.64 6.53-3.67 13.56t-4.41 13.9q-2.37 6.85-5 13.2a117.74 117.74 0 01-5.59 11.53 57.13 57.13 0 01-6 8.85 18.61 18.61 0 01-6.3 5.12 32.31 32.31 0 01-4.94 1.77 16 16 0 01-3.89.55 7 7 0 01-4.08-1 4.13 4.13 0 01-1.77-2.58 5.38 5.38 0 01.79-3.77 7.52 7.52 0 013.69-3c2.05-.87 4.11-2.79 6.16-5.77a73.75 73.75 0 006.06-10.84q3-6.39 5.72-14.22t5.22-15.89q2.46-8.05 4.51-15.78t3.6-14q1.55-6.23 2.51-10.41t1.2-5.18A5.15 5.15 0 0141.73 1a6.37 6.37 0 013.5-1 5 5 0 013.9 1.41 10.76 10.76 0 012 5q1.47 4.57 2.65 8.6c.78 2.69 1.55 5.45 2.29 8.27s1.47 5.88 2.18 9.14 1.47 7 2.3 11.29q.89 4.56 1.77 10.08c.6 3.68 1.33 7.79 2.22 12.33q5.63-15.81 10-27.89t7.74-20.24a89.4 89.4 0 016-12.34q2.61-4.17 4.63-4.17h.94a2 2 0 01.42 0c1.16 0 2.22.72 3.18 2.18a15.72 15.72 0 012.12 5.66q.39 3.55.84 8.85t.92 11.64q.48 6.35 1 13.39t1 14q.48 6.93 1 13.46t1 11.82a12.55 12.55 0 00.23 1.93c.12.65.25 1.32.38 2 .25 1.26.52 2.53.82 3.81s.56 2.55.81 3.81q.42 2.17.63 4.38a9.14 9.14 0 01-.42 4 5.52 5.52 0 01-2.52 2.9 11.09 11.09 0 01-5.58 1.13 4.64 4.64 0 01-3.41-1.49c-1.05-1.05-1.79-2.83-2.27-5.39z"/><path id="Path_184" data-name="Path 184" class="cls-1" d="M487.7 74.09a34.45 34.45 0 01-1.4 4.57 49 49 0 01-2.3 5.19 36.94 36.94 0 01-2.94 4.86 19.54 19.54 0 01-3.29 3.63 5.18 5.18 0 01-3.29 1.41 6.63 6.63 0 01-3.5-.87 9.56 9.56 0 01-2.53-2.17 12.32 12.32 0 01-1.73-2.87 32 32 0 01-1.12-3 17.64 17.64 0 01-.76-7.07 16.11 16.11 0 011.92-6.35 12.88 12.88 0 014.24-4.58 10.76 10.76 0 016.06-1.74 12.39 12.39 0 012.84.4 15.8 15.8 0 013.31 1.2 13.77 13.77 0 012.92 1.92 5.53 5.53 0 011.73 2.5 6.35 6.35 0 01-.16 2.97zm-75.64 7.84c0-.92.07-2.06.2-3.41a30.72 30.72 0 01.74-4.25 39 39 0 011.39-4.46 14.81 14.81 0 012.3-4 11.11 11.11 0 013.49-2.86 10 10 0 014.82-1.12h.65a3.81 3.81 0 01.67.07 4.29 4.29 0 011.81.8 3.35 3.35 0 011.24 1.74 4.76 4.76 0 01-.27 3.09 9.8 9.8 0 01-3.3 3.81c-.4.29-1.06.84-2 1.66s-2 1.75-3.31 2.76-2.65 2.08-4.11 3.19a51.86 51.86 0 01-4.33 3zm-35.95-2.72a18.35 18.35 0 01-2.7 7.36 16.32 16.32 0 01-5.41 5.26 14.36 14.36 0 01-7.53 2 9.31 9.31 0 01-3.69-.65 8 8 0 01-2.52-1.67 8.49 8.49 0 01-1.6-2.21 17 17 0 01-1.45-10.67 19.26 19.26 0 013.1-7.36 17.37 17.37 0 015.78-5.27 15.14 15.14 0 017.64-2 6.56 6.56 0 013.11.69 7.63 7.63 0 012.2 1.71 9.09 9.09 0 011.47 2.25 21.06 21.06 0 01.91 2.32 18.35 18.35 0 01.69 8.23zm-137 1.7a16.1 16.1 0 01-1.88 6.49A13.18 13.18 0 01233 92a10.26 10.26 0 01-5.93 1.78 7.29 7.29 0 01-3.77-.94 9.84 9.84 0 01-2.74-2.36 14 14 0 01-1.86-3 28.78 28.78 0 01-1.16-3 18.21 18.21 0 01-.81-7.22 16.11 16.11 0 011.9-6.31 12.62 12.62 0 014.18-4.5 10.8 10.8 0 016-1.7 8.09 8.09 0 013.81.83 9.23 9.23 0 012.67 2.14 11.6 11.6 0 011.76 2.87 29.4 29.4 0 011.12 3 18.75 18.75 0 01.85 7.33zm389.63-.15a6.26 6.26 0 00-2-3 4.36 4.36 0 00-2.74-1.21 3 3 0 00-1.1.22 1.54 1.54 0 00-.78.73q-1.15 1.89-3.22 4.68a47.18 47.18 0 01-4.63 5.37 29.47 29.47 0 01-5.55 4.39 11.51 11.51 0 01-6 1.81 7.38 7.38 0 01-2.71-.44 2.89 2.89 0 01-1.61-2 7.48 7.48 0 01-.16-3.73 20.2 20.2 0 011.18-3.88 35.35 35.35 0 011.72-3.56c.61-1.11 1.1-2 1.45-2.76a27.17 27.17 0 002.41-7.21 16.59 16.59 0 00-.59-8.27 13 13 0 00-6.08-7.72 14.89 14.89 0 00-4.41-1.7 22.17 22.17 0 00-4.73-.51 18.07 18.07 0 00-5.7.8 16.25 16.25 0 00-4.31 2.1 18.55 18.55 0 00-3.32 2.94 31.88 31.88 0 00-2.59 3.3 14.46 14.46 0 00-2.37-4.21 13.18 13.18 0 00-6.9-4.43 15.84 15.84 0 00-4-.51 18.8 18.8 0 00-7 1.17 18 18 0 00-5 2.93 25 25 0 00-3.68 3.88q-1.59 2.1-3 3.92a10.89 10.89 0 00-.42-4.13 7.31 7.31 0 00-2.63-3.88 6.22 6.22 0 00-3.65-1.35 5.45 5.45 0 00-3.74 1.5 7 7 0 00-2 4.64c-.2 1.69-.47 3.74-.8 6.13s-.7 4.94-1.09 7.65c-.1.78-.22 1.56-.33 2.34q-3.1 4.63-6 8.26c-.84 1-1.73 2-2.65 3a32.93 32.93 0 01-2.76 2.65 16.32 16.32 0 01-2.65 1.85 5 5 0 01-2.36.68 3.62 3.62 0 01-2.9-1.41 10.49 10.49 0 01-1.85-3.59 19.62 19.62 0 01-.75-4c-.16-1.57-.25-3.25-.28-5s0-3.62.07-5.48.14-3.65.24-5.37.17-3.27.24-4.67.07-2.57 0-3.49a3.7 3.7 0 00-.18-.8 6.64 6.64 0 00-2.77-3.39 8.59 8.59 0 00-5-1.53 5.89 5.89 0 00-1.94.4 16.36 16.36 0 00-2 .91c-.75.39-1.46.8-2.15 1.23a31.77 31.77 0 00-4.13-2.54 34.49 34.49 0 00-4.6-1.74 20.21 20.21 0 00-5.83-.8 23.6 23.6 0 00-10.5 2.14 21.4 21.4 0 00-7.17 5.59 24.73 24.73 0 00-4.34 7.8 39.12 39.12 0 00-2 8.81 46.93 46.93 0 00-.21 6.49c-.77.55-1.65 1.16-2.63 1.82q-2.36 1.61-5.36 3.37a69.84 69.84 0 01-6.25 3.3 43.2 43.2 0 01-6.76 2.5 25.18 25.18 0 01-6.84 1 11.3 11.3 0 01-5.38-1.2 7.26 7.26 0 01-3.27-3.3 86.51 86.51 0 0014.16-7.21 37.92 37.92 0 008.27-7 14.61 14.61 0 003.39-6.79 13.52 13.52 0 00-.4-6.38 15.47 15.47 0 00-5.49-8.05 16 16 0 00-9.9-2.9 29.31 29.31 0 00-10.25 1.67 26.74 26.74 0 00-7.8 4.41 26.29 26.29 0 00-5.59 6.35 30.3 30.3 0 00-3.38 7.36 27 27 0 00-1.2 7.51 22.78 22.78 0 00.32 4.44l-.32.1a23.18 23.18 0 01-6.36.87 9 9 0 01-1.87-.19 3 3 0 01-1.61-1 21.64 21.64 0 001.06-5 52 52 0 00.29-5.58 47 47 0 00-.27-4.9 18.85 18.85 0 00-.47-2.9 16.72 16.72 0 00-3-5.63 20.65 20.65 0 00-9.43-6.63 15.1 15.1 0 00-4.84-.87 20.47 20.47 0 00-6 .83 25.7 25.7 0 00-5.19 2.18 31.05 31.05 0 00-4.49 3 47.25 47.25 0 00-3.83 3.52q2.13-10.37 3.58-21t3.6-20.93a18.85 18.85 0 00.61-3.15 7.5 7.5 0 00-.26-3.16 6.3 6.3 0 00-2.28-3.22 8.39 8.39 0 00-5.09-1.31 7.58 7.58 0 00-2.45.4 7 7 0 00-2 1.09 6.24 6.24 0 00-1.43 1.56 4.47 4.47 0 00-.7 1.81l-6.44 47.09c-.19 1.26-.33 2.29-.42 3.08s-.16 1.5-.21 2.1-.1 1.19-.14 1.74-.1 1.21-.15 2-.13 1.66-.24 2.72-.24 2.4-.41 4a41.07 41.07 0 00-.2 4.18c-1.41 1.38-3 2.75-4.67 4.13a73 73 0 01-6.43 4.61 45.1 45.1 0 01-6.88 3.62 2.86 2.86 0 01-1.35.77 7.21 7.21 0 01-1.13.11 1.92 1.92 0 01-1.3-.44 2.22 2.22 0 01-.68-1 3.46 3.46 0 01.1-2.68q.32-1.31 1-3.3l1.42-4.39c.51-1.59 1-3.3 1.48-5.11a47.74 47.74 0 001.09-5.55 33.52 33.52 0 00.3-5.66 20.44 20.44 0 00-.9-5.44 10.54 10.54 0 00-4.54-6.28 13.56 13.56 0 00-7-1.85 23 23 0 00-6.88 1.09 35.07 35.07 0 00-6.52 2.79 28.22 28.22 0 00-5.36 3.85 14.06 14.06 0 00-3.26 4.17 8.59 8.59 0 00.07-2.32 11.61 11.61 0 00-.42-2 7 7 0 00-2.54-3.74 6.07 6.07 0 00-3.52-1.27A5.58 5.58 0 00275.1 56a7.47 7.47 0 00-2.17 4.65c-.11.75-.24 1.58-.39 2.47a1.06 1.06 0 00-.59.43c-.4.73-.91 1.61-1.53 2.65s-1.32 2.14-2.12 3.3-1.67 2.32-2.61 3.48a28 28 0 01-2.94 3.12 16.36 16.36 0 01-3.1 2.25 6.38 6.38 0 01-3.1.87 6.5 6.5 0 01-2.14-.36 6.37 6.37 0 01-2.06-1.24 34.52 34.52 0 00-.08-5.84 26.33 26.33 0 00-1-5 18.14 18.14 0 00-4-7.07 23.16 23.16 0 00-5.9-4.61 24.85 24.85 0 00-6.61-2.46 29.44 29.44 0 00-6.14-.73 26.39 26.39 0 00-11 2.07 22.26 22.26 0 00-7.58 5.44 24.26 24.26 0 00-4.61 7.62 37.76 37.76 0 00-2.18 8.56 39.14 39.14 0 00-.24 8.38 32.25 32.25 0 001.23 7 20 20 0 003.94 7.26 24.61 24.61 0 005.61 4.82 22.63 22.63 0 005.94 2.65 19.39 19.39 0 005 .8 32.84 32.84 0 009.7-1.34 26.83 26.83 0 007.68-3.74 22.92 22.92 0 005.64-5.73 29.42 29.42 0 003.63-7.4 18.74 18.74 0 004.18 1.89 13.48 13.48 0 003.84.58 8.84 8.84 0 005-1.53 19.71 19.71 0 004.14-3.7l.07-.08c-.28 1.8-.52 3.53-.73 5.16q-.46 3.63-.61 6.39a12.45 12.45 0 00.23 4 8.05 8.05 0 002.68 3.91 6.83 6.83 0 004.49 1.6 4.14 4.14 0 003.6-1.56 10.62 10.62 0 001.71-3.91A46.23 46.23 0 00281 96a32.08 32.08 0 011-5.12q1.2-3.55 2.84-8a51.77 51.77 0 014-8.53 25.87 25.87 0 015.68-6.78 12 12 0 017.94-2.76 3 3 0 012.09.77 3.93 3.93 0 011.19 1.85 6.88 6.88 0 01.06 3.19c-.22 1.3-.54 2.79-1 4.46s-.9 3.44-1.42 5.3-1 3.74-1.4 5.62a42.7 42.7 0 00-.81 5.52 15.14 15.14 0 00.35 4.93c.07.39.14.74.22 1s.16.64.27 1a12.76 12.76 0 003.65 6 9.22 9.22 0 006.29 2.14 15.14 15.14 0 002.77-.29 25.22 25.22 0 003.17-.87 53.42 53.42 0 008.53-3.45 51.49 51.49 0 006.44-4 64.82 64.82 0 005.59-4.61l.4-.36a28.45 28.45 0 002.29 4.79 20.37 20.37 0 004.31 5.08 19.77 19.77 0 006 3.44 22.43 22.43 0 007.87 1.27 26.88 26.88 0 0013.89-3.44 26.18 26.18 0 009.79-10.9 13.58 13.58 0 004 2 15.87 15.87 0 004.48.65 30.72 30.72 0 006.9-.76 39.19 39.19 0 003.84-1.11 30.75 30.75 0 005.47 6.3 27.25 27.25 0 007.14 4.5 20.64 20.64 0 008.24 1.66 36.27 36.27 0 009.88-1.34 53.47 53.47 0 009-3.37 62.6 62.6 0 007.74-4.46c1.74-1.2 3.31-2.34 4.71-3.45a17.73 17.73 0 002.94 4.86 23 23 0 005.18 4.5 21.27 21.27 0 005.54 2.5 17.65 17.65 0 004.62.76 13.66 13.66 0 006.76-1.7 22.62 22.62 0 005.53-4.35 31.9 31.9 0 004.32-5.88 57.4 57.4 0 003.15-6.27 11.86 11.86 0 00.15 2.79 22.33 22.33 0 00.72 3 22.62 22.62 0 002 4.53 18.79 18.79 0 003 4 15.16 15.16 0 003.9 2.83 10.29 10.29 0 004.69 1.09 12.83 12.83 0 005.6-1.35 29.13 29.13 0 005.41-3.44 43.32 43.32 0 005-4.68c.56-.62 1.11-1.24 1.64-1.85 0 .58 0 1.14-.07 1.67a13.53 13.53 0 00.33 4.06 8.3 8.3 0 002.77 4 7.22 7.22 0 004.66 1.67 3.87 3.87 0 003.48-1.63 11.82 11.82 0 001.6-4 38.32 38.32 0 00.72-5.22 33 33 0 01.76-5.23c.48-1.55 1-3.26 1.58-5.15s1.22-3.79 2-5.7a47.84 47.84 0 012.54-5.55 23.74 23.74 0 013.33-4.75 16.18 16.18 0 014.21-3.38 11.12 11.12 0 015.33-1.27 3.19 3.19 0 012.13.77 4 4 0 011.25 1.92 5.54 5.54 0 01.24 2.14 11.15 11.15 0 01-.47 2.21c-.83 2.76-1.78 5.45-2.83 8.09s-2 5.24-2.78 7.8a41.65 41.65 0 00-1.62 7.47 16.78 16.78 0 00.67 7.11 4.88 4.88 0 001.16 1.74 8.11 8.11 0 001.81 1.38 9.76 9.76 0 002.13.91 7.4 7.4 0 002 .33 3.84 3.84 0 003.47-1.64 11.49 11.49 0 001.6-4 36.83 36.83 0 00.73-5.22 33 33 0 01.76-5.23c.48-1.55 1-3.26 1.57-5.15s1.22-3.79 2-5.7a45.52 45.52 0 012.54-5.55 23.46 23.46 0 013.33-4.75 16.18 16.18 0 014.2-3.36 11.12 11.12 0 015.32-1.27 3.21 3.21 0 012.12.76 4.1 4.1 0 011.26 1.93 5.35 5.35 0 01.23 2.14 11.13 11.13 0 01-.46 2.21 33.64 33.64 0 01-2.15 5.51 60 60 0 00-2.5 5.7 25.53 25.53 0 00-1.5 6.13 16.24 16.24 0 00.75 6.82 14 14 0 005.82 8.06 17.69 17.69 0 009.46 2.54 19.52 19.52 0 007.8-1.6 31.53 31.53 0 007-4.25 48.18 48.18 0 006.36-6.09q3-3.45 5.75-7.22a6.85 6.85 0 001.9-3.41 6.5 6.5 0 00-.12-3.19"/><g id="symbol"><path id="Path_185" data-name="Path 185" class="cls-1" d="M162.92 51.11A25.86 25.86 0 00137.08 77v.1a1.28 1.28 0 001.28 1.2h49.12a1.28 1.28 0 001.28-1.2V77a25.85 25.85 0 00-25.84-25.85z"/><path id="Path_186" data-name="Path 186" class="cls-1" d="M120 105.83a1.58 1.58 0 11-1.58-1.58 1.58 1.58 0 011.58 1.58z"/><path id="Path_187" data-name="Path 187" class="cls-1" d="M185.77 97.12h-52.71a1.55 1.55 0 00-1.55 1.55 1.6 1.6 0 00.19.74 1.56 1.56 0 001.37.81h52.66a1.54 1.54 0 001.36-.81 1.56 1.56 0 00-.63-2.1 1.6 1.6 0 00-.69-.19z"/><path id="Path_188" data-name="Path 188" class="cls-1" d="M192.78 82.86h-59.72a1.55 1.55 0 00-1.55 1.56v.13a1.55 1.55 0 001.55 1.45h59.71a1.55 1.55 0 001.55-1.46 1.55 1.55 0 00-1.46-1.64z"/><path id="Path_189" data-name="Path 189" class="cls-1" d="M170.29 118.52h-26.91a1.54 1.54 0 00-1.55 1.55 1.53 1.53 0 00.86 1.38h.1a1.49 1.49 0 00.69.16h26.72a1.55 1.55 0 00.69-.16h.1a1.55 1.55 0 00-.7-2.93z"/><path id="Path_190" data-name="Path 190" class="cls-1" d="M186.74 111.39h-26.92a1.55 1.55 0 00-.69 2.93l.1.05a1.52 1.52 0 00.69.16h26.72a1.49 1.49 0 00.69-.16l.1-.05a1.55 1.55 0 00-.69-2.93z"/><path id="Path_191" data-name="Path 191" class="cls-1" d="M150 106.91a1.55 1.55 0 01.09-2.19 1.51 1.51 0 011-.41h43.68a1.55 1.55 0 011.55 1.55 1.58 1.58 0 01-.42 1 1.59 1.59 0 01-1.14.49h-43.59a1.55 1.55 0 01-1.17-.44z"/><path id="Path_192" data-name="Path 192" class="cls-1" d="M124 104.25h20.86a1.56 1.56 0 011.55 1.56 1.58 1.58 0 01-.86 1.38h-.1a1.66 1.66 0 01-.69.16h-20.64a1.62 1.62 0 01-.69-.16h-.1a1.55 1.55 0 01.69-2.94z"/><path id="Path_193" data-name="Path 193" class="cls-1" d="M129 84.44a1.57 1.57 0 11-1.57-1.58 1.57 1.57 0 011.57 1.58z"/><path id="Path_194" data-name="Path 194" class="cls-1" d="M166.08 92a1.54 1.54 0 00-1.08-2 1.4 1.4 0 00-.41-.05h-43.68a1.54 1.54 0 00-1.55 1.54 1.44 1.44 0 000 .41 1.56 1.56 0 001.5 1.14h43.67a1.56 1.56 0 001.5-1.14"/><path id="Path_195" data-name="Path 195" class="cls-1" d="M116.87 91.56a1.58 1.58 0 11-3.15 0 1.58 1.58 0 013.15 0z"/><path id="Path_196" data-name="Path 196" class="cls-1" d="M129 98.7a1.57 1.57 0 11-1.57-1.58A1.57 1.57 0 01129 98.7z"/><path id="Path_197" data-name="Path 197" class="cls-1" d="M155.78 113a1.58 1.58 0 11-1.57-1.57 1.57 1.57 0 011.57 1.57z"/><path id="Path_198" data-name="Path 198" class="cls-1" d="M139.33 120.09a1.57 1.57 0 11-1.57-1.58 1.57 1.57 0 011.57 1.58z"/></g></g></g></g></svg>