<svg version="1.1" id="katman_1" xmlns="http://www.w3.org/2000/svg" x="0" y="0" viewBox="0 0 371 123.9" xml:space="preserve"><path d="M187.2 35.8v52.5c0 .4-.3.8-.8.8h-5.5c-2.5 0-4.9-1.3-6.3-3.4l-24.8-38.3.8 19.1v21.9c0 .4-.3.8-.8.8h-7.2c-.4 0-.8-.3-.8-.8V35.8c0-.4.3-.8.8-.8h5.4c2.5 0 4.9 1.3 6.3 3.4l24.8 38.2-.8-19.1V35.8c0-.4.3-.8.8-.8h7.2c.6 0 .9.3.9.8zM261 89h-7.6c-.5 0-.9-.5-.7-1l20.2-52.3c.2-.4.6-.7 1-.7h9.6c.5 0 .9.3 1 .7L304.8 88c.2.5-.2 1-.7 1h-7.6c-.3 0-.6-.2-.7-.5l-16.3-43c-.2-.6-1.2-.6-1.4 0l-16.3 43c-.2.3-.5.5-.8.5zm96.8-1.2l-15.2-19.4c8.6-1.6 13.6-7.4 13.6-16.3 0-10.2-6.6-17.1-18.4-17.1h-21.2c-.6 0-1.1.5-1.1 1.1 0 4 3.2 7.2 7.2 7.2H337c7.1 0 10.5 3.6 10.5 8.9 0 5.3-3.3 8.9-10.5 8.9h-20.2c-.6 0-1.1.5-1.1 1.1v26c0 .4.3.8.8.8h7.2c.4 0 .8-.3.8-.8V68.9h8.3L346 86.1c1.4 1.9 3.6 2.9 6 2.9h5.5c.4 0 .7-.7.3-1.2zM238.2 35h-33.5c-.6 0-1 .4-1 1 0 4 3.3 7.3 7.3 7.3h27.2c.4 0 .8-.3.8-.8v-6.8c-.1-.4-.4-.7-.8-.7zm0 45.7h-25c-.4 0-.8-.3-.8-.8V66.4c0-.4.3-.8.8-.8h23.1c.4 0 .8-.3.8-.8V58c0-.4-.3-.8-.8-.8h-31.5c-.6 0-1.1.5-1.1 1.1v29.5c0 .6.5 1.1 1.1 1.1h33.4c.4 0 .8-.3.8-.8v-6.8c-.1-.3-.4-.6-.8-.6zm-150-59.1L69.4 49.5c-1.3 1.9 1.2 4.2 3 2.6L90.9 36c.5-.4 1.2-.1 1.2.6v50.3c0 .7-.9 1-1.3.5l-56-67C33 18.2 30.4 17 27.5 17h-2c-5.2 0-9.5 4.3-9.5 9.6v70.8c0 5.3 4.3 9.6 9.6 9.6 3.3 0 6.4-1.7 8.2-4.6l18.8-27.9c1.3-1.9-1.2-4.2-3-2.6l-18.5 16c-.5.4-1.2.1-1.2-.6V37.1c0-.7.9-1 1.3-.5l56 67c1.8 2.2 4.5 3.4 7.3 3.4h2c5.3 0 9.6-4.3 9.6-9.6V26.6c-.1-5.3-4.4-9.6-9.7-9.6-3.3 0-6.4 1.7-8.2 4.6z" fill="#8e8e8e"/></svg>