<svg xmlns="http://www.w3.org/2000/svg" viewBox="0 0 2498.78 544.59"><g id="Слой_2" data-name="Слой 2"><path d="M2498.78 413.07h-59.32V276.05c0-12.89-2.53-25.09-10.13-35.85-12.75-18-35.31-25.87-57.55-19.94-21.55 5.74-38 24.68-40 46.12-.38 4.13-.58 8.29-.58 12.44q-.06 63.65 0 127.28v6.9h-59V166.11h13.89c10.83 0 21.66.11 32.48-.06 3.41-.05 5 .74 5.54 4.48.86 6.36 2.44 12.62 3.89 19.77a34 34 0 004.17-2.73c22.2-20.44 48.83-27.68 78.29-25.54 49.4 3.6 82 38.79 87.39 87a40.43 40.43 0 00.94 4.28zM378.12 274.52c8.35 4.72 16 9 23.6 13.36 12.85 7.36 25.74 14.67 38.49 22.2 3.13 1.85 5.52 1.8 8.67 0q47-27.37 94.26-54.42c3.45-2 4.82-4.25 4.8-8.29q-.23-53.65 0-107.33c0-4.22-1.42-6.58-5-8.65Q496.33 104.68 450 77.62c-4-2.31-6.86-2.32-10.87 0q-46.26 27.2-92.85 53.84c-3.84 2.2-5.17 4.65-5.17 9.05.14 97.51 0 195 .25 292.53 0 11.78-4.52 19.72-14.68 25.56q-70.12 40.29-139.92 81.14c-10.91 6.39-20.94 6.43-31.87 0q-70.23-41.07-140.8-81.57C4.43 452.7 0 444.8 0 433.78Q.15 351.4 0 269c0-10.82 4.3-18.7 13.75-24.16q72.86-42 145.58-84.3a21.07 21.07 0 0121.49-.36c18.25 10 36.23 20.44 54.24 30.83a5 5 0 012.22 3.51c.13 24.77.1 49.54.1 75.31-2.2-1.09-3.77-1.76-5.24-2.6-18.93-10.8-37.9-21.55-56.73-32.53-3.28-1.91-5.72-2.09-9.07-.13q-47.2 27.57-94.62 54.78c-3.11 1.78-4.46 3.78-4.44 7.46q.19 54.16 0 108.33c0 3.37 1 5.43 4 7.17q47.85 27.43 95.51 55.19c2.8 1.63 4.89 1.79 7.73.14q47.25-27.49 94.68-54.68c3.73-2.13 4.8-4.6 4.79-8.73q-.15-146.52-.13-293c0-11.26 4.36-19.27 14.17-24.92q71-40.81 141.74-82c10.06-5.84 19.63-5.75 29.68.11q70.74 41.24 141.69 82.15c9.45 5.45 13.89 13.12 13.87 24q-.19 82.88 0 165.74c0 10.3-4.29 17.79-13.16 22.92q-71.94 41.66-143.82 83.41c-9 5.23-17.87 5.28-26.92.05q-24.63-14.25-49.41-28.25c-2.49-1.4-4.12-2.81-4.11-6.06.14-23.47.09-46.93.11-70.39.03-.76.21-1.58.42-3.47zm1510.09-108.13h51.24c.09 1.87.24 3.62.24 5.37v233.57c-.06 28.29-7.14 54.34-27 75.59-16.18 17.28-36.56 26.91-59.56 31.14-28.29 5.21-56.45 4.77-83.68-5.32-34.19-12.67-56.83-36.11-64.75-72.43a31.57 31.57 0 01-.59-4.44c-.1-1.31 0-2.63 0-4.35h59.64c.85 2.44 1.63 5.29 2.81 8 5.67 12.79 15.67 20.92 28.64 25.4a75.5 75.5 0 0044.26 1.74c23.65-6.11 38.83-24 40.4-48.6.84-13.08.15-26.25.15-40.36-1.74.94-3.21 1.39-4.22 2.33-22.27 20.63-49 27.35-78.48 24.52-57-5.47-95.88-50.17-100.25-105.53-2.58-32.64 3.57-63.1 24-89.29 24.84-31.76 58.36-44.48 98.08-41.49 23.69 1.78 43.91 11.32 60.2 28.82.81.88 2.17 1.26 3.27 1.87a14.52 14.52 0 001.57-3.32c1.37-7.69 2.66-15.35 4.03-23.22zM1755.6 280.5c.46 4.45.6 9 1.44 13.34 4.37 22.82 16.43 40 38.61 48.21s43.22 4.68 61.18-10.8c19.65-16.93 25-39.28 21.17-64.17a61.43 61.43 0 00-84.39-47.73c-23.23 9.51-37.61 32.92-38.01 61.15zM778.08 166.41h51c1.54 9.11 3.08 18.19 4.78 28.29 1.76-1.19 3.06-1.74 3.9-2.7 21.7-24.89 50.06-32.24 81.55-29.92 52.82 3.88 93.4 43.85 102.82 99.63 5.53 32.76 2.49 64.7-13 94.65-29.8 57.82-92.79 71.41-137.86 53.52a75.13 75.13 0 01-28.79-20.12 35.39 35.39 0 00-2.76-2.85c-.31-.28-.94-.2-2.2-.42v122.09h-59.44zm59.21 116.18c0 20 2.11 31.65 7.2 42.4 10.54 22.23 27.91 35.47 52.7 37s44.88-8.68 57-30.5c15.58-28.06 15.61-57.31-.55-85.07-20.8-35.76-69.67-40.4-97.73-10a71.17 71.17 0 00-18.62 46.17zm854.62-116.48c-4.2 11.73-8.05 22.5-11.9 33.27q-47.43 132.54-94.87 265.07c-1.34 3.75-2.84 7.45-4.41 11.12-8 18.55-21.5 31.11-41.86 32.65-25 1.89-50.13 1.58-75.51 2.23v-55.51h46.86c9.79 0 14.21-3.8 18.12-12.62 4.52-10.23 3.76-19.29-.36-29.78-31.56-80.23-62.46-160.72-93.56-241.13-.57-1.49-1-3-1.71-5.29h5.63c17.33 0 34.66.12 52-.09 3.92 0 5.73 1.06 7.15 4.89 20 53.88 40.27 107.66 60.25 161.55 1.47 4 3.48 4.64 7.24 4.82 4.09.21 5-2 6-5 18-53.53 36.14-107 54-160.6 1.52-4.59 3.55-5.73 8.06-5.67 17.49.25 35 .1 52.48.1zm419.16 251.02c-72.88-.16-123.85-46.42-130.2-113-3.71-38.84 5.39-74 32.05-103.44 19.53-21.57 44.25-33.78 72.9-37.71 34.15-4.68 66.15 1.52 94.23 22.14 32.62 24 48.12 57.25 50.1 97.11 1.68 33.94-6.72 65-28.82 91.42-25 29.87-57.91 42.99-90.26 43.48zm-72.34-127.73c1.4 8.16 2.16 16.48 4.29 24.43 7.21 26.81 29.31 45.49 56.2 48.18 25.92 2.59 50.66-10.91 62.9-34.79 10.09-19.7 11.42-40.48 5.6-61.59-12.42-45-63.19-63.8-100-36.85-20.27 14.83-27.81 36.09-28.99 60.62zm-734.2.23c-.61 41.28-14.65 76.43-48 102.24-25.32 19.62-54.64 27.22-86.25 24.89-44.92-3.29-79.45-24-101-64.07-24.52-45.59-20.88-113 20.36-154.85 19.34-19.61 43-31.1 70.22-34.8 34.17-4.64 66.09 1.53 94.25 22.05 31.12 22.68 46.48 54.26 49.95 92.09.23 2.48.31 5 .4 7.46.12 1.66.07 3.36.07 4.99zM1113 293.31c1.77 8.07 2.71 16.44 5.48 24.16 9.13 25.5 27.06 41.38 54.34 44.28 25.26 2.68 45.74-7.16 59.86-28.36 12.86-19.29 15.07-40.85 10.52-63.15-8.12-39.73-45.67-62.68-83.07-50.75-31.39 10-47.76 40.32-47.13 73.82zM1348.22 72h58.69v340.5h-58.69z" fill="#8e8e8e" id="Слой_1-2" data-name="Слой 1"/></g></svg>