<svg width="64" height="63" fill="none" xmlns="http://www.w3.org/2000/svg"><path d="M11.295.034h41.427c.104.034.19.084.294.101 2.716.492 4.55 2.544 4.653 5.24.035 1.137.018 2.29.018 3.426v3.035h2.577c2.283.017 3.736 1.425 3.736 3.646v37.63c0 .322 0 .645-.07.95-.362 1.645-1.746 2.68-3.597 2.68-7.213 0-15.412-.035-22.625-.035-7.213 0-26.81.034-33.99.034-2.265 0-3.7-1.407-3.718-3.629V15.601c0-2.357 1.401-3.748 3.805-3.765h2.509v-.83c.017-1.968-.052-3.935.051-5.902C6.47 3.086 7.56 1.577 9.41.661c.588-.288 1.262-.424 1.885-.627zM8.112 10.598V40.7c0 1.102.346 1.441 1.47 1.441h44.8c1.16 0 1.488-.339 1.488-1.475V10.582c-15.93.016-31.775.016-47.758.016zm49.575 3.036v.882c0 8.648-.052 17.297.034 25.962.017 2.561-1.626 3.51-3.546 3.51-8.787-.05-17.557-.033-26.344-.033H9.444c-.9 0-1.695-.255-2.335-.899-.64-.661-.795-1.458-.795-2.34V14.448c0-.254-.018-.526-.035-.814H3.944c-1.54 0-2.11.56-2.11 2.069V45.6c0 .203.017.407.034.644h60.333V15.262c-.052-.899-.675-1.56-1.609-1.594-.934-.068-1.868-.034-2.905-.034zM1.834 48.042c0 1.865-.035 3.697.017 5.494.017.678.45 1.136 1.107 1.34.328.102.674.102 1.02.102h56.424c1.107-.034 1.764-.679 1.782-1.764.017-1.611 0-3.222 0-4.816 0-.119-.035-.238-.052-.356H1.834zM55.888 8.767V5.765c0-.322-.018-.644-.07-.95-.311-1.78-1.902-2.984-3.943-2.984H11.693c-1.574.085-3.062 1.086-3.356 2.612-.276 1.407-.207 2.866-.294 4.324h47.845z" fill="#F2633F"/><path d="M26.15 25.547c.934.916 1.833 1.78 2.75 2.662.156.153.311.289.45.458.346.424.38.865-.018 1.255-.398.39-.882.34-1.262-.017a76.03 76.03 0 01-2.059-2.018c-.553-.542-1.107-1.068-1.643-1.628-.467-.492-.502-.932-.034-1.39a246.635 246.635 0 013.701-3.63c.433-.423.969-.406 1.332-.033.346.356.329.899-.087 1.306-1.02 1-2.04 1.984-3.13 3.035zm12.125-.017l-3.01-2.9c-.536-.508-.605-1.051-.207-1.441.415-.407.917-.356 1.47.17 1.142 1.119 2.3 2.238 3.442 3.357.606.61.606 1.017 0 1.628-1.159 1.136-2.3 2.29-3.476 3.409-.502.491-1.021.525-1.419.152-.38-.373-.329-.933.139-1.39.986-.984 1.989-1.934 3.061-2.985zm-7.835 4.46c.31-1.611.64-3.307.968-5.02.242-1.288.502-2.56.761-3.85l.052-.254c.156-.627.554-.95 1.072-.848.537.102.813.51.692 1.154a559.2 559.2 0 01-1.107 5.715c-.19 1.017-.398 2.035-.605 3.052-.035.153-.052.288-.104.424-.156.492-.519.712-1.038.661-.467-.034-.726-.424-.692-1.034z" fill="#F2633F"/><path stroke="#F2633F" stroke-width="2" stroke-linecap="round" d="M23 62h19"/></svg>