<svg width="70" height="74" fill="none" xmlns="http://www.w3.org/2000/svg"><path d="M25 67.71h20m-10-8v-14m-8-8l8 8 8-8" stroke="#F2633F" stroke-width="2" stroke-linecap="round" stroke-linejoin="round"/><path d="M22.675 51.46A19.875 19.875 0 0115 35.837c-.05-10.85 8.675-19.875 19.525-20.125A20 20 0 0147.35 51.436 6.05 6.05 0 0045 56.21v1.5a2 2 0 01-2 2H27a2 2 0 01-2-2v-1.5a6.099 6.099 0 00-2.325-4.75v0zM35 7.782V1.711M15.237 15.948l-4.28-4.28M7.071 35.71H1m61.929 0H69M54.763 15.948l4.28-4.28" stroke="#F2633F" stroke-width="2" stroke-linecap="round" stroke-linejoin="round"/></svg>