<svg width="24" height="24" viewBox="0 0 24 24" fill="none" xmlns="http://www.w3.org/2000/svg">
<g clip-path="url(#clip0_3_831)">
<path d="M12.9819 11.971L-5.38826e-05 11.971M-5.38826e-05 11.971L2.99578 9.00018M-5.38826e-05 11.971L2.99578 14.9419M15.9777 11.971C15.9777 12.4963 16.1881 13.0001 16.5627 13.3715C16.9372 13.7429 17.4452 13.9516 17.9749 13.9516C18.5046 13.9516 19.0126 13.7429 19.3872 13.3715C19.7617 13.0001 19.9722 12.4963 19.9722 11.971C19.9722 11.4458 19.7617 10.942 19.3872 10.5706C19.0126 10.1991 18.5046 9.99047 17.9749 9.99047C17.4452 9.99047 16.9372 10.1991 16.5627 10.5706C16.1881 10.942 15.9777 11.4458 15.9777 11.971Z" stroke="#FF6161" stroke-width="1.17434" stroke-linecap="round" stroke-linejoin="round"/>
</g>
<defs>
<clipPath id="clip0_3_831">
<rect width="24" height="24" fill="white" transform="matrix(0 -1 1 0 0 24)"/>
</clipPath>
</defs>
</svg>
