<svg width="65" height="66" viewBox="0 0 65 66" fill="none" xmlns="http://www.w3.org/2000/svg">
<path d="M22.3438 6.80469V14.9297" stroke="#F2633F" stroke-width="2" stroke-linecap="round" stroke-linejoin="round"/>
<path d="M30.4688 6.80469V14.9297" stroke="#F2633F" stroke-width="2" stroke-linecap="round" stroke-linejoin="round"/>
<path d="M38.5938 6.80469V14.9297" stroke="#F2633F" stroke-width="2" stroke-linecap="round" stroke-linejoin="round"/>
<path d="M8.125 55.5547H52.8125" stroke="#F2633F" stroke-width="2" stroke-linecap="round" stroke-linejoin="round"/>
<path d="M21.1504 55.5547C17.2628 53.7708 13.9688 50.9086 11.6599 47.3079C9.35101 43.7073 8.12412 39.5195 8.125 35.2422V23.0547H52.8125V35.2422C52.8134 39.5195 51.5865 43.7073 49.2776 47.3079C46.9687 50.9086 43.6747 53.7708 39.7871 55.5547" stroke="#F2633F" stroke-width="2" stroke-linecap="round" stroke-linejoin="round"/>
<path d="M52.8125 23.0547C54.9674 23.0547 57.034 23.9107 58.5577 25.4344C60.0815 26.9582 60.9375 29.0248 60.9375 31.1797V33.2109C60.9375 35.3658 60.0815 37.4324 58.5577 38.9562C57.034 40.4799 54.9674 41.3359 52.8125 41.3359H51.9492" stroke="#F2633F" stroke-width="2" stroke-linecap="round" stroke-linejoin="round"/>
</svg>
