<svg width="64" height="63" viewBox="0 0 64 63" fill="none" xmlns="http://www.w3.org/2000/svg">
<path d="M11.2951 0.0336914C25.0984 0.0336914 38.9189 0.0336914 52.7222 0.0336914C52.8259 0.0676074 52.9124 0.118481 53.0162 0.135439C55.7319 0.627221 57.5654 2.67914 57.6692 5.37546C57.7038 6.51165 57.6865 7.66479 57.6865 8.80098C57.6865 9.78454 57.6865 10.7681 57.6865 11.8365C58.5859 11.8365 59.4335 11.8365 60.2638 11.8365C62.547 11.8534 64 13.2609 64 15.4824C64 28.0313 64 40.5803 64 53.1122C64 53.4344 64 53.7566 63.9308 54.0619C63.5676 55.7068 62.1838 56.7412 60.333 56.7412C53.12 56.7412 44.9211 56.7071 37.7081 56.7071C30.4951 56.7071 10.8973 56.7412 3.71892 56.7412C1.45297 56.7412 0.0172973 55.3337 0 53.1122C0 50.7211 0 48.3301 0 45.939C0 35.832 0 25.7081 0 15.6011C0 13.244 1.40108 11.8534 3.80541 11.8365C4.61838 11.8365 5.43135 11.8365 6.31351 11.8365C6.31351 11.5143 6.31351 11.2599 6.31351 11.0055C6.33081 9.03839 6.26162 7.07126 6.36541 5.10413C6.46919 3.08613 7.55892 1.57687 9.40973 0.661137C9.99784 0.372851 10.6724 0.237187 11.2951 0.0336914ZM8.11243 10.5985C8.11243 11.599 8.11243 12.5487 8.11243 13.4814C8.11243 22.5539 8.11243 31.6264 8.11243 40.699C8.11243 41.8012 8.45838 42.1404 9.5827 42.1404C24.5103 42.1404 39.4378 42.1404 54.3827 42.1404C55.5416 42.1404 55.8703 41.8012 55.8703 40.6651C55.8703 31.6095 55.8703 22.5539 55.8703 13.4983C55.8703 12.5317 55.8703 11.5651 55.8703 10.5816C39.9395 10.5985 24.0951 10.5985 8.11243 10.5985ZM57.6865 13.634C57.6865 13.9732 57.6865 14.2445 57.6865 14.5158C57.6865 23.1644 57.6346 31.813 57.7211 40.4785C57.7384 43.0392 56.0951 43.9888 54.1751 43.9888C45.3881 43.938 36.6184 43.9549 27.8314 43.9549C21.7081 43.9549 15.5676 43.9549 9.44432 43.9549C8.54486 43.9549 7.74919 43.7005 7.10919 43.0561C6.46919 42.3948 6.31351 41.5977 6.31351 40.7159C6.31351 31.9656 6.31351 23.1983 6.31351 14.448C6.31351 14.1936 6.29622 13.9223 6.27892 13.634C5.44865 13.634 4.68757 13.634 3.94378 13.634C2.40432 13.634 1.83351 14.1936 1.83351 15.7029C1.83351 25.6742 1.83351 35.6285 1.83351 45.5998C1.83351 45.8033 1.85081 46.0068 1.86811 46.2442C21.9849 46.2442 42.067 46.2442 62.2011 46.2442C62.2011 45.9899 62.2011 45.7524 62.2011 45.532C62.2011 35.6116 62.2011 25.6911 62.2011 15.7707C62.2011 15.6011 62.2011 15.4316 62.2011 15.262C62.1492 14.3632 61.5265 13.7018 60.5924 13.6679C59.6584 13.6001 58.7243 13.634 57.6865 13.634ZM1.83351 48.0418C1.83351 49.9072 1.79892 51.7386 1.85081 53.5362C1.86811 54.2145 2.30054 54.6724 2.95784 54.8759C3.28649 54.9776 3.63243 54.9776 3.97838 54.9776C22.6595 54.9776 41.3405 54.9776 60.0216 54.9776C60.1427 54.9776 60.2811 54.9776 60.4022 54.9776C61.5092 54.9437 62.1665 54.2993 62.1838 53.214C62.2011 51.603 62.1838 49.992 62.1838 48.3979C62.1838 48.2792 62.1492 48.1605 62.1319 48.0418C42.0324 48.0418 21.9849 48.0418 1.83351 48.0418ZM55.8876 8.76706C55.8876 7.74958 55.8876 6.74906 55.8876 5.76549C55.8876 5.44329 55.8703 5.12109 55.8184 4.81585C55.507 3.03526 53.9157 1.83124 51.8746 1.83124C38.6249 1.83124 25.3924 1.83124 12.1427 1.83124C11.987 1.83124 11.8486 1.83124 11.693 1.83124C10.1189 1.91603 8.63135 2.91655 8.3373 4.44277C8.06054 5.85028 8.12973 7.30867 8.04324 8.76706C24.0951 8.76706 39.9568 8.76706 55.8876 8.76706Z" fill="#F2633F"/>
<path d="M26.1497 25.547C27.0837 26.4628 27.9832 27.3276 28.8999 28.2094C29.0556 28.3621 29.2113 28.4977 29.3497 28.6673C29.6956 29.0913 29.7302 29.5322 29.3324 29.9222C28.9345 30.3122 28.4502 30.2614 28.0697 29.9052C27.3605 29.2439 26.6859 28.5656 26.0113 27.8872C25.4578 27.3446 24.9043 26.8189 24.368 26.2593C23.901 25.7675 23.8664 25.3266 24.3335 24.8687C25.5616 23.6477 26.7897 22.4268 28.0351 21.2397C28.4675 20.8158 29.0037 20.8327 29.367 21.2058C29.7129 21.5619 29.6956 22.1046 29.2805 22.5116C28.2599 23.5121 27.2394 24.4956 26.1497 25.547Z" fill="#F2633F"/>
<path d="M38.2752 25.53C37.2373 24.5295 36.2514 23.5799 35.2655 22.6302C34.7292 22.1215 34.66 21.5788 35.0579 21.1888C35.473 20.7818 35.9746 20.8327 36.5282 21.3584C37.6698 22.4776 38.8287 23.5968 39.9703 24.7161C40.5757 25.3266 40.5757 25.7335 39.9703 26.344C38.8114 27.4802 37.6698 28.6334 36.4936 29.7526C35.9919 30.2444 35.473 30.2783 35.0752 29.9052C34.6946 29.5321 34.7465 28.9725 35.2136 28.5147C36.1995 27.5311 37.2027 26.5814 38.2752 25.53Z" fill="#F2633F"/>
<path d="M30.4393 29.9898C30.7507 28.3788 31.0793 26.683 31.408 24.9703C31.6502 23.6815 31.9096 22.4096 32.1691 21.1208C32.1864 21.036 32.2037 20.9512 32.221 20.8664C32.3766 20.239 32.7745 19.9168 33.2934 20.0185C33.8296 20.1203 34.1064 20.5273 33.9853 21.1717C33.6221 23.0879 33.2588 24.9872 32.8783 26.8865C32.688 27.904 32.4804 28.9215 32.2729 29.939C32.2383 30.0916 32.221 30.2272 32.1691 30.3629C32.0134 30.8547 31.6502 31.0751 31.1312 31.0243C30.6642 30.9903 30.4048 30.6003 30.4393 29.9898Z" fill="#F2633F"/>
<line x1="23" y1="62" x2="42" y2="62" stroke="#F2633F" stroke-width="2" stroke-linecap="round"/>
</svg>
