<svg width="70" height="74" viewBox="0 0 70 74" fill="none" xmlns="http://www.w3.org/2000/svg">
<path d="M25 67.7109H45" stroke="#F2633F" stroke-width="2" stroke-linecap="round" stroke-linejoin="round"/>
<path d="M35 59.7109V45.7109" stroke="#F2633F" stroke-width="2" stroke-linecap="round" stroke-linejoin="round"/>
<path d="M27 37.7109L35 45.7109L43 37.7109" stroke="#F2633F" stroke-width="2" stroke-linecap="round" stroke-linejoin="round"/>
<path d="M22.6752 51.4609C20.2942 49.6096 18.3658 47.2406 17.036 44.5334C15.7063 41.8263 15.0101 38.852 15.0002 35.8359C14.9502 24.9859 23.6752 15.9609 34.5252 15.7109C38.7244 15.6114 42.8483 16.8365 46.3121 19.2124C49.7759 21.5883 52.4038 24.9944 53.823 28.9477C55.2422 32.901 55.3807 37.2009 54.2189 41.2373C53.0571 45.2738 50.6539 48.842 47.3502 51.4359C46.6204 52 46.0293 52.7236 45.622 53.5512C45.2147 54.3788 45.002 55.2885 45.0002 56.2109V57.7109C45.0002 58.2414 44.7895 58.7501 44.4144 59.1252C44.0394 59.5002 43.5306 59.7109 43.0002 59.7109H27.0002C26.4698 59.7109 25.9611 59.5002 25.586 59.1252C25.2109 58.7501 25.0002 58.2414 25.0002 57.7109V56.2109C24.994 55.2955 24.7817 54.3932 24.3792 53.5709C23.9768 52.7486 23.3944 52.0275 22.6752 51.4609V51.4609Z" stroke="#F2633F" stroke-width="2" stroke-linecap="round" stroke-linejoin="round"/>
<path d="M35 7.78237V1.71094" stroke="#F2633F" stroke-width="2" stroke-linecap="round" stroke-linejoin="round"/>
<path d="M15.2374 15.9485L10.957 11.6682" stroke="#F2633F" stroke-width="2" stroke-linecap="round" stroke-linejoin="round"/>
<path d="M7.07143 35.7109H1" stroke="#F2633F" stroke-width="2" stroke-linecap="round" stroke-linejoin="round"/>
<path d="M62.9287 35.7109H69.0001" stroke="#F2633F" stroke-width="2" stroke-linecap="round" stroke-linejoin="round"/>
<path d="M54.7627 15.9485L59.043 11.6682" stroke="#F2633F" stroke-width="2" stroke-linecap="round" stroke-linejoin="round"/>
</svg>
