<svg version="1.1" id="katman_1" xmlns="http://www.w3.org/2000/svg" xmlns:xlink="http://www.w3.org/1999/xlink" x="0px" y="0px"	 viewBox="0 0 860.8 336.8" style="enable-background:new 0 0 860.8 336.8;" xml:space="preserve"><path class="st0" d="M336.8,91.9h33.5v133.9h33.5V58.4h-33.5C351.9,58.4,336.8,73.4,336.8,91.9z"/><path class="st0" d="M437.2,225.7h33.5v-66.9c0-18.4-15.1-33.5-33.5-33.5V225.7z"/><path class="st0" d="M504.2,125.3v100.4h33.5v-66.9h33.5v33.5c0,18.4,15.1,33.5,33.5,33.5v-67c0-18.4-15.1-33.5-33.5-33.5H504.2z"/><path class="st0" d="M805.4,125.3h-33.5V91.8c0-18.4-15.1-33.5-33.5-33.5v133.9h-66.9v-33.4H705v-33.5h-33.5	c-18.4,0-33.5,15.1-33.5,33.5v33.5c0,18.4,15.1,33.5,33.5,33.5h100.4v-67h33.5v33.5c0,18.4,15.1,33.5,33.5,33.5v-67	C838.9,140.4,823.8,125.3,805.4,125.3z"/><path class="st0" d="M437.2,91.9h33.5c0-18.4-15.1-33.5-33.5-33.5V91.9z"/><path class="st0" d="M384.1,282.3h-13.9v-22.7h13.5v3.7h-9.4v5.6h8.4v3.7h-8.4v5.9h9.8V282.3z"/><path class="st0" d="M445,259.6h4.8l-7.9,11.1l8.2,11.6h-4.8l-6.1-8.5l-6,8.5h-4.8l8.2-11.6l-7.8-11.1h4.8l5.7,8.2L445,259.6z"/><path class="st0" d="M510.4,277.1l1.6,3c-0.7,0.8-1.8,1.4-3.2,1.8c-1.4,0.5-2.8,0.7-4.3,0.7c-3.6,0-6.5-1.1-8.7-3.2s-3.3-5-3.3-8.5	c0-3.4,1.1-6.2,3.2-8.4c2.1-2.2,5-3.3,8.8-3.3c3,0,5.4,0.8,7.1,2.3l-1.8,3c-1.6-1-3.3-1.5-5.3-1.5c-2.2,0-4.1,0.7-5.5,2.2	c-1.4,1.4-2.1,3.4-2.1,5.8s0.7,4.3,2.2,5.8s3.5,2.2,5.8,2.2C506.9,278.9,508.8,278.3,510.4,277.1z"/><path class="st0" d="M576.8,282.3h-4.1v-9.7H562v9.7h-4.1v-22.7h4.1v9.3h10.7v-9.3h4.1L576.8,282.3L576.8,282.3z"/><path class="st0" d="M626.2,282.3h-4.1l9.9-22.8h3.6l9.9,22.8h-4.4l-2.4-5.8h-10L626.2,282.3z M637,272.8l-3.4-8.1l-3.4,8.1H637z"/><path class="st0" d="M710.7,259.6v22.7h-3.3l-12.9-15.7v15.7h-3.8v-22.7h3.3l12.9,15.8v-15.8H710.7z"/><path class="st0" d="M774.3,273.8h-5.7v-3.7h9.5v9.4c-1,1-2.3,1.8-4,2.3c-1.7,0.6-3.3,0.8-4.7,0.8c-3.8,0-6.8-1.1-9-3.2	s-3.2-4.9-3.2-8.5c0-3.3,1.1-6.1,3.2-8.3c2.1-2.2,5-3.4,8.5-3.4c3,0,5.5,0.8,7.5,2.3l-1.7,3.2c-0.6-0.5-1.4-1-2.3-1.3	c-1-0.3-1.9-0.5-3-0.5c-2.3,0-4.2,0.7-5.7,2.1c-1.4,1.4-2.2,3.4-2.2,5.8s0.7,4.3,2.2,5.8c1.4,1.4,3.3,2.2,5.8,2.2	c0.8,0,1.8-0.2,2.7-0.5c1-0.3,1.7-0.7,2.1-1.1L774.3,273.8L774.3,273.8z"/><path class="st0" d="M838.9,282.3H825v-22.7h13.5v3.7h-9.4v5.6h8.4v3.7h-8.4v5.9h9.8L838.9,282.3L838.9,282.3z"/><g>	<path class="st0" d="M235.2,65.3c0,0,12.2,0.5,24.9,2c-28.6-22.5-55.6-29-77.6-29c-30.3,0-50.8,12.4-52,13.2l9.5-15.1		c0,0-38.1-3.7-51.5,36.6c-3.4-8.5-6.6-21-6.6-21S62.1,69.3,71.4,98.1c-22.7-8.3-55.2-19.8-56.4-20c-1.7-0.2-2.2,0.5-2.2,0.5		s-0.5,0.7,1,2c2.7,2.2,53.9,40,65.2,47.4c-2.4,8.8-2.4,12.9,0,17.1c3.4,5.6,3.7,8.5,3.2,12.7c-0.5,4.1-4.9,40-5.9,44.4		s-11.2,20-10.7,24.7c0.5,4.6,6.8,24.4,12.4,26.6c4.1,1.5,14.4,4.6,21.2,4.6c2.4,0,4.6-0.5,5.6-1.5c4.1-3.7,5.4-4.4,8.3-4.4		c0.2,0,0.5,0,0.7,0c1.2,0,2.7,0.2,4.4,0.2c3.9,0,9-0.7,12.7-4.1c5.4-5.4,14.6-12.7,17.6-16.1c3.7-4.6,5.6-11,4.6-17.3		c-0.7-5.9,2.4-11,6.1-16.1c4.6-6.1,13.2-17.1,13.2-17.1c16.8,12.7,27.3,32,27.3,53.5c0,38.1-33.2,68.8-74.2,68.8		c-6.3,0-12.4-0.7-18.5-2.2c18.8,6.6,34.7,8.8,47.6,8.8c27.6,0,42.2-10,42.2-10s-5.1,6.6-13.4,14.2c0.2,0,0.2,0,0.2,0		c45.6-6.3,67.9-43.9,67.9-43.9s-1.7,12.2-3.9,20.5c60.8-45.6,50.5-102.8,50.3-104.7c0.5,0.7,6.6,8.1,9.8,12		C317.5,97.8,235.2,65.3,235.2,65.3z M141.7,225.9c-1,1.2-5.1,4.9-8.1,7.6c-2.9,2.7-6.1,5.4-8.5,7.8c-1,1-2.9,1.5-5.9,1.5		c-1,0-2,0-2.7,0c-0.5,0-1,0-1.5,0s-0.7,0-1,0c-0.7,0-1.5,0-2.2,0c3.7-4.9,14.4-16.1,18.1-18.5c4.4-2.9,6.6-5.9,3.9-11		c-2.7-5.1-9.8-3.9-9.8-3.9s4.1-1.7,7.8-1.7c-4.6-1.2-10.5,0-13.2,2.7c-2.9,2.7-2.4,12.2-3.7,18.3c-1.2,6.3-5.4,9.5-11.7,15.4		c-3.4,3.2-5.9,4.1-7.8,4.1c-4.1-0.7-9-2-12.4-3.2c-2.4-3.2-6.1-13.7-7.1-18.1c0.7-2.4,3.7-7.6,5.1-10.5c2.9-5.6,4.6-8.8,5.1-11.7		c1-4.1,4.1-29.8,5.4-40.5c3.2,4.1,7.6,11,6.6,15.4c7.1-10,2-19.8-0.5-23.7c-2.2-3.9-5.1-11.7-2.7-20s11.2-31.2,11.2-31.2		s2.9,5.1,7.1,4.1c4.1-1,37.6-51.3,37.6-51.3s9,19.8-0.5,34.2c-9.8,14.4-19.3,17.1-19.3,17.1s13.4,2.4,25.9-6.6		c5.1,12,10,24.4,10.3,26.1c-0.7,1.7-10.5,25.1-11.5,26.6c-0.5,0.5-3.9,1.5-6.3,2c-4.1,1.2-6.6,2-7.6,2.7		c-1.7,1.5-9.5,22.9-13.2,33.4c-4.4,1.2-8.8,3.7-12,8.5c1.7-1.2,7.1-2,11-2.4c3.4-0.2,13.9,5.4,16.6,15.9c0,0.2,0,0.2,0,0.5		C144.9,219.4,143.7,223,141.7,225.9z M118.8,228.9c2.2-3.2,2-8.5,2.2-10.3c0.2-1.7,0.7-4.9,2.7-5.4s6.6,0.2,6.6,3.7		c0,3.2-3.4,3.9-5.9,6.1C122.7,224.7,119.3,228.4,118.8,228.9z M216.2,182.3c2.4-12.4,2.7-23.2,2-32c9.5,12.7,15.4,28.1,17.1,43.9		c0.2,2,2.2,3.9,4.1,5.9c1.7,1.5,3.7,3.4,3.7,4.6c0,5.6-0.5,11.2-1.5,16.8c-0.2,0.7-2.4,2-4.1,2.9c-2.4,1.2-4.6,2.4-5.1,4.4		c-5.4,18.8-16.8,35.4-32.2,47.1C222.8,252.3,233.8,213.3,216.2,182.3z M200.8,278.2c15.9-12.2,28.1-29.3,33.4-48.6		c0.2-0.7,2.4-2,3.9-2.9c2.4-1.2,4.9-2.7,5.4-4.6c1-5.6,1.5-11.5,1.5-17.3c0-2.2-2.2-4.4-4.4-6.6c-1.2-1.5-3.2-3.2-3.2-4.4		c-2-17.8-9-34.7-20-48.6c-4.9-29.3-24.4-38.3-24.9-38.6c0.5,0.7,13.2,19,4.4,40.5c-9,21.7-32.2,18.3-34.2,18.5		c-2,0-9.5,9.8-19,27.8c-1.2-0.5-6.3-1.7-12.2-0.7c4.4-12.2,11-29.5,12.2-31c0.5-0.5,4.1-1.5,6.6-2.2c4.6-1.2,6.8-2,7.6-2.9		c0.5-0.7,2.9-6.3,5.4-12.2c2.2,0,7.8-0.5,8.3-0.7c0.5-0.5,5.1-12.4,5.1-13.9c0-1.2-9.5-24.9-13.2-33.9c1.7-2,3.4-4.4,5.1-7.1		c50,5.4,89.1,47.8,89.1,99.3C257.7,227.7,234.5,262.1,200.8,278.2z"/>	<path class="st0" d="M135.9,146.4c4.6-5.4,2.2-15.4-6.3-17.1c2.2-5.1,5.4-15.4,5.4-15.4s-24.9,39.1-27.1,39.8		c-2.2,0.7-4.4-7.8-4.4-7.8c-4.6,17.8,7.8,20.3,9.3,14.6C119.5,158.8,131.2,151.5,135.9,146.4z"/></g></svg>