<?xml version="1.0" encoding="utf-8"?><!-- Generator: Adobe Illustrator 25.0.0, SVG Export Plug-In . SVG Version: 6.00 Build 0)  --><svg version="1.1" id="katman_1" xmlns="http://www.w3.org/2000/svg" xmlns:xlink="http://www.w3.org/1999/xlink" x="0px" y="0px"	 viewBox="0 0 1349.4 201.5" style="enable-background:new 0 0 1349.4 201.5;" xml:space="preserve"><style type="text/css">	.st0{fill-rule:evenodd;clip-rule:evenodd;fill:#8E8E8E;}	.st1{fill-rule:evenodd;clip-rule:evenodd;fill:#FFFFFF;}</style><g id="header" transform="translate(0.000000, -42.000000)">	<g id="img_ackee_logo_header" transform="translate(-0.000000, 42.000000)">		<polygon id="Fill-1" class="st0" points="4.4,200 636.8,200 636.8,2.4 4.4,2.4 		"/>		<path id="Fill-2" class="st1" d="M343.5,158.6l-29.8-36H302v36h-19.9V27.9H302v73.3h11.7l29.8-36h25.9l-38.7,46.7l38.7,46.7H343.5			z M107.7,81.5c-16.7,0-30.3,13.7-30.3,30.4c0,16.8,13.6,30.4,30.3,30.4s30.3-13.7,30.3-30.4C138,95.1,124.4,81.5,107.7,81.5			L107.7,81.5z M107.7,162.3c-27.7,0-50.2-22.6-50.2-50.4c0-27.8,22.5-50.4,50.2-50.4c10.6,0,20.7,3.3,29.3,9.5l1,0.7v-6.5h19.9			v93.4H138v-6.5l-1,0.7C128.4,159,118.3,162.3,107.7,162.3L107.7,162.3z M225.1,162.3c-27.7,0-50.2-22.6-50.2-50.4			c0-27.8,22.5-50.4,50.2-50.4c16.9,0,32.5,8.4,41.8,22.5l-18,9c-5.8-7.4-14.4-11.6-23.8-11.6c-16.7,0-30.3,13.7-30.3,30.4			c0,16.8,13.6,30.4,30.3,30.4c9.4,0,18-4.2,23.8-11.6l18,9C257.6,153.9,242,162.3,225.1,162.3L225.1,162.3z M422.5,81.5			c-12.4,0-23,7.7-27.1,19.6l-0.3,0.8h54.8l-0.3-0.8C445.6,89.2,434.9,81.5,422.5,81.5L422.5,81.5z M424,162.3			c-27.7,0-50.2-22.6-50.2-50.4c0-28.3,21.4-50.4,48.7-50.4s48.7,22.1,48.7,50.4v10h-75.9l0.3,0.8c4.5,11.7,15.9,19.6,28.3,19.6			c8.3,0,16-3.2,21.7-9.2l17.9,9.8C454,155.3,439.6,162.3,424,162.3L424,162.3z M535.1,81.5c-12.4,0-23,7.7-27.1,19.6l-0.3,0.8h54.7			l-0.3-0.8C558.2,89.2,547.5,81.5,535.1,81.5L535.1,81.5z M536.6,162.3c-27.7,0-50.2-22.6-50.2-50.4c0-28.3,21.4-50.4,48.7-50.4			c27.3,0,48.7,22.1,48.7,50.4v10h-75.9l0.3,0.8c4.5,11.7,15.8,19.6,28.3,19.6c8.3,0,16-3.2,21.7-9.2l17.9,9.8			C566.6,155.3,552.2,162.3,536.6,162.3L536.6,162.3z"/>		<path id="Fill-4" class="st0" d="M1115.3,81.4c-6.5,0-12.7,1.8-17.9,5.1v-28h-14.3v55.1l0,0v7.2v27.3h14.3v-34.6			c0-10.4,7.4-17.7,17.9-17.7s17.9,7.3,17.9,17.7v34.6h14.3v-34.6c0-9.2-3.4-17.5-9.6-23.4C1132,84.5,1124,81.4,1115.3,81.4			L1115.3,81.4z M1042.9,95.1c6.4,0,12.3,2.9,16.2,7.9l12.3-6.2c-6.4-9.7-17-15.5-28.5-15.5c-18.9,0-34.3,15.5-34.3,34.6			s15.4,34.6,34.3,34.6c11.5,0,22.2-5.8,28.5-15.5l-12.3-6.2c-3.9,5-9.8,7.9-16.2,7.9c-11.4,0-20.7-9.4-20.7-20.9			C1022.2,104.4,1031.5,95.1,1042.9,95.1L1042.9,95.1z M1008.1,84.1h-17.7l-20.3,24.7h-8V58.5h-13.6v89.6h13.6v-24.7h8l20.3,24.7			h17.7l-26.4-32L1008.1,84.1z M1335.4,90c-5.9-5.6-13.9-8.7-22.6-8.7c-6.6,0-12.7,1.8-17.9,5.1v-2.5h-14.3v29.6l0,0v7.2v27.4h14.3			v-34.6c0-10.4,7.4-17.7,17.9-17.7s17.9,7.3,17.9,17.7v34.6h14.3v-34.6C1345,104.2,1341.6,95.9,1335.4,90L1335.4,90z M1193.2,136.9			c-11.4,0-20.7-9.4-20.7-20.9s9.3-20.9,20.7-20.9c11.4,0,20.7,9.4,20.7,20.9C1213.9,127.5,1204.6,136.9,1193.2,136.9L1193.2,136.9z			 M1213.9,88.5l-0.7-0.5c-5.9-4.3-12.8-6.6-20-6.6c-18.9,0-34.3,15.5-34.3,34.6s15.4,34.6,34.3,34.6c7.2,0,14.2-2.3,20-6.6l0.7-0.5			v4.5h13.6V83.9h-13.6V88.5z M1246.9,148h13.7V83.9h-13.7V148z M1253.7,59.1c-4.4,0-7.9,3.6-7.9,8s3.5,8,7.9,8s7.9-3.6,7.9-8			S1258.1,59.1,1253.7,59.1L1253.7,59.1z M770.6,148.1h13.7V58.4h-13.7V148.1z M907.9,95.1c6.4,0,12.3,2.9,16.2,7.9l12.3-6.2			c-6.4-9.7-17-15.5-28.5-15.5c-18.9,0-34.3,15.5-34.3,34.6s15.4,34.6,34.3,34.6c11.5,0,22.2-5.8,28.5-15.5l-12.3-6.2			c-3.9,5-9.8,7.9-16.2,7.9c-11.4,0-20.7-9.4-20.7-20.9C887.2,104.4,896.4,95.1,907.9,95.1L907.9,95.1z M723.8,136.3			c-11.1,0-20.1-9.1-20.1-20.2c0-11.2,9-20.2,20.1-20.2s20.1,9.1,20.1,20.2C743.9,127.2,734.9,136.3,723.8,136.3L723.8,136.3z			 M723.8,81.4c-7.5,0-14.4,2.4-20.1,6.6V58.5h-14.3v89.6h14.3v-4c5.6,4.1,12.6,6.6,20.1,6.6c18.9,0,34.3-15.5,34.3-34.6			C758.2,96.9,742.8,81.4,723.8,81.4L723.8,81.4z M830.2,136.3c-11.1,0-20.1-9.1-20.1-20.2c0-11.2,9-20.2,20.1-20.2			s20.1,9.1,20.1,20.2C850.2,127.2,841.2,136.3,830.2,136.3L830.2,136.3z M830.2,81.4c-18.9,0-34.3,15.5-34.3,34.6			s15.4,34.6,34.3,34.6s34.3-15.5,34.3-34.6S849.1,81.4,830.2,81.4L830.2,81.4z"/>	</g></g></svg>