<svg xmlns="http://www.w3.org/2000/svg" viewBox="0 0 196 29"><defs><style>.cls-1{fill:#8e8e8e;}</style></defs><g id="Слой_2" data-name="Слой 2"><g id="Слой_1-2" data-name="Слой 1"><path class="cls-1" d="M60.65,3.53a5,5,0,0,0-2.78.84A4.91,4.91,0,0,0,56,6.62L48.58,25.08h4.25l6.87-17a1.12,1.12,0,0,1,.38-.46,1,1,0,0,1,.57-.17,1.06,1.06,0,0,1,.57.17,1.1,1.1,0,0,1,.37.46l6.87,17h4.25L65.26,6.62a4.86,4.86,0,0,0-1.82-2.24A4.93,4.93,0,0,0,60.65,3.53Z"/><path class="cls-1" d="M110,3.53a5,5,0,0,0-4.61,3.09L97.92,25.08h4.25l6.87-17a1.1,1.1,0,0,1,.37-.46,1.06,1.06,0,0,1,.57-.17,1,1,0,0,1,.57.17,1.12,1.12,0,0,1,.38.46l6.87,17h4.25L114.61,6.62a4.89,4.89,0,0,0-1.82-2.25A5.06,5.06,0,0,0,110,3.53Z"/><path class="cls-1" d="M183.92,3.53a5,5,0,0,0-2.77.85,4.93,4.93,0,0,0-1.82,2.24l-7.48,18.46h4.25l6.87-17a1.05,1.05,0,0,1,.38-.46,1,1,0,0,1,.56-.17,1.06,1.06,0,0,1,.58.17,1.18,1.18,0,0,1,.37.46l6.87,17H196L188.53,6.62a4.94,4.94,0,0,0-1.82-2.25A5,5,0,0,0,183.92,3.53Z"/><path class="cls-1" d="M86.37,21a1,1,0,0,1-.37.46,1.06,1.06,0,0,1-.57.17,1,1,0,0,1-.57-.17,1.12,1.12,0,0,1-.38-.46l-6.88-17H73.35l7.47,18.45a5,5,0,0,0,1.82,2.25,5,5,0,0,0,2.79.84A5,5,0,0,0,90,22.39L97.5,3.94H93.25Z"/><path class="cls-1" d="M148.6,9.44V19.61a5.44,5.44,0,0,0,.43,2.1,5.58,5.58,0,0,0,5.14,3.39H165.8V21.37H154.17a1.8,1.8,0,0,1-1.26-.52,1.73,1.73,0,0,1-.53-1.24V16.19H165.8V12.46H152.38v-3a1.74,1.74,0,0,1,.53-1.25,1.8,1.8,0,0,1,1.26-.52H165.8V3.94H154.17a5.72,5.72,0,0,0-2.13.41,5.64,5.64,0,0,0-1.81,1.19,5.45,5.45,0,0,0-1.63,3.9Z"/><path class="cls-1" d="M34.09,7.46l-6.87,17a1,1,0,0,1-.37.46,1.06,1.06,0,0,1-.57.17,1,1,0,0,1-1-.63l-1.18-2.91L16.69,3.09A5,5,0,0,0,9.29.85,4.86,4.86,0,0,0,7.47,3.09L0,21.55H4.25l6.87-17a1,1,0,0,1,.38-.46,1,1,0,0,1,.57-.17,1.06,1.06,0,0,1,.57.17.93.93,0,0,1,.37.46l1.18,2.92,7.47,18.45a4.92,4.92,0,0,0,1.83,2.25,5,5,0,0,0,5.56,0,4.86,4.86,0,0,0,1.83-2.25L38.34,7.46Z"/><path class="cls-1" d="M143,3.94h-18.9V7.67h7.57V25.08h3.77V7.67H143Z"/></g></g></svg>