<?xml version="1.0" encoding="utf-8"?>
<!-- Generator: Adobe Illustrator 25.0.0, SVG Export Plug-In . SVG Version: 6.00 Build 0)  -->
<svg version="1.1" id="Слой_1" xmlns="http://www.w3.org/2000/svg" xmlns:xlink="http://www.w3.org/1999/xlink" x="0px" y="0px"
	 viewBox="0 0 160 35" style="enable-background:new 0 0 160 35;" xml:space="preserve">
<style type="text/css">
	.st0{fill-rule:evenodd;clip-rule:evenodd;fill:#8E8E8E;}
</style>
<path class="st0" d="M20.1,2.2c0.2,0.1,0.5,0.1,0.8,0.2c0.2,0,0.3,0.2,0.3,0.3c0.1,0.3,0.2,0.7,0.3,1.1c0.1,0.2,0,0.3-0.2,0.2
	c-0.2-0.1-0.5-0.1-0.8-0.2c-0.2,0-0.2-0.2-0.3-0.3c-0.1-0.3-0.2-0.8-0.3-1.1C19.9,2.3,20,2.1,20.1,2.2z"/>
<path class="st0" d="M21,0.4c0.2,0.1,0.6,0.2,0.8,0.3c0.2,0,0.3,0.2,0.3,0.4c0.1,0.2,0.2,0.6,0.3,0.9c0.1,0.2,0,0.2-0.2,0.2
	c-0.2-0.1-0.5-0.2-0.8-0.2c-0.2,0-0.3-0.2-0.3-0.4c-0.1-0.3-0.2-0.7-0.3-1.1C20.8,0.5,20.8,0.3,21,0.4z"/>
<path class="st0" d="M22.6,0.8c0.2,0.1,0.6,0.2,0.8,0.3c0.2,0.1,0.3,0.2,0.3,0.4c0.2,0.3,0.2,0.7,0.4,1c0.1,0.2,0,0.2-0.2,0.2
	c-0.2-0.1-0.6-0.2-0.8-0.2c-0.2,0-0.3-0.2-0.3-0.4c-0.1-0.3-0.2-0.7-0.3-1C22.4,0.9,22.5,0.8,22.6,0.8z"/>
<path class="st0" d="M27.6,2.7c0.2,0.1,0.6,0.2,0.8,0.4c0.2,0.1,0.3,0.2,0.3,0.4c0.1,0.3,0.2,0.6,0.3,0.9c0.1,0.2,0,0.2-0.2,0.2
	c-0.2-0.2-0.6-0.3-0.8-0.3c-0.2-0.1-0.3-0.2-0.3-0.4c-0.1-0.3-0.2-0.6-0.3-0.9C27.4,2.7,27.5,2.7,27.6,2.7z"/>
<path class="st0" d="M21.7,2.5c0.2,0.1,0.5,0.1,0.8,0.2c0.2,0,0.3,0.2,0.3,0.4c0.1,0.3,0.2,0.7,0.3,1c0.1,0.2,0,0.2-0.2,0.2
	c-0.2-0.1-0.5-0.2-0.8-0.2c-0.2,0-0.2-0.2-0.3-0.3c-0.1-0.3-0.2-0.7-0.3-1.1C21.5,2.6,21.6,2.4,21.7,2.5z"/>
<path class="st0" d="M23.2,2.9c0.2,0.1,0.6,0.2,0.8,0.2c0.2,0,0.3,0.2,0.3,0.3c0.1,0.3,0.2,0.7,0.3,1c0.1,0.2,0,0.2-0.2,0.2
	c-0.2-0.1-0.6-0.2-0.8-0.2c-0.2,0-0.3-0.2-0.3-0.3c-0.1-0.3-0.2-0.7-0.3-1C23.1,2.9,23.2,2.8,23.2,2.9z"/>
<path class="st0" d="M24.9,3.3c0.2,0.1,0.6,0.2,0.8,0.2c0.2,0.1,0.3,0.2,0.3,0.4c0.1,0.3,0.2,0.7,0.3,0.9c0.1,0.2,0,0.2-0.2,0.2
	C26,5,25.7,4.9,25.4,4.8c-0.2,0-0.3-0.2-0.3-0.3c-0.1-0.3-0.2-0.7-0.3-1C24.7,3.4,24.7,3.3,24.9,3.3z"/>
<path class="st0" d="M26.6,3.9c0.2,0.1,0.6,0.2,0.8,0.3c0.2,0.1,0.3,0.2,0.3,0.4c0.1,0.3,0.2,0.6,0.3,0.9c0.1,0.2,0,0.2-0.2,0.2
	c-0.2-0.1-0.6-0.2-0.8-0.3c-0.2-0.1-0.3-0.2-0.3-0.4c-0.1-0.3-0.2-0.7-0.3-0.9C26.3,3.9,26.4,3.8,26.6,3.9z"/>
<path class="st0" d="M28.3,4.6c0.2,0.1,0.6,0.2,0.8,0.3c0.2,0.1,0.3,0.2,0.3,0.4c0.1,0.3,0.2,0.6,0.3,0.9c0.1,0.2,0,0.2-0.2,0.2
	c-0.2-0.2-0.6-0.2-0.8-0.3c-0.2-0.1-0.3-0.2-0.3-0.4c-0.1-0.3-0.2-0.6-0.3-0.9C28,4.6,28.1,4.5,28.3,4.6z"/>
<path class="st0" d="M25.6,5.3c0.2,0.1,0.6,0.2,0.8,0.2c0.2,0.1,0.3,0.2,0.3,0.3c0.1,0.3,0.2,0.7,0.3,0.9c0.1,0.2,0,0.2-0.2,0.2
	c-0.2-0.1-0.6-0.2-0.8-0.2c-0.2,0-0.3-0.2-0.3-0.3c-0.1-0.3-0.2-0.7-0.3-1C25.3,5.3,25.4,5.3,25.6,5.3z"/>
<path class="st0" d="M27.2,5.8C27.4,5.9,27.8,6,28,6.2c0.2,0.1,0.3,0.2,0.3,0.4c0.1,0.3,0.2,0.6,0.3,0.9c0.1,0.2,0,0.2-0.2,0.2
	c-0.2-0.1-0.6-0.2-0.8-0.2c-0.2-0.1-0.3-0.2-0.3-0.3c-0.1-0.3-0.2-0.7-0.3-0.9C27,5.8,27.1,5.8,27.2,5.8z"/>
<path class="st0" d="M24.7,6.9C24.9,7,25.2,7,25.5,7.1c0.2,0,0.3,0.2,0.3,0.3c0.1,0.3,0.2,0.7,0.3,1c0.1,0.2,0,0.2-0.2,0.2
	c-0.2-0.1-0.5-0.1-0.8-0.2c-0.2,0-0.2-0.2-0.3-0.3c-0.1-0.3-0.2-0.7-0.3-1C24.4,7,24.5,6.9,24.7,6.9z"/>
<path class="st0" d="M26.3,7.2c0.2,0.1,0.6,0.2,0.8,0.2c0.2,0,0.3,0.2,0.3,0.3c0.1,0.3,0.2,0.7,0.3,0.9c0.1,0.2,0,0.2-0.2,0.2
	c-0.2-0.1-0.6-0.2-0.8-0.2c-0.2,0-0.3-0.2-0.3-0.3c-0.1-0.3-0.2-0.7-0.3-1C26,7.3,26.1,7.2,26.3,7.2z"/>
<path class="st0" d="M27.8,7.7c0.2,0.1,0.6,0.2,0.8,0.2C28.8,8.1,29,8.2,29,8.4c0.1,0.3,0.3,0.6,0.3,0.9c0.1,0.2,0,0.2-0.2,0.2
	c-0.2-0.1-0.6-0.2-0.8-0.2C28.2,9.2,28,9.1,28,8.9c-0.1-0.3-0.2-0.7-0.3-0.9C27.7,7.7,27.7,7.7,27.8,7.7z"/>
<path class="st0" d="M29.5,8.3c0.2,0.1,0.6,0.2,0.8,0.3c0.2,0.1,0.3,0.2,0.3,0.4c0.1,0.3,0.2,0.6,0.3,0.9c0.1,0.2,0,0.2-0.2,0.2
	c-0.2-0.1-0.6-0.2-0.8-0.3c-0.2-0.1-0.3-0.2-0.3-0.4c-0.1-0.3-0.2-0.6-0.3-0.9C29.3,8.3,29.3,8.3,29.5,8.3z"/>
<path class="st0" d="M29.5,3.6c0.3,0.2,0.6,0.3,0.9,0.5c0.2,0.1,0.3,0.3,0.4,0.4c0.1,0.3,0.2,0.6,0.3,0.9c0.1,0.2,0,0.2-0.2,0.1
	c-0.4-0.2-0.8-0.3-1-0.5c-0.2-0.1-0.3-0.2-0.3-0.4c-0.1-0.3-0.2-0.6-0.3-0.9C29.3,3.6,29.3,3.5,29.5,3.6z"/>
<path class="st0" d="M30.1,5.4c0.3,0.2,0.6,0.3,0.9,0.4c0.2,0.1,0.3,0.3,0.4,0.4c0.1,0.3,0.2,0.6,0.3,0.9c0.1,0.2,0,0.2-0.2,0.1
	c-0.3-0.2-0.6-0.3-0.9-0.4c-0.2-0.1-0.3-0.2-0.3-0.4c-0.2-0.2-0.3-0.6-0.4-0.8C29.8,5.4,29.9,5.3,30.1,5.4z"/>
<path class="st0" d="M30.7,7.3c0.3,0.2,0.6,0.2,0.9,0.4c0.2,0.1,0.3,0.2,0.4,0.4c0.1,0.3,0.2,0.6,0.3,0.9c0.1,0.2,0,0.2-0.2,0.1
	c-0.3-0.2-0.6-0.3-0.9-0.4c-0.2-0.1-0.3-0.2-0.3-0.4C30.8,7.9,30.8,7.7,30.7,7.3C30.5,7.3,30.6,7.2,30.7,7.3z"/>
<path class="st0" d="M31.3,9.1c0.3,0.2,0.6,0.2,0.9,0.4c0.2,0.1,0.3,0.2,0.4,0.4c0.1,0.3,0.2,0.6,0.3,0.9c0.1,0.2,0,0.2-0.2,0.1
	c-0.3-0.2-0.6-0.2-0.9-0.4c-0.2-0.1-0.3-0.2-0.3-0.4C31.5,9.8,31.4,9.5,31.3,9.1C31.1,9.1,31.2,9,31.3,9.1z"/>
<path class="st0" d="M31.3,4.6c0.3,0.2,0.7,0.4,0.9,0.6c0.2,0.1,0.3,0.3,0.4,0.5c0.1,0.3,0.2,0.6,0.3,0.9c0.1,0.2,0,0.2-0.2,0.1
	c-0.3-0.2-0.7-0.4-0.9-0.6c-0.2-0.1-0.3-0.3-0.4-0.4c-0.1-0.3-0.2-0.6-0.3-0.9C31,4.5,31.1,4.5,31.3,4.6z"/>
<path class="st0" d="M33.2,5.8c0.3,0.2,0.7,0.6,1,0.8c0.2,0.2,0.3,0.4,0.4,0.5c0.1,0.2,0.2,0.6,0.3,0.9c0.1,0.2-0.1,0.2-0.2,0
	c-0.3-0.3-0.7-0.6-1-0.8c-0.2-0.2-0.3-0.3-0.4-0.5c-0.1-0.3-0.2-0.6-0.3-0.9C32.9,5.8,33,5.7,33.2,5.8z"/>
<path class="st0" d="M35.2,7.7c0.4,0.4,0.8,0.9,1.3,1.6c0.2,0.3,2.3,6.6,2.3,6.6s-1.8-5-1.9-5.2c-0.4-0.6-0.9-1.1-1.2-1.5
	c-0.2-0.2-0.3-0.4-0.4-0.6c-0.1-0.2-0.2-0.6-0.2-0.8C34.9,7.4,35.1,7.5,35.2,7.7z"/>
<path class="st0" d="M33.8,7.6c0.3,0.2,0.7,0.5,1,0.8c0.2,0.2,0.3,0.4,0.4,0.5c0.1,0.3,0.2,0.6,0.3,0.9c0.1,0.2-0.1,0.2-0.2,0
	c-0.3-0.2-0.7-0.6-1-0.8c-0.2-0.1-0.3-0.3-0.4-0.5c-0.1-0.3-0.2-0.6-0.3-0.9C33.5,7.5,33.6,7.5,33.8,7.6z"/>
<path class="st0" d="M35.8,9.4c0.4,0.4,0.8,0.9,1.2,1.5c0.2,0.2,1.8,4.9,1.8,4.9s-1.2-3.4-1.4-3.7c-0.4-0.5-0.8-1-1.2-1.3
	c-0.2-0.2-0.3-0.4-0.4-0.6c-0.1-0.3-0.2-0.6-0.2-0.8C35.5,9.2,35.7,9.3,35.8,9.4z"/>
<path class="st0" d="M32.5,8.2c0.3,0.2,0.6,0.4,0.9,0.6c0.2,0.1,0.3,0.3,0.4,0.5c0.1,0.3,0.2,0.6,0.3,0.9c0.1,0.2,0,0.2-0.2,0.1
	c-0.3-0.2-0.7-0.4-0.9-0.6c-0.2-0.1-0.3-0.2-0.3-0.4c-0.1-0.3-0.2-0.6-0.3-0.9C32.2,8.2,32.3,8.1,32.5,8.2z"/>
<path class="st0" d="M34.3,9.4c0.3,0.2,0.7,0.5,1,0.8c0.2,0.2,0.3,0.4,0.4,0.5c0.1,0.3,0.2,0.6,0.3,0.9c0.1,0.2-0.1,0.2-0.2,0
	c-0.3-0.2-0.7-0.5-1-0.8c-0.2-0.1-0.3-0.3-0.4-0.5c-0.1-0.3-0.2-0.6-0.3-0.9C34.1,9.3,34.2,9.3,34.3,9.4z"/>
<path class="st0" d="M36.4,11.2c0.4,0.3,0.8,0.8,1.2,1.3c0.2,0.2,1.3,3.3,1.3,3.3s-0.7-1.8-0.9-2c-0.4-0.5-0.8-0.9-1.2-1.2
	c-0.2-0.2-0.3-0.4-0.4-0.6c-0.1-0.2-0.2-0.6-0.2-0.8C36.1,10.9,36.2,11,36.4,11.2z"/>
<path class="st0" d="M33.1,10c0.3,0.2,0.6,0.4,0.9,0.6c0.2,0.1,0.3,0.3,0.4,0.5c0.1,0.3,0.2,0.6,0.3,0.9c0.1,0.2,0,0.2-0.2,0.1
	c-0.3-0.2-0.7-0.4-0.9-0.6c-0.2-0.1-0.3-0.2-0.3-0.4c-0.1-0.3-0.2-0.6-0.3-0.9C32.8,10,32.9,9.9,33.1,10z"/>
<path class="st0" d="M35,11.2c0.3,0.2,0.7,0.5,1,0.8c0.2,0.2,0.3,0.4,0.4,0.5c0.1,0.3,0.2,0.6,0.3,0.9c0.1,0.2-0.1,0.2-0.2,0
	c-0.3-0.2-0.7-0.5-1-0.8c-0.2-0.1-0.3-0.3-0.4-0.5c-0.1-0.3-0.2-0.6-0.3-0.9C34.7,11.2,34.8,11.1,35,11.2z"/>
<path class="st0" d="M37,12.8c0.4,0.3,0.8,0.8,1.2,1.2c0.2,0.2,0.8,1.7,0.8,1.7s-0.2-0.2-0.3-0.4c-0.4-0.4-0.8-0.8-1.2-1.2
	c-0.2-0.2-0.3-0.4-0.4-0.5c-0.1-0.2-0.2-0.6-0.2-0.8C36.7,12.7,36.8,12.7,37,12.8z"/>
<path class="st0" d="M34.7,34.6c0.2-0.2,0.5-0.4,0.8-0.7c0.1-0.1,0.1-0.2,0-0.3c-0.2-0.2-0.4-0.5-0.7-0.7c-0.1-0.1-0.2-0.1-0.3,0
	c-0.2,0.2-0.5,0.4-0.8,0.6c-0.1,0.1-0.1,0.2,0,0.2c0.2,0.2,0.4,0.5,0.7,0.8C34.6,34.7,34.7,34.7,34.7,34.6z M32.5,29.5
	c0.2-0.2,0.5-0.4,0.8-0.7c0.1-0.1,0.1-0.2,0-0.3c-0.2-0.2-0.4-0.4-0.6-0.7c-0.1-0.1-0.2-0.1-0.2,0c-0.2,0.2-0.5,0.4-0.8,0.6
	c-0.1,0.1-0.1,0.2,0,0.2c0.2,0.2,0.4,0.5,0.7,0.7C32.3,29.6,32.4,29.6,32.5,29.5z M33.8,28.2c0.2-0.2,0.4-0.5,0.7-0.7
	c0.1-0.1,0.1-0.2,0-0.3c-0.2-0.2-0.4-0.4-0.6-0.7c-0.1-0.1-0.2-0.1-0.2,0c-0.2,0.2-0.4,0.4-0.7,0.7c-0.1,0.1-0.1,0.2,0,0.2
	c0.2,0.2,0.4,0.4,0.6,0.7C33.7,28.3,33.7,28.3,33.8,28.2z M35.1,26.9c0.2-0.2,0.4-0.5,0.6-0.8c0.1-0.1,0.1-0.2,0-0.3
	c-0.2-0.2-0.3-0.4-0.6-0.6c-0.1-0.1-0.2-0.1-0.2,0c-0.2,0.2-0.4,0.5-0.7,0.8c-0.1,0.1-0.1,0.2,0,0.3c0.2,0.2,0.4,0.4,0.6,0.7
	C34.9,27.1,35,27,35.1,26.9z M36.2,25.5c0.2-0.2,0.3-0.5,0.6-0.8c0.1-0.1,0.1-0.2,0-0.3c-0.2-0.2-0.3-0.3-0.5-0.6
	c-0.1-0.1-0.2-0.1-0.2,0.1c-0.2,0.2-0.4,0.5-0.6,0.8c-0.1,0.1-0.1,0.2,0,0.3c0.2,0.2,0.3,0.4,0.6,0.6C36,25.7,36.2,25.7,36.2,25.5z
	 M37.2,24c0.2-0.2,0.3-0.6,0.5-0.9c0.1-0.1,0.1-0.2,0-0.3c-0.2-0.2-0.3-0.3-0.4-0.5c-0.1-0.1-0.2,0-0.2,0.1
	c-0.2,0.2-0.3,0.6-0.6,0.8c-0.1,0.1-0.1,0.2,0,0.3c0.2,0.2,0.3,0.3,0.5,0.6C37.1,24.2,37.2,24.1,37.2,24z M38.2,22.3
	c0.2-0.3,0.2-0.7,0.4-1c0.1-0.1,0-0.2,0-0.3c-0.2-0.2-0.2-0.2-0.4-0.4c-0.1-0.1-0.1,0-0.2,0.1c-0.2,0.3-0.3,0.6-0.5,0.9
	c-0.1,0.1-0.1,0.2,0,0.3c0.2,0.2,0.3,0.3,0.4,0.5C38,22.5,38.1,22.4,38.2,22.3z M38.8,20.4c0.1-0.3,0.2-0.8,0.2-1.2
	c0-0.2,0-0.3,0-0.3c-0.1-0.1-0.2-0.2-0.2-0.2c0,0-0.1,0.1-0.1,0.2c-0.1,0.3-0.2,0.7-0.3,1c-0.1,0.1-0.1,0.2,0,0.3
	c0.1,0.2,0.2,0.2,0.3,0.4C38.7,20.6,38.8,20.6,38.8,20.4z M35,29.5c0.2-0.2,0.4-0.5,0.7-0.8c0.1-0.1,0.1-0.2,0-0.3
	c-0.2-0.2-0.4-0.4-0.6-0.7c-0.1-0.1-0.2-0.1-0.2,0c-0.2,0.2-0.4,0.5-0.7,0.7c-0.1,0.1-0.1,0.2,0,0.3c0.2,0.2,0.4,0.4,0.6,0.7
	C34.8,29.6,34.9,29.6,35,29.5z M36.2,28.2c0.2-0.2,0.4-0.5,0.6-0.8c0.1-0.1,0.1-0.2,0-0.3c-0.2-0.2-0.4-0.4-0.6-0.6
	c-0.1-0.1-0.2-0.1-0.2,0c-0.2,0.2-0.4,0.5-0.6,0.8c-0.1,0.1-0.1,0.2,0,0.3c0.2,0.2,0.4,0.4,0.6,0.7C36,28.2,36.1,28.2,36.2,28.2z
	 M37.2,26.7c0.2-0.2,0.3-0.6,0.5-0.8c0.1-0.1,0.1-0.2,0-0.3c-0.2-0.2-0.3-0.3-0.5-0.6c-0.1-0.1-0.2,0-0.2,0.1
	c-0.2,0.2-0.3,0.6-0.6,0.8c-0.1,0.1-0.1,0.2,0,0.3c0.2,0.2,0.3,0.4,0.6,0.6C37.1,26.7,37.2,26.7,37.2,26.7z M38.2,25
	c0.2-0.3,0.3-0.6,0.4-0.9c0.1-0.1,0.1-0.2,0-0.3c-0.2-0.2-0.3-0.3-0.4-0.5c-0.1-0.1-0.2,0-0.2,0.1c-0.2,0.3-0.3,0.6-0.5,0.9
	c-0.1,0.1-0.1,0.2,0,0.3c0.2,0.2,0.3,0.3,0.5,0.6C38,25.2,38.1,25.1,38.2,25z M38.9,23.2c0.1-0.3,0.2-0.7,0.3-1.1c0-0.2,0-0.2,0-0.3
	c-0.2-0.2-0.2-0.2-0.4-0.4c-0.1-0.1-0.1,0-0.2,0.2c-0.1,0.3-0.2,0.7-0.4,1c-0.1,0.1-0.1,0.2,0,0.3c0.2,0.2,0.3,0.3,0.4,0.5
	C38.8,23.3,38.9,23.3,38.9,23.2z M39.5,21.1c0.1-0.4,0.1-0.8,0.1-1.2c0-0.2,0-0.3-0.1-0.3c-0.1-0.1-0.2-0.2-0.2-0.2
	c0,0-0.1,0.1-0.1,0.2c-0.1,0.4-0.2,0.8-0.2,1.2c0,0.2,0,0.2,0,0.3c0.1,0.2,0.2,0.2,0.3,0.4C39.4,21.3,39.4,21.2,39.5,21.1z
	 M34.9,32.1c0.2-0.3,0.5-0.4,0.7-0.7c0.1-0.1,0.1-0.2,0-0.3c-0.2-0.2-0.4-0.4-0.6-0.7c-0.1-0.1-0.2-0.1-0.2,0
	c-0.2,0.2-0.5,0.4-0.7,0.7c-0.1,0.1-0.1,0.2,0,0.2c0.2,0.2,0.4,0.5,0.7,0.7C34.7,32.1,34.8,32.2,34.9,32.1z M36.2,30.7
	c0.2-0.2,0.4-0.5,0.6-0.8c0.1-0.1,0.1-0.2,0-0.3c-0.2-0.2-0.4-0.4-0.6-0.7c-0.1-0.1-0.2-0.1-0.2,0c-0.2,0.2-0.4,0.5-0.7,0.8
	c-0.1,0.1-0.1,0.2,0,0.3c0.2,0.2,0.4,0.4,0.6,0.7C35.9,30.8,36.1,30.8,36.2,30.7z M37.2,29.3c0.2-0.2,0.4-0.5,0.6-0.8
	c0.1-0.1,0.1-0.2,0-0.3c-0.2-0.2-0.3-0.4-0.6-0.6c-0.1-0.1-0.2-0.1-0.2,0.1c-0.2,0.2-0.4,0.5-0.6,0.8c-0.1,0.1-0.1,0.2,0,0.3
	c0.2,0.2,0.4,0.4,0.6,0.7C37.1,29.4,37.2,29.4,37.2,29.3z M38.2,27.7c0.2-0.3,0.3-0.6,0.5-0.9c0.1-0.1,0.1-0.2,0-0.3
	c-0.2-0.2-0.3-0.3-0.5-0.6c-0.1-0.1-0.2,0-0.2,0.1c-0.2,0.3-0.3,0.6-0.5,0.8c-0.1,0.1-0.1,0.2,0,0.3c0.2,0.2,0.3,0.4,0.6,0.6
	C38.1,27.8,38.2,27.8,38.2,27.7z M39.1,26c0.2-0.3,0.2-0.7,0.3-1c0-0.2,0-0.2,0-0.3c-0.2-0.2-0.3-0.3-0.4-0.5
	c-0.1-0.1-0.2,0-0.2,0.1c-0.2,0.3-0.2,0.7-0.4,1c-0.1,0.1-0.1,0.2,0,0.3c0.2,0.2,0.3,0.3,0.5,0.5C39,26.2,39.1,26.1,39.1,26z
	 M39.7,24c0.1-0.4,0.2-0.8,0.2-1.2c0-0.2,0-0.3-0.1-0.3c-0.1-0.2-0.2-0.2-0.4-0.4c-0.1-0.1-0.1,0-0.2,0.2c-0.1,0.4-0.2,0.8-0.3,1.1
	c0,0.2,0,0.2,0,0.3c0.2,0.2,0.3,0.3,0.4,0.5C39.7,24.2,39.7,24.2,39.7,24z M40.1,21.7c0-0.4,0-0.9,0-1.4c0-0.2-0.1-0.3-0.1-0.4
	c-0.1-0.1-0.2-0.2-0.2-0.2c0,0-0.1,0.1-0.1,0.2c0,0.5-0.1,0.9-0.1,1.3c0,0.2,0,0.3,0.1,0.3c0.1,0.2,0.2,0.2,0.3,0.4
	C40.1,22,40.1,21.9,40.1,21.7z M36.1,33.3c0.2-0.2,0.4-0.5,0.7-0.8c0.1-0.1,0.1-0.2,0-0.3c-0.2-0.2-0.4-0.4-0.6-0.7
	c-0.1-0.1-0.2-0.1-0.2,0c-0.2,0.2-0.4,0.5-0.7,0.7c-0.1,0.1-0.1,0.2,0,0.3c0.2,0.2,0.4,0.5,0.7,0.7C35.9,33.4,36,33.4,36.1,33.3z
	 M37.3,32c0.2-0.2,0.4-0.5,0.6-0.8c0.1-0.1,0.1-0.2,0-0.3c-0.2-0.2-0.4-0.4-0.6-0.7c-0.1-0.1-0.2-0.1-0.2,0
	c-0.2,0.2-0.4,0.5-0.6,0.8c-0.1,0.1-0.1,0.2,0,0.3c0.2,0.2,0.4,0.4,0.6,0.7C37.1,32.1,37.2,32.1,37.3,32z M39.3,28.8
	c0.2-0.3,0.2-0.7,0.4-1c0.1-0.1,0-0.2,0-0.3c-0.2-0.2-0.3-0.3-0.5-0.6c-0.1-0.1-0.2,0-0.2,0.1c-0.2,0.3-0.3,0.6-0.4,0.9
	c-0.1,0.1-0.1,0.2,0,0.3c0.2,0.2,0.3,0.4,0.6,0.6C39.2,29,39.2,28.9,39.3,28.8z M40,27c0.1-0.3,0.2-0.7,0.3-1.1c0-0.2,0-0.2,0-0.3
	c-0.2-0.2-0.3-0.3-0.4-0.5c-0.1-0.1-0.2,0-0.2,0.2c-0.1,0.3-0.2,0.7-0.3,1c-0.1,0.1,0,0.2,0,0.3c0.2,0.2,0.3,0.3,0.5,0.6
	C39.9,27.2,40,27.1,40,27z M40.6,24.9c0.1-0.4,0.1-0.8,0.2-1.2c0-0.2,0-0.3-0.1-0.4c-0.2-0.2-0.2-0.2-0.4-0.4
	c-0.1-0.1-0.1,0-0.1,0.2c-0.1,0.4-0.2,0.8-0.2,1.2c0,0.2,0,0.3,0.1,0.3c0.2,0.2,0.3,0.3,0.4,0.5C40.5,25.2,40.5,25.1,40.6,24.9z
	 M40.7,22.5c0-0.5-0.1-1-0.2-1.6c0-0.2-0.1-0.4-0.1-0.4c-0.1-0.1-0.2-0.2-0.2-0.2c0,0,0,0.1,0,0.2c0.1,0.5,0.1,1,0.1,1.5
	c0,0.2,0,0.3,0.1,0.4c0.1,0.2,0.2,0.2,0.3,0.4C40.7,22.7,40.7,22.7,40.7,22.5z M40.2,19.2c-0.2-0.7-0.5-1.5-1-2.5
	c-0.2-0.4-0.3-0.7-0.3-0.7s0,0.2,0,0.3c0,0.5,0,0.9-0.1,1.3c0,0.2,0,0.2,0,0.3c0.1,0.1,0.2,0.2,0.2,0.2c0,0,0.1-0.1,0.1-0.2
	c0-0.5-0.1-1-0.2-1.6c-0.1-0.2-0.1-0.4-0.1-0.4s0.1,0.2,0.1,0.4c0.2,0.6,0.2,1.2,0.2,1.7c0,0.2,0,0.3,0.1,0.3
	c0.1,0.1,0.2,0.2,0.2,0.2c0,0,0-0.1,0-0.3c-0.1-0.6-0.2-1.2-0.4-1.9C39.1,16.2,39,16,39,16s0.1,0.2,0.2,0.5c0.2,0.8,0.4,1.4,0.5,1.9
	c0,0.2,0.1,0.3,0.1,0.4c0.1,0.1,0.2,0.2,0.2,0.2c0,0,0-0.1,0-0.3c-0.2-0.7-0.3-1.3-0.7-2.2c-0.2-0.3-0.2-0.6-0.2-0.6
	s0.2,0.2,0.2,0.6c0.3,0.8,0.6,1.6,0.8,2.2C40.2,19.1,40.2,19.2,40.2,19.2c0.1,0.1,0.2,0.2,0.2,0.2C40.3,19.7,40.3,19.5,40.2,19.2z
	 M32.3,31.9c0.2-0.2,0.5-0.4,0.8-0.6c0.1-0.1,0.1-0.2,0-0.2c-0.2-0.2-0.4-0.5-0.7-0.7c-0.1-0.1-0.2-0.1-0.3,0
	c-0.2,0.2-0.5,0.4-0.8,0.6c-0.1,0.1-0.1,0.2,0,0.2c0.2,0.2,0.4,0.5,0.7,0.8C32.1,31.9,32.2,32,32.3,31.9z"/>
<path class="st0" d="M47.4,19.8l8.8-8.7h-7.5l-5.1,5l-5.1-5h-1.1c0.1,0.2,0.2,0.6,0.4,0.9c0.5,1.3,1.1,3.2,1.7,5.6
	c1.7,1.9,2.4,4.5,2.2,7.8l1.8-1.8L49,29h7.5l-8.4-8.5L47.4,19.8z"/>
<path class="st0" d="M159.2,28.9h-7.3l-4-4.8h-8.5v4.8h-5.5v-9.1h15.5c0.8,0,1.6-0.2,2.2-0.5c0.6-0.3,0.9-0.8,0.9-1.5
	s-0.2-1.2-0.8-1.6c-0.5-0.3-1.2-0.5-2.2-0.5h-15.5l3.6-4.7h11.4c1,0,2.1,0.1,3.2,0.2c1.1,0.2,2.1,0.5,2.9,1c0.9,0.5,1.6,1.2,2.2,1.9
	c0.6,0.8,0.8,1.8,0.8,3.2c0,0.7-0.1,1.3-0.3,2c-0.2,0.6-0.5,1.2-0.9,1.7c-0.4,0.5-0.9,0.9-1.5,1.2c-0.6,0.3-1.2,0.6-1.9,0.8
	c0.3,0.2,0.7,0.5,1,0.9c0.3,0.3,0.8,0.8,1.5,1.5L159.2,28.9z M111.2,28.9l3.3-4.6h4.5c0.5,0,1.1,0,1.7,0c0.6,0,1.1,0,1.5,0.1
	c-0.2-0.3-0.5-0.8-0.8-1.2c-0.3-0.5-0.7-0.9-0.9-1.3l-3.2-4.8L109,28.9h-6.5l11.4-16.1c0.3-0.5,0.8-1,1.4-1.4
	c0.6-0.4,1.2-0.6,2.2-0.6c0.8,0,1.5,0.2,2.1,0.6c0.6,0.4,1,0.8,1.4,1.4l11.1,16.1H111.2z M101.9,24.4L98.3,29H82.6V11.2h5.5v13.2
	H101.9z M80.7,24.4L77.2,29H60.1V11.2h20.6l-3.6,4.7H65.6V18h14.1l-3.2,4.1H65.6v2.4L80.7,24.4L80.7,24.4z M9.7,28.9l3.3-4.6h4.4
	c0.5,0,1.1,0,1.7,0c0.6,0,1.1,0,1.5,0.1c-0.2-0.3-0.5-0.8-0.8-1.2s-0.7-0.9-0.9-1.3l-3.2-4.8L7.4,28.9H0.8l11.4-16.1
	c0.3-0.5,0.8-1,1.4-1.4c0.6-0.4,1.2-0.6,2.2-0.6c0.8,0,1.5,0.2,2.1,0.6c0.6,0.4,1,0.8,1.4,1.4l11.1,16.1H9.7z"/>
</svg>
