<svg xmlns="http://www.w3.org/2000/svg" viewBox="0 0 92 49"><defs><style>.cls-1{fill:#8e8e8e;}</style></defs><g id="Слой_2" data-name="Слой 2"><g id="Слой_1-2" data-name="Слой 1"><path class="cls-1" d="M46.84,23.75a3.26,3.26,0,0,0,1.88-3c0-2.2-2.16-3.68-5.36-3.68H38.51V30.71h4.85c3.63,0,5.8-1.42,5.8-3.79A3.31,3.31,0,0,0,46.84,23.75Zm-6.47-4.93h3c.82,0,3.5.14,3.5,2.05,0,1.3-1.34,2.11-3.5,2.11h-3Zm3,10.1h-3V24.7h3c3.26,0,3.94,1.15,3.94,2.11,0,1.83-2.47,2.11-3.94,2.11Z"/><path class="cls-1" d="M55.08,20.53a5,5,0,0,0-5.17,5.18A5.07,5.07,0,0,0,55,30.89a4.85,4.85,0,0,0,3.41-1.37v1.19h1.9v-5A5,5,0,0,0,55.08,20.53Zm0,8.53a3.23,3.23,0,0,1-3.27-3.35,3.44,3.44,0,0,1,.87-2.36,3.32,3.32,0,0,1,5.7,2.36A3.26,3.26,0,0,1,55.08,29.06Z"/><path class="cls-1" d="M66.32,20.53a4.87,4.87,0,0,0-4.77,5.18v5h1.88v-5c0-2,1.19-3.36,2.89-3.36s2.85,1.41,2.85,3.36v5h1.9v-5A5.44,5.44,0,0,0,69.73,22a4.4,4.4,0,0,0-1.54-1.12A4.47,4.47,0,0,0,66.32,20.53Z"/><path class="cls-1" d="M82,20.71H79.57l-2.88,3.51-2.9-3.51H71.38l4.1,5-4.16,5H73.7l3-3.6,3,3.6H82l-4.16-5.06Z"/><path class="cls-1" d="M89.68,27.54a3.2,3.2,0,0,1-2.87,1.62,3.11,3.11,0,0,1-3.18-2.7h8.28l0-.37a4.73,4.73,0,0,0,0-.53,4.93,4.93,0,0,0-5.15-5,5,5,0,0,0-5.21,5.19,5,5,0,0,0,5.17,5.18,5.05,5.05,0,0,0,4.92-3.35Zm-2.83-5.3A3.14,3.14,0,0,1,90.08,25H83.63A3.11,3.11,0,0,1,86.85,22.24Z"/><path class="cls-1" d="M33,1A2.09,2.09,0,0,0,31.85.09c-.7-.24-1.35,0-3.44,1S23.6,3.57,23,4.36a1.53,1.53,0,0,1-1.21.71,2,2,0,0,0-.55,0c-1.08.19-1.53,1.16-2.62,2.29a7.37,7.37,0,0,1-.94.82l-.1.07-.73.35L16.49,9a4.33,4.33,0,0,1-1.14.28l.07.06-.49-.14a19.29,19.29,0,0,1-3.81-1.52c-2.46-.06-8.59,0-10.48,3.19-.26.44-.91,1.71-.52,2.06s1.4-.71,3.19-1.18c2.41-.63,3.52.41,7,.35A17.67,17.67,0,0,0,14,11.6,30.68,30.68,0,0,0,7.17,22a18.5,18.5,0,0,0-1.49,6.5c0,.3,0,.61,0,.93v.33c0,.37,0,.75,0,1.13,0,.12,0,.25,0,.38.24,2.28.56,4.7,2,6.59.09.15.17.27.23.35,1,.8.51,1.71,0,2.53l-.16.36a18.48,18.48,0,0,0-1,3.28,2.18,2.18,0,0,0,0,.25A8,8,0,0,0,7.38,48a2.36,2.36,0,0,0,1,.82,2.48,2.48,0,0,0,1.29.2A1.39,1.39,0,0,1,9,48c-.13-1,1.48-1.72,2.69-2.8.11-.09.21-.2.31-.3a2.15,2.15,0,0,0,.8-1.87,2.19,2.19,0,0,0,0-.36A3.64,3.64,0,0,0,12.16,41c1.57,2.27,4.85,1.66,7.06.81a2.17,2.17,0,0,1,.36,0,2,2,0,0,1,1,.27,2.22,2.22,0,0,1,.64.58,2.67,2.67,0,0,0,.63-1.81,2,2,0,0,0-.11-.54c-.5-1.43-1.9-1.73-3.16-2.19-2.81-.76-6.25.61-8.28-1.36-3.45-3.49,1.09-8.35,4.52-10.4l.33-.25A16.75,16.75,0,0,0,17,24.37c.61-.65,1.18-1.3,1.7-1.94a13.3,13.3,0,0,0,1.66-1.94c1.18-1.68,1.7-3.28,1.84-3.23s-.22.79-.28,2.14a8.85,8.85,0,0,0,0,1c.07.77.27,1.28.38,2.6.19,2.32.37,4.5-.8,6.39-.37.6-.82,1.06-.64,1.34s1.67.2,2.69-.41c1.65-1,2.05-3,2.84-6.9a11.54,11.54,0,0,0,.32-3.36,10.11,10.11,0,0,0-.87-3.36,3.21,3.21,0,0,1-1-.74,1.58,1.58,0,0,1-.12-.15,4.35,4.35,0,0,1,.64-1.92c.2-.23.39-.44.55-.66.81-.74,2-1.29,2.11-2.31a2.81,2.81,0,0,1,.13-.75A3,3,0,0,1,28.92,9a24.78,24.78,0,0,0,2.8-4C32.78,3.24,33.49,2,33,1Z"/></g></g></svg>