<svg xmlns="http://www.w3.org/2000/svg" xmlns:xlink="http://www.w3.org/1999/xlink" viewBox="0 0 122 37.25"><defs><style>.cls-1{fill:none;}.cls-2{clip-path:url(#clip-path);}.cls-3{fill:#8e8e8e;}</style><clipPath id="clip-path" transform="translate(0 -1)"><rect class="cls-1" width="122" height="40"/></clipPath></defs><g id="Слой_2" data-name="Слой 2"><g id="Слой_1-2" data-name="Слой 1"><g class="cls-2"><path class="cls-3" d="M41.88,19.39a6.61,6.61,0,0,1,1.87-4.83,6.86,6.86,0,0,1,2.19-1.49,6.62,6.62,0,0,1,2.6-.51,5.75,5.75,0,0,1,6,4.27l-2.11.71A3.62,3.62,0,0,0,51,15.39a3.72,3.72,0,0,0-2.47-.73c-2.18,0-4.36,1.58-4.36,4.78s2.13,4.71,4.39,4.71a3.94,3.94,0,0,0,3.93-2.9l2.06.67a6,6,0,0,1-6,4.36,6.58,6.58,0,0,1-2.63-.5A6.52,6.52,0,0,1,42.28,22,6.61,6.61,0,0,1,41.88,19.39Z" transform="translate(0 -1)"/><path class="cls-3" d="M58.63,26H56.46V12.52h2.17V17.8a3.12,3.12,0,0,1,1.16-.87,3.27,3.27,0,0,1,1.42-.27c2.24,0,3.32,1.6,3.32,3.59V26h-2.1V20.61a1.67,1.67,0,0,0-.06-.77,1.78,1.78,0,0,0-.39-.68,1.92,1.92,0,0,0-.65-.44,1.87,1.87,0,0,0-.78-.11,1.82,1.82,0,0,0-.76.16,1.74,1.74,0,0,0-.63.45,1.7,1.7,0,0,0-.39.66,1.84,1.84,0,0,0-.1.77Z" transform="translate(0 -1)"/><path class="cls-3" d="M69.37,20.78l2.33-.35c.52-.07.67-.34.67-.65,0-.76-.52-1.38-1.72-1.38a1.74,1.74,0,0,0-1.29.42,1.84,1.84,0,0,0-.41.55,1.75,1.75,0,0,0-.17.67l-2-.44a3.55,3.55,0,0,1,3.82-3c2.8,0,3.87,1.58,3.87,3.42v4.48A7.91,7.91,0,0,0,74.61,26h-2a5.62,5.62,0,0,1-.09-1.16,3.1,3.1,0,0,1-1.21,1.09,3.24,3.24,0,0,1-1.59.34,2.88,2.88,0,0,1-1.13-.14,2.8,2.8,0,0,1-1.68-1.48,2.67,2.67,0,0,1-.27-1.11C66.62,21.9,67.81,21,69.37,20.78Zm3,1.46v-.41L70,22.18a1.25,1.25,0,0,0-.86.37,1.31,1.31,0,0,0-.36.86,1.34,1.34,0,0,0,.11.48,1.14,1.14,0,0,0,.3.39,1.17,1.17,0,0,0,.92.3,2.06,2.06,0,0,0,.92-.12,2,2,0,0,0,1.26-1.3A2.2,2.2,0,0,0,72.37,22.24Z" transform="translate(0 -1)"/><path class="cls-3" d="M78.17,12.34a1.28,1.28,0,0,1,.55.1,1.45,1.45,0,0,1,.47.3,1.44,1.44,0,0,1,.31.46,1.46,1.46,0,0,1,.11.55,1.43,1.43,0,0,1-.41,1,1.42,1.42,0,0,1-2,0,1.43,1.43,0,0,1-.41-1,1.4,1.4,0,0,1,1.38-1.41ZM77.12,26V16.92h2.14v9Z" transform="translate(0 -1)"/><path class="cls-3" d="M84.22,26H82.06v-9h2.11v1.21A3.08,3.08,0,0,1,85.31,17a3,3,0,0,1,1.55-.37c2.22,0,3.28,1.6,3.28,3.59V26H88V20.61a1.75,1.75,0,0,0-1.87-2,1.92,1.92,0,0,0-.78.17,1.78,1.78,0,0,0-.64.47,1.88,1.88,0,0,0-.4.7,1.92,1.92,0,0,0-.07.79Z" transform="translate(0 -1)"/><path class="cls-3" d="M92.78,26V12.52H95V26Z" transform="translate(0 -1)"/><path class="cls-3" d="M98.81,12.34a1.42,1.42,0,0,1,1.42,1.41A1.39,1.39,0,0,1,99.36,15a1.35,1.35,0,0,1-.82.08,1.38,1.38,0,0,1-1.1-1.1A1.39,1.39,0,0,1,98,12.58,1.36,1.36,0,0,1,98.81,12.34ZM97.75,26V16.92h2.14v9Z" transform="translate(0 -1)"/><path class="cls-3" d="M104.86,26h-2.17v-9h2.11v1.21a3,3,0,0,1,2.69-1.47c2.22,0,3.29,1.6,3.29,3.59V26h-2.17V20.61a1.69,1.69,0,0,0-.45-1.45,1.71,1.71,0,0,0-1.42-.55,1.92,1.92,0,0,0-.78.17,1.87,1.87,0,0,0-.64.47,1.91,1.91,0,0,0-.46,1.49Z" transform="translate(0 -1)"/><path class="cls-3" d="M118.18,20.74,122,26h-2.65l-2.68-3.72-1.11,1.17V26h-2.15V12.52h2.15v8.06L119,16.92h2.88Z" transform="translate(0 -1)"/><path class="cls-3" d="M16.23,8.89l9.36,5.35V25l-9.33,5.38L6.89,25V14.28Zm0-7.89L12.79,3,3.44,8.37,0,10.35V29l3.44,2,9.36,5.35,3.44,2,3.43-2L29,30.88l3.44-2V10.28L29,8.31,19.65,3,16.21,1Z" transform="translate(0 -1)"/></g></g></g></svg>