<svg xmlns="http://www.w3.org/2000/svg" viewBox="0 0 82 21.16"><defs><style>.cls-1{fill:#8e8e8e;}</style></defs><g id="Слой_2" data-name="Слой 2"><g id="Слой_1-2" data-name="Слой 1"><path class="cls-1" d="M0,17.11V3.43A3.45,3.45,0,0,1,3.42,0H18A3.44,3.44,0,0,1,21.3,3.08V4.56c-.9.59-1.44.92-2,1.26-.75.45-1.52.92-3.23,2.08a7.71,7.71,0,0,0-1.8,1.85c-.62,1.07-1.27,2.09-2,3.07a4.91,4.91,0,0,1-4.12,1.91q-1.57,0-3.09,0a5.29,5.29,0,0,0-2.73.88C1.58,16.14.8,16.63,0,17.11Z"/><path class="cls-1" d="M21.3,6v12a3.44,3.44,0,0,1-3.44,3.08H3.46A3.45,3.45,0,0,1,.1,18.55l.5-.21c.66-.26,1.33-.53,2-.81a8.14,8.14,0,0,1,.87-.31,5.7,5.7,0,0,1,2-.17c1.17.12,2.36.28,3.58.46a5.44,5.44,0,0,0,4.44-1.75,10.54,10.54,0,0,0,1.42-2.61c.13-.32.35-.83.61-1.38.09-.19.17-.37.26-.54A7.47,7.47,0,0,1,17,9.36,54,54,0,0,1,21.3,6Z"/><path class="cls-1" d="M70.32,20.43a10.77,10.77,0,0,0,4.09.73,9,9,0,0,0,4.06-.85A6.2,6.2,0,0,0,81.08,18,5.87,5.87,0,0,0,82,14.8a4.82,4.82,0,0,0-.92-3A6.16,6.16,0,0,0,78.89,10a26.37,26.37,0,0,0-3.27-1.3,15.74,15.74,0,0,1-3-1.2,1.75,1.75,0,0,1-1-1.56,1.74,1.74,0,0,1,.56-1.39A2.18,2.18,0,0,1,73.76,4a2.61,2.61,0,0,1,1.75.59,2.08,2.08,0,0,1,.74,1.56h5.48a5.8,5.8,0,0,0-2.25-4.53A8.73,8.73,0,0,0,73.93,0a8.62,8.62,0,0,0-5.48,1.65,5.35,5.35,0,0,0-2.11,4.5,5.06,5.06,0,0,0,.92,3.15,6.3,6.3,0,0,0,2.2,1.83,23.29,23.29,0,0,0,3.29,1.23,18.93,18.93,0,0,1,2.13.74,3.92,3.92,0,0,1,1.28.82,1.68,1.68,0,0,1,.53,1.27A1.77,1.77,0,0,1,76,16.63a2.89,2.89,0,0,1-1.78.5,2.65,2.65,0,0,1-1.78-.59,2.67,2.67,0,0,1-.8-1.77h-5.4a6,6,0,0,0,1.13,3.48A6.84,6.84,0,0,0,70.32,20.43Z"/><path class="cls-1" d="M29.3,10.6a11,11,0,0,1,1.33-5.45,9.47,9.47,0,0,1,3.71-3.74A10.88,10.88,0,0,1,39.77.06,10.43,10.43,0,0,1,46.11,2a9.32,9.32,0,0,1,3.53,5.3H44.07a4.49,4.49,0,0,0-1.78-2,4.92,4.92,0,0,0-2.58-.68,4.86,4.86,0,0,0-3.8,1.62,6.23,6.23,0,0,0-1.45,4.33,6.22,6.22,0,0,0,1.45,4.32,4.86,4.86,0,0,0,3.8,1.62,4.92,4.92,0,0,0,2.58-.68,4.44,4.44,0,0,0,1.78-2h5.57a9.32,9.32,0,0,1-3.53,5.3,10.54,10.54,0,0,1-6.34,1.91,11.08,11.08,0,0,1-5.43-1.32A9.66,9.66,0,0,1,30.63,16,10.93,10.93,0,0,1,29.3,10.6Z"/><path class="cls-1" d="M57.82,17.07h6.64V21H52.75V.29h5.07Z"/></g></g></svg>