<svg xmlns="http://www.w3.org/2000/svg" viewBox="0 0 227.57 36.37"><defs><style>.cls-1,.cls-2{fill:#8e8e8e;}.cls-2{fill-rule:evenodd;}</style></defs><g id="Слой_2" data-name="Слой 2"><g id="Слой_1-2" data-name="Слой 1"><path class="cls-1" d="M113.18,11.56V4.88h5.92a7.65,7.65,0,0,1,1.61.16,3.8,3.8,0,0,1,1.4.48,2.66,2.66,0,0,1,1,1,3.35,3.35,0,0,1,.36,1.64,3,3,0,0,1-1.08,2.6,4.53,4.53,0,0,1-2.78.8ZM106.86,0V28.57h13.93a14.58,14.58,0,0,0,3.74-.48,9.82,9.82,0,0,0,3.26-1.48,7.22,7.22,0,0,0,2.29-2.56,7.87,7.87,0,0,0,.85-3.76,7.65,7.65,0,0,0-1.33-4.56A6.76,6.76,0,0,0,125.66,13a7,7,0,0,0,2.89-2.36,6.07,6.07,0,0,0,1-3.6,7.53,7.53,0,0,0-.68-3.36A5.2,5.2,0,0,0,127,1.56a8,8,0,0,0-2.9-1.2A18.08,18.08,0,0,0,120.38,0Zm6.32,23.69V15.84h6.88a5.26,5.26,0,0,1,3.3,1,3.62,3.62,0,0,1,1.25,3.12,3.74,3.74,0,0,1-.4,1.84,3.06,3.06,0,0,1-1,1.16,5.28,5.28,0,0,1-1.49.6,10,10,0,0,1-1.77.16Z"/><path class="cls-1" d="M134.19,7.88V28.57h5.72V19.25a11.2,11.2,0,0,1,.28-2.6,5.7,5.7,0,0,1,.93-2.09,4.66,4.66,0,0,1,1.77-1.44,6.2,6.2,0,0,1,2.65-.52,8.23,8.23,0,0,1,1.09.08,9.49,9.49,0,0,1,1,.12V7.52a4.62,4.62,0,0,0-1.25-.2,6.92,6.92,0,0,0-2.09.32,7.52,7.52,0,0,0-1.89.92,6.57,6.57,0,0,0-1.58,1.4,7,7,0,0,0-1.08,1.76h-.08V7.88Z"/><path class="cls-1" d="M155.31,4.68V0H149.6V4.68Zm-5.71,3.2V28.57h5.71V7.88Z"/><path class="cls-1" d="M174.18,18.17a12.64,12.64,0,0,1-.24,2.48,6.81,6.81,0,0,1-.81,2.16,4.26,4.26,0,0,1-1.53,1.48,4.44,4.44,0,0,1-2.33.56,4.49,4.49,0,0,1-2.29-.56,5.68,5.68,0,0,1-1.57-1.52,6.93,6.93,0,0,1-.89-2.16,10.35,10.35,0,0,1-.28-2.4,12.12,12.12,0,0,1,.24-2.45,7.18,7.18,0,0,1,.85-2.12,4.43,4.43,0,0,1,3.94-2,4.44,4.44,0,0,1,2.33.56,4.4,4.4,0,0,1,1.49,1.48,5.45,5.45,0,0,1,.85,2.09A12,12,0,0,1,174.18,18.17Zm.08,7.76v2.64h5.44V0H174V10.4h-.08a6,6,0,0,0-2.66-2.28,8,8,0,0,0-3.5-.8,8.46,8.46,0,0,0-4,.92,8.69,8.69,0,0,0-2.9,2.36A11,11,0,0,0,159.09,14a14,14,0,0,0-.57,4,15.14,15.14,0,0,0,.57,4.16,11.9,11.9,0,0,0,1.73,3.56,8.74,8.74,0,0,0,2.94,2.44,9.06,9.06,0,0,0,4.1.88,8.85,8.85,0,0,0,3.66-.72,6,6,0,0,0,2.66-2.44Z"/><path class="cls-1" d="M193.31,23.69a4.1,4.1,0,0,1-2.21-.56,4.86,4.86,0,0,1-1.45-1.44,6.91,6.91,0,0,1-.77-2,13.13,13.13,0,0,1-.2-2.24,9.3,9.3,0,0,1,.25-2.21,5.76,5.76,0,0,1,.84-1.88,4.55,4.55,0,0,1,1.45-1.32,4.33,4.33,0,0,1,2.09-.48,4.82,4.82,0,0,1,2.34.52,4.35,4.35,0,0,1,1.49,1.4,6.17,6.17,0,0,1,.8,2,11.52,11.52,0,0,1,.24,2.41,7.15,7.15,0,0,1-.32,2.16,5.59,5.59,0,0,1-.88,1.8,4.64,4.64,0,0,1-1.53,1.28A4.59,4.59,0,0,1,193.31,23.69Zm10.31,3.56V7.88h-5.44v2.76h-.08a6.22,6.22,0,0,0-2.61-2.56,8.08,8.08,0,0,0-3.59-.76,8.59,8.59,0,0,0-3.86.84,8.21,8.21,0,0,0-2.78,2.28,10.17,10.17,0,0,0-1.73,3.28,13.28,13.28,0,0,0-.56,3.85,16.62,16.62,0,0,0,.48,4,10,10,0,0,0,1.61,3.32,8,8,0,0,0,2.78,2.24,9.39,9.39,0,0,0,4,.8,8.63,8.63,0,0,0,3.59-.76,5.71,5.71,0,0,0,2.65-2.44h.08v2.72a5.54,5.54,0,0,1-1.08,3.64,4.11,4.11,0,0,1-3.5,1.44,5.47,5.47,0,0,1-2.7-.64,3.17,3.17,0,0,1-1.57-2.2h-5.68a5.9,5.9,0,0,0,1,3,7.29,7.29,0,0,0,2.17,2.08,10,10,0,0,0,2.9,1.16,12.82,12.82,0,0,0,3.14.4,14.09,14.09,0,0,0,5.71-1,8.72,8.72,0,0,0,3.27-2.36,6.73,6.73,0,0,0,1.45-3A13.11,13.11,0,0,0,203.62,27.25Z"/><path class="cls-1" d="M221.82,16h-9.3a7.15,7.15,0,0,1,.25-1.37,4.77,4.77,0,0,1,.76-1.44A4.57,4.57,0,0,1,215,12.08a4.94,4.94,0,0,1,2.29-.48,4,4,0,0,1,3.1,1.12A6.44,6.44,0,0,1,221.82,16Zm-9.3,3.6h15a14.67,14.67,0,0,0-.4-4.61,11.18,11.18,0,0,0-1.86-3.92,8.9,8.9,0,0,0-3.22-2.72,9.78,9.78,0,0,0-4.62-1,11,11,0,0,0-4.35.84,10.22,10.22,0,0,0-3.34,2.32,10,10,0,0,0-2.18,3.44,12.28,12.28,0,0,0-.76,4.33,12.93,12.93,0,0,0,.72,4.4,10.32,10.32,0,0,0,2.14,3.44A9.31,9.31,0,0,0,213,28.33a12.14,12.14,0,0,0,4.43.76,10.89,10.89,0,0,0,6-1.6,9.51,9.51,0,0,0,3.71-5.32h-5A3.69,3.69,0,0,1,220.62,24a5.24,5.24,0,0,1-3,.84,5.18,5.18,0,0,1-3.71-1.24A5.77,5.77,0,0,1,212.52,19.61Z"/><path class="cls-1" d="M74.29,18.17a12.64,12.64,0,0,1-.24,2.48,7.06,7.06,0,0,1-.81,2.16,4.34,4.34,0,0,1-1.53,1.48,4.47,4.47,0,0,1-2.33.56,4.56,4.56,0,0,1-2.3-.56,5.82,5.82,0,0,1-1.57-1.52,6.91,6.91,0,0,1-.88-2.16,10.35,10.35,0,0,1-.28-2.4,12.12,12.12,0,0,1,.24-2.45,7.17,7.17,0,0,1,.84-2.12,4.44,4.44,0,0,1,3.95-2,4.17,4.17,0,0,1,3.82,2,5.78,5.78,0,0,1,.85,2.09A12,12,0,0,1,74.29,18.17Zm.08,7.76v2.64H79.8V0H74.09V10.4H74a6,6,0,0,0-2.66-2.28,8,8,0,0,0-3.5-.8,8.53,8.53,0,0,0-4,.92,8.79,8.79,0,0,0-2.9,2.36A11.23,11.23,0,0,0,59.19,14a14.39,14.39,0,0,0-.56,4,15.52,15.52,0,0,0,.56,4.16,12.15,12.15,0,0,0,1.73,3.56,8.74,8.74,0,0,0,2.94,2.44,9.08,9.08,0,0,0,4.11.88,8.85,8.85,0,0,0,3.66-.72,6,6,0,0,0,2.66-2.44Z"/><path class="cls-1" d="M97.73,16h-9.3a7.07,7.07,0,0,1,.24-1.37,5,5,0,0,1,.76-1.44,4.57,4.57,0,0,1,1.45-1.12,5,5,0,0,1,2.3-.48,4,4,0,0,1,3.1,1.12A6.53,6.53,0,0,1,97.73,16Zm-9.3,3.6h15A14.67,14.67,0,0,0,103,15a11.34,11.34,0,0,0-1.85-3.92A9,9,0,0,0,98,8.36a9.85,9.85,0,0,0-4.63-1A11,11,0,0,0,89,8.16a10.22,10.22,0,0,0-3.34,2.32,9.93,9.93,0,0,0-2.17,3.44,12.06,12.06,0,0,0-.77,4.33,12.7,12.7,0,0,0,.73,4.4,10.3,10.3,0,0,0,2.13,3.44,9.4,9.4,0,0,0,3.34,2.24,12.18,12.18,0,0,0,4.43.76,11,11,0,0,0,6-1.6,9.54,9.54,0,0,0,3.7-5.32h-5A3.69,3.69,0,0,1,96.52,24a5.22,5.22,0,0,1-3,.84,5.15,5.15,0,0,1-3.7-1.24A5.72,5.72,0,0,1,88.43,19.61Z"/><path class="cls-1" d="M44.56,29H35.91a2.87,2.87,0,0,1-2.8-2.3,12.25,12.25,0,0,0-.57-1.9,1.74,1.74,0,0,1,.69-2.22l3.47-2a14.91,14.91,0,0,1,1.18,2.56A1.79,1.79,0,0,0,40,24.26l3.8-1A22.78,22.78,0,0,1,44.56,29Z"/><path class="cls-2" d="M38,13.19a22.06,22.06,0,0,0-10-5.82l-1.43,5.4A16.74,16.74,0,0,1,34,17.16Z"/><path class="cls-1" d="M7.63,20.51A17.16,17.16,0,0,0,5.38,29H2.83A3,3,0,0,1,.65,28,3,3,0,0,1,0,25.71a23.51,23.51,0,0,1,1.85-6.18,1.79,1.79,0,0,1,2.54-.88Z"/><path class="cls-1" d="M44.56,29a22.78,22.78,0,0,0-.75-5.75l3.53-.94a1.81,1.81,0,0,1,2.32,1.45c.13.68.24,1.36.32,2.06a3,3,0,0,1-.74,2.26,2.91,2.91,0,0,1-2.11.92Z"/><path class="cls-1" d="M34,17.16l6.6-6.61a1.82,1.82,0,0,1,2.7.13,26.46,26.46,0,0,1,2.12,2.78A1.87,1.87,0,0,1,44.79,16L36.7,20.65A16.81,16.81,0,0,0,34,17.16Z"/><path class="cls-1" d="M33.41,9.63a22.11,22.11,0,0,0-11.21-3A22.39,22.39,0,0,0,18.08,7a1.83,1.83,0,0,1-2-1.21l-.54-2a1.8,1.8,0,0,1,1.34-2.23A27.79,27.79,0,0,1,34.48,3.84a1.82,1.82,0,0,1,.83,2.5Z"/><path class="cls-1" d="M22.13,12.23a18.37,18.37,0,0,1,4.38.54l-1,3.76a1.83,1.83,0,0,1-2,1.32,11.18,11.18,0,0,0-12.29,8.88,3.2,3.2,0,0,1-1,1.61,2.87,2.87,0,0,1-1.8.66H5.38A16.74,16.74,0,0,1,22.13,12.23Z"/></g></g></svg>