<?xml version="1.0" encoding="utf-8"?><!-- Generator: Adobe Illustrator 25.0.0, SVG Export Plug-In . SVG Version: 6.00 Build 0)  --><svg version="1.1" id="Слой_1" xmlns="http://www.w3.org/2000/svg" xmlns:xlink="http://www.w3.org/1999/xlink" x="0px" y="0px"	 viewBox="0 0 124 40" style="enable-background:new 0 0 124 40;" xml:space="preserve"><style type="text/css">	.st0{fill:#8E8E8E;}	.st1{clip-path:url(#SVGID_2_);}	.st2{fill:#D3D3D3;}</style><path class="st0" d="M50,23.6c-2.4,0-4.4-0.7-4.8-2.7h13.6c0-5.8-3.8-7.4-8.6-7.4c-5.1,0-8.7,1.9-8.7,6.6s3.7,6.6,8.5,6.6	c4.7,0,7.8-1.5,8.6-4.8h-3.6C54,23.1,52.5,23.6,50,23.6z M50.2,16.3c2.3,0,4.1,0.5,4.7,2.3h-9.6C45.9,16.8,47.7,16.3,50.2,16.3z"/><path class="st0" d="M72.4,13.7l-4.9,10.5l-5.4-10.5H58l6.5,12.7h1.9l-2.5,5.4h4l8.5-18.1H72.4z"/><path class="st0" d="M101.2,13.7l-4.1,9.8l-3.8-9.8h-4.4L85,23.5l-4.1-9.8h-4.1l5.7,12.7h4.9l3.7-8.8l3.7,8.8h4.9l5.7-12.7	L101.2,13.7z"/><path class="st0" d="M114.2,13.5c-2.6,0-5.2,0.5-7.7,1.3l1.3,2.7c2-0.6,4.1-0.9,6.2-0.9c1.7,0,4.8,0.2,4.8,2.6	c-1.9-0.6-3.8-0.9-5.8-0.9c-4,0-7.6,1-7.6,4.3c0,2.9,2.2,4,5.7,4c2.7,0,5.3-0.6,7.7-1.8v1.6h3.7V20	C122.5,15.2,119.5,13.5,114.2,13.5z M118.8,22.5c-1.9,0.8-4.6,1.4-6.6,1.4c-1.9,0-3.1-0.1-3.1-1.4c0-1.3,1.6-1.8,4.4-1.8	c1.8,0,3.6,0.2,5.3,0.8V22.5z"/><g>	<defs>		<rect id="SVGID_1_" x="1.5" y="3" width="32" height="34"/>	</defs>	<clipPath id="SVGID_2_">		<use xlink:href="#SVGID_1_"  style="overflow:visible;"/>	</clipPath>	<g class="st1">		<path class="st2" d="M17.2,11.7C17.2,11.7,17.2,11.7,17.2,11.7L17.2,11.7L17.2,11.7L17.2,11.7c0-0.1,0-0.1,0-0.1l0,0c0,0,0,0,0,0			l4.4-2.5c0,0,0.1,0,0.1,0s0.1,0,0.1,0c0,0,0,0,0.1,0.1c0,0,0,0.1,0,0.1v4.9l2.6,1.5V6.7c0-0.2-0.1-0.4-0.2-0.6			c-0.1-0.2-0.3-0.4-0.5-0.5c-0.2-0.1-0.4-0.2-0.6-0.2c-0.2,0-0.4,0.1-0.6,0.2l-6.6,3.7c-0.5,0.3-0.8,0.6-1.1,1.1			c-0.3,0.5-0.4,1-0.4,1.5v9.4l2.6-1.5L17.2,11.7z"/>		<path class="st0" d="M29.1,13.3C29.2,13.3,29.2,13.3,29.1,13.3c0.1,0.1,0.1,0.1,0.1,0.1c0,0,0,0.1,0,0.1c0,0,0,0-0.1,0.1L25,15.9			l2.6,1.5l5-2.9c0.2-0.1,0.4-0.3,0.5-0.5c0.1-0.2,0.2-0.4,0.2-0.6c0-0.2-0.1-0.4-0.2-0.6c-0.1-0.2-0.3-0.3-0.5-0.5l-6.5-3.7			c-0.4-0.2-0.8-0.4-1.3-0.4v2.6L29.1,13.3z"/>		<path class="st0" d="M10.3,22.5v1.4l4.1-2.3v-9.6c0-0.6,0.2-1.2,0.4-1.7c0.3-0.5,0.7-0.9,1.2-1.2l6.6-3.7c0.2-0.1,0.4-0.2,0.5-0.2			l-3.6-2c0,0-0.1,0-0.1-0.1C19.2,3,19.1,3,18.9,3s-0.4,0.1-0.5,0.2l-6.6,3.7c-0.5,0.3-0.8,0.6-1.1,1.1c-0.3,0.5-0.4,1-0.4,1.5V22.5			L10.3,22.5z"/>		<path class="st0" d="M21.7,14.4L17.6,12v4.6l8.6,4.8c0.5,0.3,0.9,0.7,1.2,1.2s0.4,1.1,0.4,1.7v7.3c0,0.2,0,0.4-0.1,0.6l3.6-2			c0.2-0.1,0.3-0.3,0.5-0.5c0.1-0.2,0.2-0.4,0.2-0.6v-7.3c0-0.5-0.1-1-0.4-1.5c-0.3-0.5-0.6-0.8-1.1-1.1l-2.8-1.6L21.7,14.4z"/>		<path class="st2" d="M24.8,24C24.8,24,24.8,24,24.8,24C24.8,24,24.8,24,24.8,24L24.8,24C24.8,24.1,24.8,24.1,24.8,24			c0.1,0.1,0.1,0.1,0.1,0.1c0,0,0,0,0,0v5c0,0,0,0.1,0,0.1c0,0,0,0-0.1,0.1c0,0-0.1,0-0.1,0c0,0-0.1,0-0.1,0l-4.3-2.4l-2.6,1.5			l7.9,4.5c0.2,0.1,0.4,0.2,0.6,0.2c0.2,0,0.4-0.1,0.6-0.2c0.2-0.1,0.3-0.3,0.4-0.5c0.1-0.2,0.2-0.4,0.2-0.6v-7.3			c0-0.5-0.1-1-0.4-1.5c-0.3-0.5-0.6-0.8-1.1-1.1L17.5,17v2.9L24.8,24z"/>		<path class="st2" d="M4.8,9.7C4.6,9.6,4.4,9.6,4.2,9.6c-0.2,0-0.4,0.1-0.6,0.2C3.4,9.9,3.2,10,3.1,10.2C3,10.4,3,10.6,3,10.8v7.4			c0,0.5,0.1,1,0.3,1.4l2.3-1.3v-4.9c0,0,0-0.1,0-0.1c0,0,0,0,0.1-0.1c0,0,0.1,0,0.1,0c0,0,0.1,0,0.1,0l4.1,2.3v-2.9L4.8,9.7z"/>		<path class="st0" d="M10.3,7.9L9.1,7.3C8.9,7.2,8.7,7.1,8.5,7.1c-0.2,0-0.4,0.1-0.6,0.2l-3.5,2c0.2,0,0.4,0.1,0.5,0.2l5,2.8V9.5			C9.9,8.9,10.1,8.4,10.3,7.9z"/>		<path class="st2" d="M32.8,14.8l-4.9,2.8l2.5,1.4c0.5,0.3,0.8,0.6,1.1,1.1l1-0.6c0.2-0.1,0.4-0.3,0.5-0.5c0.1-0.2,0.2-0.4,0.2-0.6			v-4C33.2,14.5,33,14.7,32.8,14.8z"/>		<path class="st2" d="M14.6,35.8c0,0.2,0.1,0.4,0.2,0.6c0.1,0.2,0.3,0.3,0.4,0.5c0.2,0.1,0.4,0.2,0.6,0.2c0.2,0,0.4-0.1,0.6-0.2			l3.8-2.1l2.8-1.6c0.4-0.2,0.8-0.6,1-0.9l-2.3-1.3l-4.3,2.4h0c0,0,0,0,0,0c0,0,0,0-0.1,0c0,0,0,0-0.1,0h0c0,0-0.1,0-0.1-0.1			c0,0,0,0,0,0c0,0,0,0,0,0c0,0,0,0,0,0c0,0,0,0,0,0v-4.7L14.6,30L14.6,35.8z"/>		<path class="st0" d="M2.1,22.7l6.5,3.7c0.4,0.2,0.9,0.4,1.4,0.4c0.5,0,1-0.1,1.4-0.4l8.5-4.8l-2.6-1.5l-7.2,4.1c0,0,0,0,0,0h0			c0,0,0,0,0,0c0,0,0,0,0,0h0c0,0,0,0,0,0l-4.4-2.5c0,0,0,0-0.1-0.1c0,0,0-0.1,0-0.1c0,0,0-0.1,0-0.1c0,0,0,0,0.1-0.1l4.3-2.4v-2.9			l-4.1,2.3l-3.7,2.1C2,20.7,1.8,20.8,1.7,21c-0.1,0.2-0.2,0.4-0.2,0.6c0,0.2,0.1,0.4,0.2,0.6C1.8,22.5,1.9,22.6,2.1,22.7z"/>		<path class="st2" d="M17.3,28.1l7.1-4l-4.1-2.3l-8.6,4.9c-0.5,0.3-1,0.4-1.6,0.4c-0.6,0-1.1-0.1-1.6-0.4L2,23			c-0.2-0.1-0.3-0.2-0.5-0.4v4c0,0.2,0.1,0.4,0.2,0.6c0.1,0.2,0.3,0.3,0.5,0.5l6.5,3.7c0.4,0.2,0.9,0.4,1.4,0.4c0.5,0,1-0.1,1.4-0.4			L17.3,28.1L17.3,28.1z"/>		<path class="st0" d="M14.3,30.2l-2.6,1.5c-0.4,0.2-0.9,0.4-1.4,0.4v1.2c0,0.2,0.1,0.4,0.2,0.6c0.1,0.2,0.3,0.3,0.5,0.5l3.6,2			c-0.1-0.2-0.1-0.4-0.1-0.6L14.3,30.2z"/>	</g></g></svg>