<svg xmlns="http://www.w3.org/2000/svg" viewBox="0 0 1533 280"><defs><style>.cls-1{fill:#8e8e8e;fill-rule:evenodd;}</style></defs><g id="Слой_2" data-name="Слой 2"><g id="Слой_1-2" data-name="Слой 1"><path class="cls-1" d="M0,280,269.06,56a31.9,31.9,0,1,0-45-45ZM129.8,41.36l-113.29,85L101.47,13A20.23,20.23,0,1,1,129.8,41.36ZM267,178.53l-113.29,85,85-113.28A20.23,20.23,0,0,1,275,163.77a20.25,20.25,0,0,1-8,14.76Z"/><path class="cls-1" d="M430,140c0-37,31.43-69,75-69,21.6,0,40.89,7.88,54.61,20.27a2,2,0,0,0,2.85-.09l26.23-27.49a2,2,0,0,0-.08-2.82C566.94,40.91,537.2,29,505,29c-64.46,0-117,48.59-117,111s52.54,111,117,111c28.66,0,57-9.61,78-26.09l7.27-5.71a2,2,0,0,0,.76-1.57V124a2,2,0,0,0-2-2H535.86a2,2,0,0,0-1.45.63l-34,36a2,2,0,0,0,1.45,3.37H547a2,2,0,0,1,2,2v32.17a2,2,0,0,1-1,1.72A88.8,88.8,0,0,1,505,209C461.43,209,430,177,430,140ZM1144,34h-47.07a2,2,0,0,0-1.6,3.2L1172,140.1a2,2,0,0,1,0,2.41l-76.63,100.28A2,2,0,0,0,1097,246h51a2,2,0,0,0,1.61-.8l48.82-65.49a2,2,0,0,1,3.2,0l48.82,65.49a2,2,0,0,0,1.6.8h51a2,2,0,0,0,1.59-3.21L1227.9,142.51a2,2,0,0,1,0-2.41L1304.6,37.2A2,2,0,0,0,1303,34h-47.06a2,2,0,0,0-1.59.79l-52.79,69.08a2,2,0,0,1-3.18,0l-52.79-69.08A2,2,0,0,0,1144,34ZM772.7,34H727.3a2,2,0,0,0-1.83,1.19l-92.22,208a2,2,0,0,0,1.83,2.81h43.61a2,2,0,0,0,1.83-1.21L698.15,204h103.7l17.63,40.79a2,2,0,0,0,1.84,1.21h43.61a2,2,0,0,0,1.82-2.81l-92.22-208A2,2,0,0,0,772.7,34Zm12.73,132H714.57l33.59-77.75a2,2,0,0,1,3.68,0ZM916.93,34a2,2,0,0,0-2,2V244a2,2,0,0,0,2,2h117a2,2,0,0,0,1.57-.76l26.84-34a2,2,0,0,0-1.57-3.24H962.93V36a2,2,0,0,0-2-2ZM1401,74a2,2,0,0,1,2-2h124a2,2,0,0,0,2-2V36a2,2,0,0,0-2-2H1354.94a1.94,1.94,0,0,0-1.94,1.94V244a2,2,0,0,0,2,2h176a2,2,0,0,0,2-2V210a2,2,0,0,0-2-2H1403a2,2,0,0,1-2-2V160a2,2,0,0,1,2-2h116a2,2,0,0,0,2-2V122a2,2,0,0,0-2-2H1403a2,2,0,0,1-2-2Z"/></g></g></svg>