<svg xmlns="http://www.w3.org/2000/svg" viewBox="0 0 908.15 188.55"><defs><style>.cls-1{fill:#8e8e8e;}</style></defs><g id="Слой_2" data-name="Слой 2"><g id="Слой_1-2" data-name="Слой 1"><path class="cls-1" d="M.49,81.67c2,0,3.89,0,5.84,0,17.8-.36,35.62-.49,53.41-1.25,7.6-.32,9.61-2.73,11.54-10.06,0-.16,0-.33.08-.49,2.1-7.52,3.16-16,15.12-14.38l-1-1.64c-8.08,0-16.16,0-24.24,0a44.16,44.16,0,0,1-7.46-.42c-7.31-1.29-12-7.13-11.46-14,.53-7.14,5.69-12.06,13.27-12.26,10.48-.28,21-.31,31.46-.45,6.6-.09,12.12-2.75,17.32-6.74C141.87-8.78,192.5-6.21,227,26c6.84,6.38,7.63,14.26,2,20.2-5.4,5.73-13.53,5.34-20.31-1a67.48,67.48,0,0,0-111,30c-.47,1.57-.82,3.17-1.4,5.46,2.13.15,3.85.38,5.57.38q68.73.11,137.44.16c11.06,0,17.14,6.08,16.9,17.37a85.39,85.39,0,0,1-14.57,46.56c-21.88,32.6-53,47.7-91.65,42.36-40-5.52-65.84-29.6-78.19-68-2.36-7.33-1.44-8.45,6.26-9.84a10.89,10.89,0,0,0,5.13-1.85c-1.37-.1-2.74-.26-4.11-.28-17.33-.21-34.66-.26-52-.76a13.19,13.19,0,0,1-8.1-3.52C12.38,96.78,6.29,89.78,0,83Zm227.44,26.61H96.57c3.79,29.29,34.46,54.17,65.84,53.86S225,136.45,227.93,108.28Z"/><path class="cls-1" d="M734.26,91c7.34,6.67,11.34,14.76,11.1,25C745,132.76,731.8,146.65,715,146.87c-18.15.22-36.3.1-54.44,0-7.09,0-11.17-4.18-11.18-11.17q0-41.46,0-82.91c0-7.34,4-11.36,11.46-11.4q23-.13,46,0c25.25.11,40.09,24.53,28.67,47.09C735.12,89.21,734.76,90,734.26,91Zm-64.08,13.89c0,5.85.19,11.31-.06,16.74-.17,3.59,1.23,4.53,4.61,4.49,12.47-.15,24.94,0,37.41-.08a16.88,16.88,0,0,0,3.94-.44,10.48,10.48,0,0,0-.68-20.64,29.37,29.37,0,0,0-5-.39q-17.45-.06-34.91,0C673.92,104.52,672.31,104.7,670.18,104.84Zm.3-21.25c12.72,0,24.84.07,37,0,6.4-.06,10.95-4.56,11-10.45s-4.48-10.45-10.88-10.56c-8.81-.15-17.63,0-26.44,0h-10.6Z"/><path class="cls-1" d="M385.91,104.5c-7,0-13.23,0-19.51,0-7.15-.06-11.41-3.94-11.42-10.3s4.29-10.5,11.32-10.57q15.49-.16,31,0c7.94.09,11.84,4.33,11.66,12.3-.65,28.54-24.36,51.19-53.4,51-28.41-.18-51.45-23.46-51.69-52-.19-22.12,10.15-38.32,29.28-48,18.69-9.43,37.46-7.39,54.62,5.07a16.37,16.37,0,0,1,5.36,6.34c1.88,4.36.71,8.55-3,11.71a10.45,10.45,0,0,1-13.35-.09c-7.93-6.27-16.72-8.64-26.66-6.82-14,2.57-25.16,15.78-25.36,30.05-.2,15.23,10.12,28.79,24.31,32,14.71,3.29,30.16-4.3,36-17.7C385.33,106.83,385.44,106.17,385.91,104.5Z"/><path class="cls-1" d="M529.34,94.22a52.61,52.61,0,1,1-52.51-52.84A52.29,52.29,0,0,1,529.34,94.22Zm-84.13,0c0,17.44,14.52,32,31.71,31.81s31.81-14.83,31.62-32A32,32,0,0,0,476.92,62.5,31.64,31.64,0,0,0,445.21,94.18Z"/><path class="cls-1" d="M851.24,62.45c-9.08,0-17.37.16-25.66-.06-6.43-.16-10.22-3.88-10.5-9.65-.32-6.43,3.49-11.2,10-11.25q36.45-.3,72.91,0c6.22,0,10.27,4.7,10.19,10.64s-3.94,10.11-10.48,10.29c-8.28.23-16.58,0-25.33,0-.1,2.31-.25,4.07-.25,5.83,0,22.47,0,44.94,0,67.41,0,5.57-2.58,9.15-7.29,10.68-4.5,1.45-9.29,0-11.76-4.12a14.37,14.37,0,0,1-1.69-7c-.12-22.14-.07-44.28-.07-66.41Z"/><path class="cls-1" d="M591.81,101.49c0,11.16,0,22.31,0,33.46,0,7.34-4.2,12.07-10.42,12S571,142,571,134.79c0-22.14-.12-44.29.07-66.43,0-4.39-.92-6.29-5.76-6-6.29.43-12.64.21-19,.07-7-.16-11.57-4.3-11.65-10.38s4.83-10.66,12-10.68q35-.07,69.92,0c7,0,11.45,4.21,11.53,10.41s-4.16,10.47-11.23,10.63c-6.82.16-13.66.19-20.48,0-3.46-.1-4.65,1.1-4.59,4.59C591.92,78.52,591.81,90,591.81,101.49Z"/><path class="cls-1" d="M796.54,94.22c0,13.65,0,27.3,0,40.94,0,7.42-3.64,11.6-10,11.75s-10.87-4.32-10.9-11.56q-.12-41.19,0-82.39c0-7.15,4.65-11.78,11-11.56s9.88,4.47,9.9,11.87C796.57,66.92,796.54,80.57,796.54,94.22Z"/></g></g></svg>