<svg xmlns="http://www.w3.org/2000/svg" viewBox="0 0 800 300"><defs><style>.cls-1{fill:#8e8e8e;}</style></defs><g id="Слой_2" data-name="Слой 2"><g id="Слой_1-2" data-name="Слой 1"><path class="cls-1" d="M400.89,139.75V54.5h23.7v85.25ZM412.8,43.51a12.89,12.89,0,0,1-9.07-3.5A11.31,11.31,0,0,1,400,31.52a11.07,11.07,0,0,1,3.73-8.38,12.77,12.77,0,0,1,9.07-3.56,12.58,12.58,0,0,1,9,3.56,11,11,0,0,1,3.79,8.38A11.27,11.27,0,0,1,421.81,40,12.7,12.7,0,0,1,412.8,43.51Z"/><path class="cls-1" d="M467.29,90.46v49.29H443.58V54.5h22.59v15h1a23.87,23.87,0,0,1,9.52-11.77q6.68-4.38,16.19-4.38a30.08,30.08,0,0,1,15.52,3.88,26.42,26.42,0,0,1,10.3,11.1,37,37,0,0,1,3.67,17.1v54.28h-23.7V89.68q0-7.82-4-12.21T483.48,73A17,17,0,0,0,475,75.09a14.37,14.37,0,0,0-5.68,6A20.72,20.72,0,0,0,467.29,90.46Z"/><path class="cls-1" d="M564.76,90.46v49.29H541.05V54.5h22.6v15h1a23.8,23.8,0,0,1,9.51-11.77q6.68-4.38,16.19-4.38a30.14,30.14,0,0,1,15.53,3.88,26.46,26.46,0,0,1,10.29,11.1,37,37,0,0,1,3.67,17.1v54.28h-23.7V89.68q.06-7.82-4-12.21T581,73a17,17,0,0,0-8.46,2.06,14.28,14.28,0,0,0-5.67,6A20.58,20.58,0,0,0,564.76,90.46Z"/><path class="cls-1" d="M401.33,166.75h29.72l31.38,76.37h1.34l31.38-76.37h29.71V280.42H501.49v-74h-.94l-29.5,73.43H455.14l-29.49-73.71h-.95v74.27H401.33Z"/><path class="cls-1" d="M568.8,166.75V280.42H544.71V166.75Z"/><path class="cls-1" d="M683.94,166.75V280.42H663.13l-49.57-71.55h-.84v71.55H588.63V166.75h21.14L659,238.23h1V166.75Z"/><path class="cls-1" d="M744.25,280.42h-40.4V166.75h40.73q17.19,0,29.6,6.82a46.17,46.17,0,0,1,19.09,19.48Q800,205.77,800,223.47T793.27,254a46.17,46.17,0,0,1-19.2,19.59Q761.61,280.41,744.25,280.42Zm-16.31-20.59h15.3q10.69,0,18-3.78a24.27,24.27,0,0,0,11-11.82q3.74-8.05,3.73-20.76t-3.73-20.59a24.07,24.07,0,0,0-11-11.77q-7.29-3.77-18-3.77H727.94Z"/><path class="cls-1" d="M350,74.16a24.93,24.93,0,0,0-49.85.74c0,.6,0,1.19.07,1.78a6.59,6.59,0,0,1-2.79,5.79L226.5,133.16a7.17,7.17,0,0,1-10-1.61L165.79,62a13.81,13.81,0,0,1-2-12.36c1.33-4.2,2.82-10,2.63-14A37.4,37.4,0,1,0,98.57,59.16a10.53,10.53,0,0,1,1.26,9.93L30.1,246.64A5.46,5.46,0,0,1,25,250.06h0a25,25,0,1,0,24.94,25v0a5,5,0,0,1,2.06-4l158-114.11a12.57,12.57,0,0,1,17.38,2.6L308.9,267.3a7.64,7.64,0,0,1,1.45,5.77,14.29,14.29,0,0,0-.23,2.64A15,15,0,1,0,333.4,262.6a4.88,4.88,0,0,1-2.17-4.14l2.7-157.67a4,4,0,0,1,2.26-3.54A25,25,0,0,0,350,74.16ZM41.85,247.36,121.55,79.6A8.24,8.24,0,0,1,129,74.9H129a43.2,43.2,0,0,0,10.93-2,8.12,8.12,0,0,1,8.16,2.33l54.28,59.14a10.67,10.67,0,0,1,2.82,7.24v.12a10.71,10.71,0,0,1-4.94,9L45,250.11a2.16,2.16,0,0,1-3.11-2.75ZM320,257.07,235,154.73a12.5,12.5,0,0,1,3.43-18.86L308.5,96a3.29,3.29,0,0,1,3.37.06,26.2,26.2,0,0,0,2.55,1.4,3.23,3.23,0,0,1,1.83,2.79l6.24,155.84a1.4,1.4,0,0,1-2.48.95Z"/></g></g></svg>