<?xml version="1.0" encoding="utf-8"?><!-- Generator: Adobe Illustrator 25.0.0, SVG Export Plug-In . SVG Version: 6.00 Build 0)  --><svg version="1.1" id="katman_1" xmlns="http://www.w3.org/2000/svg" xmlns:xlink="http://www.w3.org/1999/xlink" x="0px" y="0px"	 viewBox="0 0 371 123.9" style="enable-background:new 0 0 371 123.9;" xml:space="preserve"><style type="text/css">	.st0{fill:#8E8E8E;}</style><path class="st0" d="M187.2,35.8v52.5c0,0.4-0.3,0.8-0.8,0.8h-5.5c-2.5,0-4.9-1.3-6.3-3.4l-24.8-38.3l0.8,19.1v21.9	c0,0.4-0.3,0.8-0.8,0.8h-7.2c-0.4,0-0.8-0.3-0.8-0.8V35.8c0-0.4,0.3-0.8,0.8-0.8h5.4c2.5,0,4.9,1.3,6.3,3.4l24.8,38.2l-0.8-19.1	V35.8c0-0.4,0.3-0.8,0.8-0.8h7.2C186.9,35,187.2,35.3,187.2,35.8L187.2,35.8z"/><path class="st0" d="M261,89h-7.6c-0.5,0-0.9-0.5-0.7-1l20.2-52.3c0.2-0.4,0.6-0.7,1-0.7h9.6c0.5,0,0.9,0.3,1,0.7L304.8,88	c0.2,0.5-0.2,1-0.7,1h-7.6c-0.3,0-0.6-0.2-0.7-0.5l-16.3-43c-0.2-0.6-1.2-0.6-1.4,0l-16.3,43C261.6,88.8,261.3,89,261,89L261,89z"/><path class="st0" d="M357.8,87.8l-15.2-19.4c8.6-1.6,13.6-7.4,13.6-16.3c0-10.2-6.6-17.1-18.4-17.1h-21.2c-0.6,0-1.1,0.5-1.1,1.1	c0,4,3.2,7.2,7.2,7.2H337c7.1,0,10.5,3.6,10.5,8.9c0,5.3-3.3,8.9-10.5,8.9h-20.2c-0.6,0-1.1,0.5-1.1,1.1v26c0,0.4,0.3,0.8,0.8,0.8	h7.2c0.4,0,0.8-0.3,0.8-0.8V68.9h8.3L346,86.1c1.4,1.9,3.6,2.9,6,2.9h5.5C357.9,89,358.2,88.3,357.8,87.8L357.8,87.8z"/><path class="st0" d="M238.2,35h-33.5c-0.6,0-1,0.4-1,1c0,4,3.3,7.3,7.3,7.3h27.2c0.4,0,0.8-0.3,0.8-0.8v-6.8	C238.9,35.3,238.6,35,238.2,35z M238.2,80.7h-25c-0.4,0-0.8-0.3-0.8-0.8V66.4c0-0.4,0.3-0.8,0.8-0.8h23.1c0.4,0,0.8-0.3,0.8-0.8V58	c0-0.4-0.3-0.8-0.8-0.8h-31.5c-0.6,0-1.1,0.5-1.1,1.1v29.5c0,0.6,0.5,1.1,1.1,1.1h33.4c0.4,0,0.8-0.3,0.8-0.8v-6.8	C238.9,81,238.6,80.7,238.2,80.7L238.2,80.7z"/><path class="st0" d="M88.2,21.6L69.4,49.5c-1.3,1.9,1.2,4.2,3,2.6L90.9,36c0.5-0.4,1.2-0.1,1.2,0.6v50.3c0,0.7-0.9,1-1.3,0.5l-56-67	C33,18.2,30.4,17,27.5,17h-2c-5.2,0-9.5,4.3-9.5,9.6v70.8c0,5.3,4.3,9.6,9.6,9.6c3.3,0,6.4-1.7,8.2-4.6l18.8-27.9	c1.3-1.9-1.2-4.2-3-2.6l-18.5,16c-0.5,0.4-1.2,0.1-1.2-0.6V37.1c0-0.7,0.9-1,1.3-0.5l56,67c1.8,2.2,4.5,3.4,7.3,3.4h2	c5.3,0,9.6-4.3,9.6-9.6V26.6c-0.1-5.3-4.4-9.6-9.7-9.6C93.1,17,90,18.7,88.2,21.6z"/></svg>