<svg xmlns="http://www.w3.org/2000/svg" viewBox="0 0 51.36 44.09"><defs><style>.cls-1{fill:#8e8e8e;}</style></defs><g id="Слой_2" data-name="Слой 2"><g id="Слой_1-2" data-name="Слой 1"><path class="cls-1" d="M14,34.4H10.74v-1a1.84,1.84,0,0,0-.13-.89.44.44,0,0,0-.41-.19.54.54,0,0,0-.49.26,1.57,1.57,0,0,0-.16.78,2.18,2.18,0,0,0,.19,1,2.59,2.59,0,0,0,1,.83,10.22,10.22,0,0,1,2.95,2.28,5.28,5.28,0,0,1,.61,2.87,5,5,0,0,1-.35,2.13,2.63,2.63,0,0,1-1.3,1.15,5.24,5.24,0,0,1-2.24.46A5,5,0,0,1,8,43.55a2.62,2.62,0,0,1-1.3-1.36,6.76,6.76,0,0,1-.31-2.34V39H9.64v1.64a2.25,2.25,0,0,0,.13,1,.65.65,0,0,0,1-.06,1.52,1.52,0,0,0,.17-.82,2.54,2.54,0,0,0-.32-1.56A10.55,10.55,0,0,0,9,37.93a16.3,16.3,0,0,1-1.73-1.26,2.9,2.9,0,0,1-.71-1.08,4.88,4.88,0,0,1-.28-1.76,4.82,4.82,0,0,1,.4-2.27A2.63,2.63,0,0,1,8,30.44a5.09,5.09,0,0,1,2.13-.4,5.43,5.43,0,0,1,2.32.44,2.39,2.39,0,0,1,1.28,1.11A5.89,5.89,0,0,1,14,33.87Zm7.46-4.08,2,13.48H19.86l-.17-2.42H18.43l-.21,2.42H14.59l1.79-13.48ZM19.59,39c-.18-1.53-.36-3.41-.53-5.66-.36,2.58-.58,4.46-.67,5.66Zm17.34-8.67L35.37,43.8H31q-.6-3.11-1.06-7.06-.21,1.69-1,7.06H24.6L23,30.32h3.4L26.8,35l.37,4.54q.2-3.53,1-9.24h3.65c0,.39.18,1.88.39,4.45l.38,5.12c.19-3.26.52-6.45,1-9.57Zm6.59,0,2,13.48H41.93l-.17-2.42H40.5l-.21,2.42H36.66l1.78-13.48ZM41.66,39c-.18-1.53-.36-3.41-.53-5.66-.36,2.58-.58,4.46-.67,5.66Z"/><path class="cls-1" d="M49.68,13.68a2.56,2.56,0,0,0,0-.27A23.32,23.32,0,0,0,51.36,5V3.32l-1.46.79a14.12,14.12,0,0,1-5.63,1.27c-.53,0-1.09,0-1.69,0a29.53,29.53,0,0,0-34,0A15,15,0,0,1,1.47,4.11L0,3.3V5a23.59,23.59,0,0,0,1.6,8.13,25.23,25.23,0,0,0-.55,5.2,25.73,25.73,0,0,0,1.68,8.33,32.8,32.8,0,0,0,3.39,6.84C3.65,29.78,3,22.78,3,18.31c0-.5,0-1,.05-1.47a21.65,21.65,0,0,1,.34-2.67l.15-.09h.35c11.49.34,21.59,8,21.59,17.44,0-9.54,10.54-17.32,22.24-17.45.13.64.22,1.3.29,2s.11,1.52.11,2.28S48,19.83,48,20.57c0,4.37-2.89,12.58-3,12.81.36-.64,1.57-2.75,2.7-5.23A22.55,22.55,0,0,0,50,20.76c0-.81.13-1.63.13-2.45A22.76,22.76,0,0,0,50,15.83C49.93,15.11,49.82,14.39,49.68,13.68Z"/><path class="cls-1" d="M40.12,25.61a3.83,3.83,0,0,1-2.86,1.13h-3.7v-.81a5,5,0,0,1,1.54-3.42c1.27-1.17,3.15-1.66,5.59-1.46l.73.06,0,.73A5.8,5.8,0,0,1,40.12,25.61Z"/><path class="cls-1" d="M17.5,25.93v.81h-3.7a3.81,3.81,0,0,1-2.86-1.13,5.64,5.64,0,0,1-1.31-3.77l0-.73.72-.06c2.44-.2,4.32.29,5.59,1.46A5,5,0,0,1,17.5,25.93Z"/></g></g></svg>